<?xml version="1.0" standalone="no"?>
<!DOCTYPE svg PUBLIC "-//W3C//DTD SVG 1.1//EN" "http://www.w3.org/Graphics/SVG/1.1/DTD/svg11.dtd" >
<svg>
<metadata>
Created by FontForge 20090622 at Thu Jan 30 16:10:27 2020
 By deploy user
Copyright (c) 2016 by Jakob Runge and Lisa Fischbach, under exclusive license to TypeMates. All rights reserved.
</metadata>
<defs>
<font id="CeraRoundPro-Thin" horiz-adv-x="560" >
  <font-face 
    font-family="Cera Round Pro Thin"
    font-weight="250"
    font-stretch="normal"
    units-per-em="1000"
    panose-1="0 0 3 0 0 0 0 0 0 0"
    ascent="808"
    descent="-192"
    x-height="480"
    cap-height="660"
    bbox="-103.2 -261 1255 1003"
    underline-thickness="30"
    underline-position="-70"
    unicode-range="U+0020-U+FB02"
  />
<missing-glyph horiz-adv-x="702" 
d="M584 660q6 0 10.5 -4.5t4.5 -10.5v-630q0 -6 -4.5 -10.5t-10.5 -4.5h-466q-6 0 -10.5 4.5t-4.5 10.5v630q0 6 4.5 10.5t10.5 4.5h466zM569 28v604h-438z" />
    <glyph glyph-name="fi" unicode="fi" horiz-adv-x="513" 
d="M278 757q15 -3 15 -15q0 -13 -14 -13q-1 0 -14 1.5t-25 1.5q-107 0 -107 -107v-145h120q14 0 14 -14t-14 -14h-120v-447q0 -6 -4.5 -10.5t-10.5 -4.5q-15 0 -15 15v447h-59q-14 0 -14 14t14 14h59v145q0 65 35.5 100t99.5 35q26 0 40 -3zM399 699q14 0 23.5 -9.5
t9.5 -23.5t-9.5 -23.5t-23.5 -9.5t-23.5 9.5t-9.5 23.5t9.5 23.5t23.5 9.5zM399 490q6 0 10.5 -4.5t4.5 -10.5v-470q0 -6 -4.5 -10.5t-10.5 -4.5t-10.5 4.5t-4.5 10.5v470q0 15 15 15z" />
    <glyph glyph-name="fl" unicode="fl" horiz-adv-x="513" 
d="M278 757q15 -3 15 -15q0 -13 -14 -13q-1 0 -14 1.5t-25 1.5q-107 0 -107 -107v-145h120q14 0 14 -14t-14 -14h-120v-447q0 -6 -4.5 -10.5t-10.5 -4.5q-15 0 -15 15v447h-59q-14 0 -14 14t14 14h59v145q0 65 35.5 100t99.5 35q26 0 40 -3zM399 760q6 0 10.5 -4.5
t4.5 -10.5v-740q0 -15 -15 -15q-6 0 -10.5 4.5t-4.5 10.5v740q0 6 4.5 10.5t10.5 4.5z" />
    <glyph glyph-name=".notdef" horiz-adv-x="702" 
d="M584 660q6 0 10.5 -4.5t4.5 -10.5v-630q0 -6 -4.5 -10.5t-10.5 -4.5h-466q-6 0 -10.5 4.5t-4.5 10.5v630q0 6 4.5 10.5t10.5 4.5h466zM569 28v604h-438z" />
    <glyph glyph-name=".null" horiz-adv-x="0" 
 />
    <glyph glyph-name="nonmarkingreturn" horiz-adv-x="333" 
 />
    <glyph glyph-name="space" unicode=" " horiz-adv-x="280" 
 />
    <glyph glyph-name="exclam" unicode="!" horiz-adv-x="270" 
d="M135 180q-6 0 -10.5 4.5t-4.5 10.5v460q0 6 4.5 10.5t10.5 4.5t10.5 -4.5t4.5 -10.5v-460q0 -6 -4.5 -10.5t-10.5 -4.5zM134 -10q-15 0 -26.5 10.5t-11.5 27.5q0 18 11.5 29t26.5 11q16 0 28 -10.5t12 -29.5q0 -17 -12 -27.5t-28 -10.5z" />
    <glyph glyph-name="quotedbl" unicode="&#x22;" horiz-adv-x="405" 
d="M112 417q-6 0 -10.5 4.5t-4.5 10.5q0 3 4.5 28t9.5 74t5 110q0 21 18 21q19 0 19 -21q0 -95 -25 -212q-3 -15 -16 -15zM252 417q-6 0 -10.5 4.5t-4.5 10.5q0 3 4.5 28t9.5 74t5 110q0 21 18 21q19 0 19 -21q0 -95 -25 -212q-3 -15 -16 -15z" />
    <glyph glyph-name="numbersign" unicode="#" horiz-adv-x="569" 
d="M527 475q14 0 14 -14t-14 -14h-84l-31 -234h87q14 0 14 -14t-14 -14h-91l-25 -184q-2 -11 -15 -11q-14 0 -14 14l1 11l23 170h-226l-25 -184q-2 -11 -15 -11q-14 0 -14 14l1 11l23 170h-80q-14 0 -14 14t14 14h84l31 234h-87q-14 0 -14 14t14 14h91l25 184q2 11 15 11
q14 0 14 -14l-1 -11l-23 -170h226l25 184q2 11 15 11q14 0 14 -14l-1 -11l-23 -170h80zM156 213h226l31 234h-226z" />
    <glyph glyph-name="dollar" unicode="$" horiz-adv-x="534" 
d="M457 175q0 -66 -50 -107.5t-125 -45.5v-96q0 -17 -15 -17q-16 0 -16 17v97q-127 9 -197 125q-3 4 -3 10q0 15 14 15q11 0 15 -9q26 -49 70.5 -77.5t100.5 -33.5v279l-21 10q-30 14 -47.5 24t-40.5 28t-34 42.5t-11 55.5q0 61 44 98t110 43v101q0 17 16 17q15 0 15 -17
v-100q93 -5 154 -82q8 -10 8 -17q0 -15 -14 -15q-4 0 -6.5 1.5t-4 3t-5.5 6t-7 7.5q-17 19 -30 30.5t-38.5 22.5t-56.5 12v-251l35 -17q67 -32 103.5 -68t36.5 -92zM245 369l6 -3v236q-51 -5 -85.5 -31.5t-34.5 -76.5q0 -25 8.5 -44.5t27.5 -34.5t34 -23.5t44 -22.5zM282 52
q62 3 101.5 35.5t39.5 86.5q0 47 -30.5 76.5t-90.5 57.5l-20 9v-265z" />
    <glyph glyph-name="percent" unicode="%" horiz-adv-x="794" 
d="M215 354q-66 0 -111.5 46t-45.5 112t45.5 112t111.5 46t112 -46t46 -112t-46 -112t-112 -46zM209 -9q-13 0 -13 13q0 6 4 13l374 644q6 9 15 9q14 0 14 -12q0 -6 -4 -13l-375 -645q-6 -9 -15 -9zM215 383q54 0 90 37t36 92t-36 92t-90 37q-53 0 -89 -37t-36 -92t36 -92
t89 -37zM578 -9q-66 0 -111.5 46t-45.5 112t45.5 112t111.5 46t112 -46t46 -112t-46 -112t-112 -46zM578 20q54 0 90 37t36 92t-36 92t-90 37q-53 0 -89 -37t-36 -92t36 -92t89 -37z" />
    <glyph glyph-name="ampersand" unicode="&#x26;" horiz-adv-x="588" 
d="M461 128l95 -111q6 -7 6 -12q0 -6 -4.5 -10.5t-10.5 -4.5q-7 0 -14 9l-91 106q-92 -115 -199 -115q-81 0 -135.5 46.5t-54.5 116.5q0 54 37.5 102.5t128.5 110.5q-48 59 -66.5 96t-18.5 75q0 59 36 96t94 37q57 0 94 -36t37 -91q0 -87 -133 -183l179 -208q26 36 93 145
q6 9 14 9q14 0 14 -14q0 -7 -7 -18q-66 -107 -94 -146zM265 639q-46 0 -72.5 -27.5t-26.5 -74.5q0 -35 16.5 -68t61.5 -88q119 86 119 164q0 43 -27 68.5t-71 25.5zM242 21q95 0 180 107l-186 217q-91 -69 -121 -106.5t-30 -83.5q0 -58 44.5 -96t112.5 -38z" />
    <glyph glyph-name="quotesingle" unicode="'" horiz-adv-x="265" 
d="M112 417q-6 0 -10.5 4.5t-4.5 10.5q0 3 4.5 28t9.5 74t5 110q0 21 18 21q19 0 19 -21q0 -95 -25 -212q-3 -15 -16 -15z" />
    <glyph glyph-name="parenleft" unicode="(" horiz-adv-x="315" 
d="M267 -127q-3 0 -8 3q-73 41 -122.5 144.5t-49.5 278.5q0 174 50 277.5t122 145.5q5 3 8 3q14 0 14 -14q0 -8 -8 -13q-65 -40 -110.5 -139t-45.5 -260t45 -258.5t111 -140.5q8 -5 8 -13q0 -14 -14 -14z" />
    <glyph glyph-name="parenright" unicode=")" horiz-adv-x="315" 
d="M48 -130q-14 0 -14 14q0 8 8 13q66 43 111 140.5t45 258.5t-45.5 260t-110.5 139q-8 5 -8 13q0 14 14 14q4 0 8 -3q72 -42 122 -145.5t50 -277.5q0 -175 -49.5 -278.5t-122.5 -144.5q-4 -3 -8 -3z" />
    <glyph glyph-name="asterisk" unicode="*" horiz-adv-x="364" 
d="M302 554q9 -6 9 -14q0 -13 -13 -13q-6 0 -10 3l-92 53v-106q0 -17 -14 -17t-14 17v106l-92 -53q-4 -3 -9 -3q-9 0 -12 7q-2 4 -2 6q0 8 9 14l92 53l-92 53q-9 6 -9 14q0 13 14 13q3 0 9 -2l92 -53v106q0 16 14 16t14 -16v-106l92 53q6 2 9 2q7 0 12 -6q2 -4 2 -7
q0 -8 -9 -14l-92 -53z" />
    <glyph glyph-name="plus" unicode="+" 
d="M280 89q-6 0 -10.5 4.5t-4.5 10.5v191h-186q-15 0 -15 14t15 14h186v191q0 6 4.5 10.5t10.5 4.5t10.5 -4.5t4.5 -10.5v-191h185q15 0 15 -14t-15 -14h-185v-191q0 -6 -4.5 -10.5t-10.5 -4.5z" />
    <glyph glyph-name="comma" unicode="," horiz-adv-x="270" 
d="M112 -190q-6 0 -10.5 4.5t-4.5 10.5q0 3 5.5 30.5t10.5 78.5t5 112q0 21 18 21q19 0 19 -21q0 -87 -27 -221q-3 -15 -16 -15z" />
    <glyph glyph-name="hyphen" unicode="-" horiz-adv-x="340" 
d="M267 323q15 0 15 -14t-15 -14h-194q-15 0 -15 14t15 14h194z" />
    <glyph glyph-name="period" unicode="." horiz-adv-x="270" 
d="M134 -10q-15 0 -26.5 10.5t-11.5 27.5q0 18 11.5 29t26.5 11q16 0 28 -10.5t12 -29.5q0 -17 -12 -27.5t-28 -10.5z" />
    <glyph glyph-name="slash" unicode="/" horiz-adv-x="561" 
d="M27 -133q-15 0 -15 14q0 3 2 7l521 886q4 7 13 7q15 0 15 -14q0 -3 -2 -7l-521 -886q-4 -7 -13 -7z" />
    <glyph glyph-name="zero" unicode="0" horiz-adv-x="600" 
d="M300 670q109 0 167 -86.5t58 -247.5q0 -164 -59 -255t-166 -91t-166 91t-59 255q0 161 58 247.5t167 86.5zM300 639q-94 0 -142.5 -77t-48.5 -226q0 -152 49.5 -233.5t141.5 -81.5t141.5 81.5t49.5 233.5q0 149 -48.5 226t-142.5 77z" />
    <glyph glyph-name="one" unicode="1" horiz-adv-x="362" 
d="M226 660q13 0 13 -15v-638q0 -17 -16 -17t-16 17v618l-134 -44q-11 -4 -16 -4q-13 0 -13 13q0 11 12 15l145 48q20 7 25 7z" />
    <glyph glyph-name="two" unicode="2" horiz-adv-x="541" 
d="M472 29q16 0 16 -14q0 -15 -16 -15h-408q-6 0 -10.5 4.5t-4.5 10.5t5 11l236 232q69 68 98.5 118.5t29.5 102.5q0 70 -44.5 115t-112.5 45q-69 0 -116 -46.5t-47 -115.5q0 -10 2 -27t2 -20q0 -16 -16 -16q-12 0 -16 13q-6 19 -6 51q0 81 56.5 136.5t138.5 55.5
q83 0 138 -53.5t55 -135.5q0 -57 -31 -110.5t-110 -132.5l-211 -209h372z" />
    <glyph glyph-name="three" unicode="3" horiz-adv-x="528" 
d="M258 401q92 0 151 -56t59 -143q0 -92 -63 -152t-159 -60q-61 0 -114.5 30t-90.5 85q-3 5 -3 10q0 6 4.5 10.5t10.5 4.5q7 0 12 -6q76 -103 183 -103q82 0 134 51t52 131q0 79 -52 124.5t-142 45.5h-35q-6 0 -10.5 4.5t-4.5 10.5t5 11l206 232h-318q-15 0 -15 15
q0 14 15 14h350q6 0 10.5 -4.5t4.5 -10.5t-6 -12l-207 -233q7 1 23 1z" />
    <glyph glyph-name="four" unicode="4" horiz-adv-x="524" 
d="M480 163q16 0 16 -14q0 -15 -16 -15h-89v-127q0 -17 -16 -17t-16 17v127h-318q-6 0 -10.5 4.5t-4.5 10.5q0 4 2 8l224 503q4 10 15 10q5 0 9.5 -4.5t4.5 -10.5q0 -3 -2 -7l-213 -485h293v245q0 17 16 17t16 -17v-245h89z" />
    <glyph glyph-name="five" unicode="5" horiz-adv-x="547" 
d="M259 403q98 0 163 -51t65 -150q0 -98 -65.5 -155.5t-153.5 -57.5q-129 0 -209 115q-4 5 -4 10q0 6 4.5 10.5t10.5 4.5q8 0 12 -6q71 -104 188 -104q79 0 131 51.5t52 131.5t-51.5 125.5t-143.5 45.5h-128q-17 0 -17 17v253q0 17 17 17h287q16 0 16 -14q0 -15 -16 -15
h-272v-228h114z" />
    <glyph glyph-name="six" unicode="6" horiz-adv-x="542" 
d="M270 410q89 0 150.5 -61t61.5 -149q0 -89 -61 -149.5t-150 -60.5q-90 0 -150.5 60.5t-60.5 150.5q0 45 12.5 78t47.5 85l199 298q5 8 13 8q6 0 10.5 -4.5t4.5 -10.5q0 -5 -5 -13l-179 -264q45 32 107 32zM271 19q77 0 128 51.5t51 128.5t-51.5 129.5t-127.5 52.5
t-127.5 -52.5t-51.5 -129.5t51 -128.5t128 -51.5z" />
    <glyph glyph-name="seven" unicode="7" horiz-adv-x="482" 
d="M440 660q15 0 15 -15q0 -3 -3 -9l-360 -638q-5 -8 -13 -8q-6 0 -10.5 4.5t-4.5 10.5q0 5 5 13l346 613h-367q-16 0 -16 15q0 14 16 14h392z" />
    <glyph glyph-name="eight" unicode="8" horiz-adv-x="568" 
d="M322 350q36 -13 64.5 -28t57 -37.5t44 -53.5t15.5 -69q0 -76 -59 -124t-160 -48t-160 48.5t-59 124.5q0 126 181 186q-149 57 -149 166q0 72 53.5 113.5t133.5 41.5t133.5 -41.5t53.5 -114.5q0 -113 -149 -164zM129 514q0 -55 39.5 -88.5t115.5 -61.5q76 28 115.5 61.5
t39.5 88.5q0 58 -44 92.5t-111 34.5t-111 -34.5t-44 -92.5zM284 19q88 0 137.5 40t49.5 104q0 35 -14.5 62.5t-44 47.5t-57 32.5t-71.5 27.5q-44 -15 -71.5 -27.5t-57 -32.5t-44 -47.5t-14.5 -62.5q0 -64 50 -104t137 -40z" />
    <glyph glyph-name="nine" unicode="9" horiz-adv-x="542" 
d="M271 670q90 0 150.5 -60.5t60.5 -150.5q0 -45 -12.5 -78t-47.5 -85l-199 -298q-5 -8 -13 -8q-6 0 -10.5 4.5t-4.5 10.5q0 5 5 13l179 264q-45 -32 -107 -32q-89 0 -150.5 61t-61.5 149q0 89 61 149.5t150 60.5zM271 279q76 0 127.5 52.5t51.5 129.5t-51 128.5t-128 51.5
t-128 -51.5t-51 -128.5t51.5 -129.5t127.5 -52.5z" />
    <glyph glyph-name="colon" unicode=":" horiz-adv-x="270" 
d="M134 404q-15 0 -26.5 10.5t-11.5 27.5q0 18 11.5 29t26.5 11q16 0 28 -11t12 -29q0 -17 -12 -27.5t-28 -10.5zM134 -10q-15 0 -26.5 10.5t-11.5 27.5q0 18 11.5 29t26.5 11q16 0 28 -10.5t12 -29.5q0 -17 -12 -27.5t-28 -10.5z" />
    <glyph glyph-name="semicolon" unicode=";" horiz-adv-x="270" 
d="M134 404q-15 0 -26.5 10.5t-11.5 27.5q0 18 11.5 29t26.5 11q16 0 28 -11t12 -29q0 -17 -12 -27.5t-28 -10.5zM112 -190q-6 0 -10.5 4.5t-4.5 10.5q0 3 5.5 30.5t10.5 78.5t5 112q0 21 18 21q19 0 19 -21q0 -87 -27 -221q-3 -15 -16 -15z" />
    <glyph glyph-name="less" unicode="&#x3c;" 
d="M487 159q11 -5 11 -14q0 -6 -4.5 -10.5t-10.5 -4.5q-4 0 -12 3l-397 163q-11 5 -11 14t11 14l397 163q8 3 12 3q6 0 10.5 -4.5t4.5 -10.5q0 -9 -11 -14l-367 -151z" />
    <glyph glyph-name="equal" unicode="=" 
d="M470 423q15 0 15 -14t-15 -14h-381q-15 0 -15 14t15 14h381zM470 222q15 0 15 -14t-15 -14h-381q-15 0 -15 14t15 14h381z" />
    <glyph glyph-name="greater" unicode="&#x3e;" 
d="M486 324q11 -5 11 -14t-11 -14l-397 -163q-7 -3 -12 -3q-6 0 -10.5 4.5t-4.5 10.5q0 9 11 14l367 151l-367 151q-11 5 -11 14q0 6 4.5 10.5t10.5 4.5q5 0 12 -3z" />
    <glyph glyph-name="question" unicode="?" horiz-adv-x="440" 
d="M202 180q-15 0 -15 16v28q0 35 16 63.5t56 67.5q58 56 76.5 86.5t18.5 68.5q0 57 -36.5 94t-92.5 37q-45 0 -79 -27t-53 -75q-4 -9 -13 -9q-15 0 -15 15q0 5 4 15q18 49 59.5 79.5t95.5 30.5q68 0 115 -46t47 -113q0 -44 -22.5 -81t-84.5 -95q-34 -31 -46.5 -55
t-13.5 -56l-1 -29q0 -15 -16 -15zM207 -10q-15 0 -26.5 10.5t-11.5 27.5q0 18 11.5 29t26.5 11q16 0 28 -10.5t12 -29.5q0 -17 -12 -27.5t-28 -10.5z" />
    <glyph glyph-name="at" unicode="@" horiz-adv-x="904" 
d="M461 648q176 0 281 -108t105 -289q0 -94 -37 -146t-103 -52q-37 0 -62.5 23.5t-32.5 62.5q-18 -47 -65 -77t-106 -30q-84 0 -141.5 60t-57.5 148t57.5 147.5t141.5 59.5q58 0 103.5 -27.5t65.5 -73.5v79q0 14 15 14q14 0 14 -14v-258q0 -86 70 -86q50 0 78 44t28 124
q0 170 -95 270t-257 100q-158 0 -266 -105.5t-108 -259.5q0 -155 108.5 -261t267.5 -106q73 0 130 22q6 2 11.5 -0.5t7.5 -7.5q3 -12 -11 -18q-63 -25 -141 -25q-170 0 -287.5 115.5t-117.5 281.5q0 165 117 279t287 114zM443 61q74 0 120 49.5t46 129.5t-45.5 129
t-120.5 49q-73 0 -121 -50.5t-48 -127.5t48 -128t121 -51z" />
    <glyph glyph-name="A" unicode="A" horiz-adv-x="665" 
d="M614 14q3 -8 3 -11q0 -13 -15 -13q-12 0 -16 12l-71 173h-365l-71 -173q-5 -12 -16 -12q-15 0 -15 13q0 3 3 11l267 645q3 11 15 11t15 -11zM333 619l-171 -415h341z" />
    <glyph glyph-name="B" unicode="B" horiz-adv-x="610" 
d="M406 366q72 -12 113 -59.5t41 -119.5q0 -85 -55.5 -136t-147.5 -51h-237q-17 0 -17 17v626q0 17 17 17h205q78 0 124 -42.5t46 -113.5q0 -100 -89 -138zM322 632l-187 -1v-257h187q65 0 102.5 34.5t37.5 94.5q0 61 -37.5 95.5t-102.5 33.5zM355 29q78 0 125 43t47 114
q0 72 -47 115.5t-125 43.5h-220v-316h220z" />
    <glyph glyph-name="C" unicode="C" horiz-adv-x="709" 
d="M391 -10q-142 0 -238 98t-96 242q0 143 96.5 241.5t237.5 98.5q157 0 254 -120q6 -8 6 -14q0 -15 -14 -15q-8 0 -15 8q-87 110 -231 110q-127 0 -213.5 -89t-86.5 -220q0 -132 86 -220.5t214 -88.5q144 0 231 110q7 8 15 8q14 0 14 -15q0 -6 -6 -14q-97 -120 -254 -120z
" />
    <glyph glyph-name="D" unicode="D" horiz-adv-x="698" 
d="M282 660q164 0 261.5 -89t97.5 -240t-97.5 -241t-261.5 -90h-162q-17 0 -17 17v626q0 17 17 17h162zM282 631h-147v-602h147q146 0 235.5 83t89.5 219t-89 218t-236 82z" />
    <glyph glyph-name="E" unicode="E" horiz-adv-x="561" 
d="M120 0q-17 0 -17 17v626q0 17 17 17h376q15 0 15 -14q0 -6 -4.5 -10.5t-10.5 -4.5h-361v-257h281q15 0 15 -14q0 -6 -4.5 -10.5t-10.5 -4.5h-281v-316h373q15 0 15 -14q0 -6 -4.5 -10.5t-10.5 -4.5h-388z" />
    <glyph glyph-name="F" unicode="F" horiz-adv-x="514" 
d="M119 0q-16 0 -16 17v626q0 17 17 17h366q15 0 15 -14q0 -6 -4.5 -10.5t-10.5 -4.5h-351v-276h291q15 0 15 -14q0 -6 -4.5 -10.5t-10.5 -4.5h-291v-309q0 -17 -16 -17z" />
    <glyph glyph-name="G" unicode="G" horiz-adv-x="744" 
d="M391 -10q-141 0 -237.5 98.5t-96.5 241.5t96.5 241.5t237.5 98.5q77 0 144.5 -32t109.5 -88q6 -8 6 -14q0 -15 -14 -15q-8 0 -20 14q-87 104 -225 104q-128 0 -214.5 -88.5t-86.5 -219.5q0 -132 86.5 -221t215.5 -89q80 0 148 37t108 102v126h-245q-17 0 -17 15t17 15
h260q17 0 17 -17v-125q0 -20 -8 -33q-44 -70 -119.5 -110.5t-162.5 -40.5z" />
    <glyph glyph-name="H" unicode="H" horiz-adv-x="704" 
d="M119 -10q-16 0 -16 16v648q0 16 16 16t16 -16v-280h434v280q0 16 16 16t16 -16v-648q0 -16 -16 -16t-16 16v339h-434v-339q0 -16 -16 -16z" />
    <glyph glyph-name="I" unicode="I" horiz-adv-x="238" 
d="M119 -10q-16 0 -16 17v646q0 17 16 17t16 -17v-646q0 -17 -16 -17z" />
    <glyph glyph-name="J" unicode="J" horiz-adv-x="361" 
d="M108 -10q-41 0 -65 6q-16 4 -16 17q0 16 17 16q4 0 25 -3.5t38 -3.5q119 0 119 113v518q0 17 16 17t16 -17v-518q0 -70 -39 -107.5t-111 -37.5z" />
    <glyph glyph-name="K" unicode="K" horiz-adv-x="598" 
d="M119 670q16 0 16 -17v-646q0 -17 -16 -17t-16 17v646q0 17 16 17zM545 17q6 -6 6 -13q0 -5 -4.5 -9.5t-10.5 -4.5q-7 0 -17 10l-352 346q-5 5 -5 12t6 13l320 284q16 15 24 15q15 0 15 -15q0 -7 -9 -15l-319 -283z" />
    <glyph glyph-name="L" unicode="L" horiz-adv-x="493" 
d="M120 0q-17 0 -17 17v636q0 17 16 17t16 -17v-624h321q15 0 15 -14q0 -6 -4.5 -10.5t-10.5 -4.5h-336z" />
    <glyph glyph-name="M" unicode="M" horiz-adv-x="782" 
d="M664 670q6 0 10.5 -4.5t4.5 -11.5v-648q0 -16 -16 -16t-16 16v594l-239 -366q-8 -12 -17 -12t-17 12l-239 366v-594q0 -16 -16 -16t-16 16v648q0 7 4.5 11.5t10.5 4.5q10 0 18 -12l255 -390l255 390q8 12 18 12z" />
    <glyph glyph-name="N" unicode="N" horiz-adv-x="704" 
d="M585 670q16 0 16 -17v-646q0 -17 -16 -17q-7 0 -13 7l-437 606v-596q0 -17 -16 -17t-16 17v646q0 17 16 17q7 0 13 -7l437 -606v596q0 17 16 17z" />
    <glyph glyph-name="O" unicode="O" horiz-adv-x="784" 
d="M391 670q141 0 238.5 -98.5t97.5 -241.5t-97.5 -241.5t-238.5 -98.5q-140 0 -237 98.5t-97 241.5t96.5 241.5t237.5 98.5zM392 639q-128 0 -214.5 -88.5t-86.5 -219.5q0 -132 86.5 -221t214.5 -89q127 0 214 89.5t87 220.5q0 130 -86.5 219t-214.5 89z" />
    <glyph glyph-name="P" unicode="P" horiz-adv-x="557" 
d="M119 -10q-16 0 -16 17v636q0 17 17 17h202q86 0 138 -47.5t52 -126.5t-52 -127t-138 -48h-187v-304q0 -17 -16 -17zM135 340h185q73 0 116 39t43 106t-42.5 106.5t-116.5 39.5h-185v-291z" />
    <glyph glyph-name="Q" unicode="Q" horiz-adv-x="784" 
d="M1007 -155q20 3 20 -12q0 -13 -22 -17q-33 -6 -76 -6q-241 0 -394 212q-67 -32 -144 -32q-140 0 -237 98.5t-97 241.5t96.5 241.5t237.5 98.5t238.5 -98.5t97.5 -241.5q0 -94 -44.5 -172t-120.5 -122q146 -197 366 -197q37 0 79 6zM91 331q0 -132 86.5 -221t214.5 -89
t214.5 89t86.5 221q0 131 -86.5 219.5t-214.5 88.5t-214.5 -88.5t-86.5 -219.5z" />
    <glyph glyph-name="R" unicode="R" horiz-adv-x="608" 
d="M574 17q5 -7 5 -12q0 -15 -16 -15q-9 0 -15 9l-236 312h-177v-305q0 -16 -16 -16t-16 16v638q0 16 16 16h203q86 0 138 -47.5t52 -126.5q0 -72 -43.5 -118.5t-117.5 -54.5zM135 631v-291h185q73 0 116 39t43 106t-42.5 106.5t-116.5 39.5h-185z" />
    <glyph glyph-name="S" unicode="S" horiz-adv-x="555" 
d="M283 -10q-139 0 -224 126q-4 6 -4 12q0 14 15 14q8 0 15 -10q74 -111 199 -111q74 0 118.5 38t44.5 100q0 52 -27 83t-104 68l-76 36q-79 37 -111 75t-32 93q0 73 53.5 114.5t132.5 41.5q112 0 180 -85q5 -6 5 -13q0 -5 -4 -9.5t-10 -4.5q-8 0 -14 8q-61 73 -155 73
q-62 0 -108 -30t-46 -93q0 -47 26.5 -77.5t97.5 -64.5l76 -36q84 -41 117 -80t33 -99q0 -74 -55.5 -121.5t-142.5 -47.5z" />
    <glyph glyph-name="T" unicode="T" horiz-adv-x="584" 
d="M292 -10q-16 0 -16 17v624h-236q-6 0 -10.5 4.5t-4.5 10.5q0 14 15 14h504q15 0 15 -14q0 -6 -4.5 -10.5t-10.5 -4.5h-236v-624q0 -17 -16 -17z" />
    <glyph glyph-name="U" unicode="U" horiz-adv-x="678" 
d="M340 -10q-115 0 -181.5 70.5t-66.5 191.5v401q0 17 16 17t16 -17v-401q0 -107 58 -169t158 -62q99 0 156.5 62t57.5 169v401q0 17 16 17t16 -17v-401q0 -121 -66.5 -191.5t-179.5 -70.5z" />
    <glyph glyph-name="V" unicode="V" horiz-adv-x="665" 
d="M602 670q6 0 10.5 -4.5t4.5 -10.5q0 -3 -2 -9l-268 -646q-5 -10 -14 -10q-10 0 -15 10l-268 646q-2 6 -2 9q0 7 5 11t10 4q11 0 16 -12l254 -618l253 618q4 12 16 12z" />
    <glyph glyph-name="W" unicode="W" horiz-adv-x="1077" 
d="M1004 670q6 0 10.5 -4.5t4.5 -9.5q0 -4 -2 -10l-225 -643q-5 -13 -18 -13q-12 0 -17 13l-219 614l-218 -613q-5 -14 -17 -14q-13 0 -18 14l-225 642q-2 6 -2 10q0 14 15 14q12 0 16 -13l214 -623l220 623q4 13 16 13q10 0 15 -13l220 -623l214 623q4 13 16 13z" />
    <glyph glyph-name="X" unicode="X" horiz-adv-x="579" 
d="M529 15q3 -5 3 -10q0 -15 -15 -15q-8 0 -15 10l-212 313l-213 -313q-7 -10 -15 -10q-15 0 -15 15q0 5 5 12l220 323l-205 305q-3 5 -3 10q0 15 15 15q8 0 15 -10l197 -295l194 295q7 10 15 10q15 0 15 -15q0 -5 -5 -13l-201 -303z" />
    <glyph glyph-name="Y" unicode="Y" horiz-adv-x="610" 
d="M546 656q0 -4 -5 -12l-220 -359v-278q0 -17 -16 -17t-16 17v279l-220 357q-5 7 -5 13q0 14 15 14q8 0 13 -8l213 -349l213 349q5 8 13 8q15 0 15 -14z" />
    <glyph glyph-name="Z" unicode="Z" horiz-adv-x="590" 
d="M537 29q15 0 15 -14q0 -6 -4.5 -10.5t-10.5 -4.5h-480q-15 0 -15 13q0 7 5 13l458 605h-406q-6 0 -10.5 4.5t-4.5 10.5q0 14 15 14h435q15 0 15 -14q0 -4 -6 -12l-456 -605h450z" />
    <glyph glyph-name="bracketleft" unicode="[" horiz-adv-x="337" 
d="M264 729q15 0 15 -14t-15 -14h-122v-804h122q15 0 15 -14t-15 -14h-135q-17 0 -17 17v826q0 17 17 17h135z" />
    <glyph glyph-name="backslash" unicode="\" horiz-adv-x="561" 
d="M541 -133q-9 0 -13 7l-521 886q-2 4 -2 7q0 14 15 14q9 0 13 -7l521 -886q2 -4 2 -7q0 -14 -15 -14z" />
    <glyph glyph-name="bracketright" unicode="]" horiz-adv-x="337" 
d="M208 729q17 0 17 -17v-826q0 -17 -17 -17h-135q-15 0 -15 14t15 14h122v804h-122q-15 0 -15 14t15 14h135z" />
    <glyph glyph-name="asciicircum" unicode="^" horiz-adv-x="492" 
d="M92 292q-6 0 -10 4t-4 9q0 6 5 18l150 337q4 10 13 10t13 -10l150 -337q5 -12 5 -18q0 -5 -4 -9t-10 -4q-11 0 -16 12l-138 313l-138 -313q-5 -12 -16 -12z" />
    <glyph glyph-name="underscore" unicode="_" horiz-adv-x="500" 
d="M438 -84q14 0 14 -14t-14 -14h-376q-14 0 -14 14t14 14h376z" />
    <glyph glyph-name="grave" unicode="`" horiz-adv-x="193" 
d="M131 561q-8 0 -14 12l-86 176q-4 10 -4 14q0 5 4 9t10 4q11 0 16 -11l84 -184q2 -4 2 -8q0 -12 -12 -12z" />
    <glyph glyph-name="a" unicode="a" horiz-adv-x="516" 
d="M252 490q81 0 127 -49.5t46 -135.5v-300q0 -6 -4.5 -10.5t-10.5 -4.5t-10.5 4.5t-4.5 10.5v80q-26 -44 -73 -69.5t-106 -25.5q-73 0 -118.5 35.5t-45.5 91.5q0 57 44.5 90.5t119.5 33.5h179v65q0 73 -38.5 114t-106.5 41q-81 0 -142 -73q-6 -7 -13 -7q-14 0 -14 13
q0 7 7 15q69 81 164 81zM217 19q74 0 126 45.5t52 110.5v38h-178q-63 0 -98 -25.5t-35 -70.5q0 -44 36.5 -71t96.5 -27z" />
    <glyph glyph-name="b" unicode="b" horiz-adv-x="635" 
d="M335 490q101 0 170.5 -72t69.5 -178q0 -105 -69.5 -177.5t-170.5 -72.5q-70 0 -126 35t-80 91v-111q0 -6 -4.5 -10.5t-10.5 -4.5t-10.5 4.5t-4.5 10.5v740q0 15 15 15q6 0 10.5 -4.5t4.5 -10.5v-381q24 56 80 91t126 35zM335 19q89 0 148.5 63.5t59.5 157.5
q0 95 -59.5 158t-148.5 63q-93 0 -149.5 -60.5t-56.5 -160.5t56.5 -160.5t149.5 -60.5z" />
    <glyph glyph-name="c" unicode="c" horiz-adv-x="553" 
d="M305 -10q-102 0 -173.5 73t-71.5 177t71.5 177t174.5 73q114 0 186 -88q8 -9 8 -16q0 -5 -4.5 -9t-9.5 -4q-7 0 -13 7q-62 81 -167 81q-91 0 -152.5 -64t-61.5 -157t61.5 -157t151.5 -64q102 0 167 81q6 7 13 7q5 0 9.5 -4t4.5 -9q0 -7 -8 -16q-75 -88 -186 -88z" />
    <glyph glyph-name="d" unicode="d" horiz-adv-x="635" 
d="M521 760q6 0 10.5 -4.5t4.5 -10.5v-740q0 -6 -4.5 -10.5t-10.5 -4.5t-10.5 4.5t-4.5 10.5v111q-24 -56 -80 -91t-126 -35q-101 0 -170.5 72.5t-69.5 177.5q0 106 69.5 178t170.5 72q70 0 126 -35t80 -91v381q0 15 15 15zM300 19q93 0 149.5 60.5t56.5 160.5t-56.5 160.5
t-149.5 60.5q-89 0 -148.5 -63t-59.5 -158q0 -94 59.5 -157.5t148.5 -63.5z" />
    <glyph glyph-name="e" unicode="e" horiz-adv-x="573" 
d="M298 490q94 0 154.5 -61t60.5 -155v-16q0 -21 -19 -21h-402q1 -93 62 -155.5t152 -62.5q99 0 162 74q7 8 13 8q14 0 14 -13q0 -7 -7 -15q-74 -83 -182 -83q-103 0 -174.5 73t-71.5 177q0 105 69 177.5t169 72.5zM298 461q-81 0 -139 -56t-66 -140h389q3 84 -49 140
t-135 56z" />
    <glyph glyph-name="f" unicode="f" horiz-adv-x="270" 
d="M278 757q15 -3 15 -15q0 -13 -14 -13q-1 0 -14 1.5t-25 1.5q-107 0 -107 -107v-145h120q14 0 14 -14t-14 -14h-120v-447q0 -6 -4.5 -10.5t-10.5 -4.5q-15 0 -15 15v447h-59q-14 0 -14 14t14 14h59v145q0 65 35.5 100t99.5 35q26 0 40 -3z" />
    <glyph glyph-name="g" unicode="g" horiz-adv-x="642" 
d="M528 480q6 0 10.5 -4.5t4.5 -10.5v-425q0 -103 -62.5 -166.5t-164.5 -63.5q-58 0 -113 22t-94 61q-7 7 -7 13t4.5 10.5t9.5 4.5q6 0 12 -6q76 -76 188 -76q90 0 143.5 54.5t53.5 146.5v83q-24 -55 -80.5 -89t-126.5 -34q-100 0 -169.5 71.5t-69.5 173.5q0 103 69.5 174.5
t169.5 71.5q70 0 126.5 -34t80.5 -89v97q0 6 4.5 10.5t10.5 4.5zM308 29q92 0 148.5 59.5t56.5 156.5t-57 157t-148 60q-89 0 -149 -62.5t-60 -154.5t60 -154t149 -62z" />
    <glyph glyph-name="h" unicode="h" horiz-adv-x="551" 
d="M286 490q80 0 127 -50t47 -135v-300q0 -6 -4.5 -10.5t-10.5 -4.5t-10.5 4.5t-4.5 10.5v300q0 71 -39.5 113.5t-105.5 42.5q-68 0 -112 -44t-44 -112v-300q0 -6 -4.5 -10.5t-10.5 -4.5t-10.5 4.5t-4.5 10.5v740q0 6 4.5 10.5t10.5 4.5t10.5 -4.5t4.5 -10.5v-342
q49 87 157 87z" />
    <glyph glyph-name="i" unicode="i" horiz-adv-x="228" 
d="M114 699q14 0 23.5 -9.5t9.5 -23.5t-9.5 -23.5t-23.5 -9.5t-23.5 9.5t-9.5 23.5t9.5 23.5t23.5 9.5zM114 -10q-6 0 -10.5 4.5t-4.5 10.5v470q0 15 15 15q6 0 10.5 -4.5t4.5 -10.5v-470q0 -6 -4.5 -10.5t-10.5 -4.5z" />
    <glyph glyph-name="j" unicode="j" horiz-adv-x="228" 
d="M114 699q14 0 23.5 -9.5t9.5 -23.5t-9.5 -23.5t-23.5 -9.5t-23.5 9.5t-9.5 23.5t9.5 23.5t23.5 9.5zM-7 -190q-24 0 -40 4q-14 4 -14 15q0 13 14 13q2 0 15 -2t23 -2q108 0 108 107v530q0 15 15 15q6 0 10.5 -4.5t4.5 -10.5v-530q0 -70 -37 -102.5t-99 -32.5z" />
    <glyph glyph-name="k" unicode="k" horiz-adv-x="463" 
d="M114 750q6 0 10.5 -4.5t4.5 -10.5v-720q0 -6 -4.5 -10.5t-10.5 -4.5t-10.5 4.5t-4.5 10.5v720q0 15 15 15zM428 16q5 -5 5 -12q0 -14 -14 -14q-7 0 -13 6l-246 262q-6 6 -6 12t7 12l221 203q5 5 12 5q14 0 14 -14q0 -7 -6 -13l-212 -194z" />
    <glyph glyph-name="l" unicode="l" horiz-adv-x="228" 
d="M114 -10q-6 0 -10.5 4.5t-4.5 10.5v740q0 6 4.5 10.5t10.5 4.5t10.5 -4.5t4.5 -10.5v-740q0 -15 -15 -15z" />
    <glyph glyph-name="m" unicode="m" horiz-adv-x="860" 
d="M601 490q77 0 122.5 -50t45.5 -135v-300q0 -6 -4.5 -10.5t-10.5 -4.5t-10.5 4.5t-4.5 10.5v300q0 71 -37.5 113.5t-100.5 42.5q-64 0 -108 -42.5t-44 -104.5v-309q0 -6 -4.5 -10.5t-10.5 -4.5t-10.5 4.5t-4.5 10.5v300q0 71 -37.5 113.5t-101.5 42.5q-66 0 -108.5 -44
t-42.5 -112v-300q0 -6 -4.5 -10.5t-10.5 -4.5t-10.5 4.5t-4.5 10.5v470q0 6 4.5 10.5t10.5 4.5t10.5 -4.5t4.5 -10.5v-70q48 85 152 85q56 0 96 -26.5t58 -76.5q22 48 66 75.5t100 27.5z" />
    <glyph glyph-name="n" unicode="n" horiz-adv-x="551" 
d="M286 490q80 0 127 -50t47 -135v-300q0 -6 -4.5 -10.5t-10.5 -4.5t-10.5 4.5t-4.5 10.5v300q0 71 -39.5 113.5t-105.5 42.5q-68 0 -112 -44t-44 -112v-300q0 -6 -4.5 -10.5t-10.5 -4.5t-10.5 4.5t-4.5 10.5v470q0 6 4.5 10.5t10.5 4.5t10.5 -4.5t4.5 -10.5v-72
q49 87 157 87z" />
    <glyph glyph-name="o" unicode="o" horiz-adv-x="613" 
d="M306 490q104 0 175.5 -72.5t71.5 -177.5t-72 -177.5t-176 -72.5q-103 0 -174 72.5t-71 177.5q0 106 71 178t175 72zM306 461q-91 0 -152.5 -63.5t-61.5 -157.5t61 -157.5t152 -63.5t153.5 64t62.5 157q0 94 -62 157.5t-153 63.5z" />
    <glyph glyph-name="p" unicode="p" horiz-adv-x="635" 
d="M335 490q101 0 170.5 -72.5t69.5 -177.5q0 -106 -69.5 -178t-170.5 -72q-70 0 -126 35t-80 91v-291q0 -6 -4.5 -10.5t-10.5 -4.5t-10.5 4.5t-4.5 10.5v650q0 6 4.5 10.5t10.5 4.5t10.5 -4.5t4.5 -10.5v-111q24 56 80 91t126 35zM335 19q89 0 148.5 63t59.5 158
q0 94 -59.5 157.5t-148.5 63.5q-93 0 -149.5 -60.5t-56.5 -160.5t56.5 -160.5t149.5 -60.5z" />
    <glyph glyph-name="q" unicode="q" horiz-adv-x="635" 
d="M521 490q6 0 10.5 -4.5t4.5 -10.5v-650q0 -6 -4.5 -10.5t-10.5 -4.5t-10.5 4.5t-4.5 10.5v291q-24 -56 -80 -91t-126 -35q-101 0 -170.5 72t-69.5 178q0 105 69.5 177.5t170.5 72.5q70 0 126 -35t80 -91v111q0 6 4.5 10.5t10.5 4.5zM300 19q93 0 149.5 60.5t56.5 160.5
t-56.5 160.5t-149.5 60.5q-89 0 -148.5 -63.5t-59.5 -157.5q0 -95 59.5 -158t148.5 -63z" />
    <glyph glyph-name="r" unicode="r" horiz-adv-x="341" 
d="M310 484q17 0 17 -14q0 -15 -17 -15q-78 0 -129.5 -49.5t-51.5 -125.5v-275q0 -6 -4.5 -10.5t-10.5 -4.5t-10.5 4.5t-4.5 10.5v470q0 6 4.5 10.5t10.5 4.5t10.5 -4.5t4.5 -10.5v-92q51 101 181 101z" />
    <glyph glyph-name="s" unicode="s" horiz-adv-x="455" 
d="M232 -10q-56 0 -102 27t-75 72q-4 6 -4 11q0 6 4.5 11t11.5 5t13 -7q62 -90 154 -90q51 0 85.5 25t34.5 72q0 23 -8 40t-26.5 30.5t-32 21t-42.5 20.5l-42 19q-27 12 -43.5 21t-36 24t-28.5 34.5t-9 44.5q0 54 43.5 86.5t102.5 32.5q84 0 142 -67q8 -10 8 -14
q0 -6 -4 -11t-10 -5q-7 0 -15 9q-51 59 -123 59q-46 0 -79 -22.5t-33 -66.5q0 -26 15 -45t32 -28t54 -26l45 -20q59 -27 90.5 -56t31.5 -79q0 -60 -45 -94t-109 -34z" />
    <glyph glyph-name="t" unicode="t" horiz-adv-x="350" 
d="M313 25q14 0 14 -13q0 -11 -16 -15q-28 -7 -59 -7q-64 0 -99.5 35t-35.5 100v327h-73q-15 0 -15 14t15 14h73v129q0 15 15 15q6 0 10.5 -4.5t4.5 -10.5v-129h147q15 0 15 -14t-15 -14h-147v-327q0 -107 107 -107q18 0 37.5 3.5t21.5 3.5z" />
    <glyph glyph-name="u" unicode="u" horiz-adv-x="543" 
d="M272 -10q-79 0 -130 52t-51 133v300q0 6 4.5 10.5t10.5 4.5t10.5 -4.5t4.5 -10.5v-300q0 -70 41.5 -113t109.5 -43q67 0 108.5 43t41.5 113v300q0 15 15 15q6 0 10.5 -4.5t4.5 -10.5v-300q0 -81 -50.5 -133t-129.5 -52z" />
    <glyph glyph-name="v" unicode="v" horiz-adv-x="519" 
d="M466 490q6 0 10.5 -4.5t4.5 -10.5q0 -4 -2 -8l-206 -466q-5 -11 -14 -11t-14 11l-205 466q-2 4 -2 8q0 6 4.5 10.5t10.5 4.5q11 0 16 -12l190 -438l191 438q5 12 16 12z" />
    <glyph glyph-name="w" unicode="w" horiz-adv-x="840" 
d="M786 490q6 0 10.5 -4.5t4.5 -10.5q0 -4 -2 -9l-174 -466q-4 -10 -15 -10q-10 0 -15 10l-175 429l-175 -429q-5 -10 -15 -10q-11 0 -15 10l-174 466q-2 5 -2 9q0 6 4.5 10.5t10.5 4.5q11 0 15 -11l160 -441l176 441q5 11 15 11t15 -11l176 -441l160 441q4 11 15 11z" />
    <glyph glyph-name="x" unicode="x" horiz-adv-x="467" 
d="M426 15q4 -6 4 -10q0 -6 -4.5 -10.5t-10.5 -4.5q-9 0 -14 8l-168 230l-167 -230q-5 -8 -14 -8q-6 0 -10.5 4.5t-4.5 10.5q0 4 4 10l173 237l-157 213q-4 6 -4 10q0 6 4.5 10.5t10.5 4.5q8 0 13 -8l152 -206l153 206q5 8 13 8q6 0 10.5 -4.5t4.5 -10.5q0 -4 -4 -10
l-158 -213z" />
    <glyph glyph-name="y" unicode="y" horiz-adv-x="519" 
d="M466 490q6 0 10.5 -4.5t4.5 -10.5q0 -3 -2 -8l-236 -548q-48 -109 -152 -109q-25 0 -44 6q-13 3 -13 14q0 14 14 14q2 0 17 -3t24 -3q88 0 128 94l31 73l-205 462l-2 8q0 6 4.5 10.5t10.5 4.5q12 0 16 -12l192 -437l186 437q4 12 16 12z" />
    <glyph glyph-name="z" unicode="z" horiz-adv-x="447" 
d="M398 28q14 0 14 -14t-14 -14h-346q-14 0 -14 14q0 6 6 13l319 425h-290q-14 0 -14 14t14 14h318q14 0 14 -14q0 -6 -6 -14l-319 -424h318z" />
    <glyph glyph-name="braceleft" unicode="{" horiz-adv-x="393" 
d="M321 -103q14 0 14 -14t-14 -14h-34q-131 0 -131 128q0 38 15 116t15 102q0 70 -70 70h-44q-14 0 -14 14t14 14h44q70 0 70 69q0 23 -15 103.5t-15 117.5q0 126 131 126h34q14 0 14 -14t-14 -14h-34q-50 0 -75.5 -24t-25.5 -77q0 -34 15 -112t15 -106q0 -38 -16.5 -56.5
t-46.5 -26.5q63 -15 63 -83q0 -28 -15 -105t-15 -112q0 -102 101 -102h34z" />
    <glyph glyph-name="bar" unicode="|" horiz-adv-x="332" 
d="M166 790q15 0 15 -17v-887q0 -17 -15 -17t-15 17v887q0 17 15 17z" />
    <glyph glyph-name="braceright" unicode="}" horiz-adv-x="393" 
d="M321 313q14 0 14 -14t-14 -14h-44q-70 0 -70 -70q0 -24 15 -102t15 -116q0 -128 -131 -128h-34q-14 0 -14 14t14 14h34q101 0 101 102q0 35 -15 112t-15 105q0 68 63 83q-30 8 -46.5 26.5t-16.5 56.5q0 28 15 106t15 112q0 53 -25.5 77t-75.5 24h-34q-14 0 -14 14t14 14
h34q131 0 131 -126q0 -37 -15 -117.5t-15 -103.5q0 -69 70 -69h44z" />
    <glyph glyph-name="asciitilde" unicode="~" 
d="M395 250q-38 0 -118 43t-111 43q-46 0 -57 -63q-3 -18 -15 -18q-16 0 -14 18q4 42 26.5 66.5t57.5 24.5q38 0 119 -43t110 -43q46 0 57 63q3 18 15 18q16 0 14 -18q-5 -42 -27 -66.5t-57 -24.5z" />
    <glyph glyph-name="exclamdown" unicode="&#xa1;" horiz-adv-x="270" 
d="M134 412q-15 0 -26.5 10.5t-11.5 27.5q0 18 11.5 29t26.5 11q16 0 28 -10.5t12 -29.5q0 -17 -12 -27.5t-28 -10.5zM135 -190q-6 0 -10.5 4.5t-4.5 10.5v460q0 6 4.5 10.5t10.5 4.5t10.5 -4.5t4.5 -10.5v-460q0 -6 -4.5 -10.5t-10.5 -4.5z" />
    <glyph glyph-name="cent" unicode="&#xa2;" horiz-adv-x="554" 
d="M460 189q14 0 14 -12q0 -7 -8 -16q-70 -76 -173 -81v-164q0 -17 -15 -17q-16 0 -16 17v165q-95 8 -159.5 79.5t-64.5 169.5t64.5 169.5t159.5 79.5v165q0 17 16 17q15 0 15 -17v-164q107 -5 173 -81q8 -9 8 -16q0 -12 -14 -12q-8 0 -18 11q-57 64 -149 69v-442
q92 5 149 69q10 11 18 11zM70 330q0 -87 54.5 -149.5t137.5 -70.5v440q-83 -8 -137.5 -70.5t-54.5 -149.5z" />
    <glyph glyph-name="sterling" unicode="&#xa3;" horiz-adv-x="494" 
d="M273 639q-61 0 -98 -36.5t-37 -96.5q0 -46 38 -122.5t44 -96.5h151q14 0 14 -14t-14 -14h-143q6 -24 6 -52q0 -51 -27.5 -98.5t-74.5 -79.5h303q14 0 14 -15q0 -14 -14 -14h-352q-6 0 -10.5 4.5t-4.5 10.5q0 8 8 13q126 70 126 178q0 23 -7 53h-105q-14 0 -14 14t14 14
h96q-9 24 -32 67t-36.5 79.5t-13.5 74.5q0 72 47 117t123 45q125 0 177 -130q3 -8 3 -12q0 -16 -16 -16q-12 0 -17 14q-37 113 -148 113z" />
    <glyph glyph-name="currency" unicode="&#xa4;" horiz-adv-x="668" 
d="M622 56q7 -7 7 -14q0 -4 -4 -8t-9 -4q-7 0 -13 6l-127 127q-63 -58 -148 -58q-81 0 -144 55l-119 -124q-6 -6 -13 -6q-12 0 -12 12q0 6 6 14l119 124q-55 63 -55 150q0 88 54 150l-120 124q-5 7 -5 12q0 13 12 13q8 0 14 -7l119 -122q61 55 145 55q85 0 147 -57l126 126
q6 6 13 6q13 0 13 -13q0 -7 -6 -13l-127 -127q53 -63 53 -147t-53 -147zM328 134q80 0 134 57t54 139q0 83 -54 140t-133 57q-80 0 -133.5 -57t-53.5 -140t53.5 -139.5t132.5 -56.5z" />
    <glyph glyph-name="yen" unicode="&#xa5;" horiz-adv-x="516" 
d="M492 643l-218 -304h195q14 0 14 -14t-14 -14h-195v-121h195q14 0 14 -14t-14 -14h-195v-155q0 -17 -16 -17t-16 17v155h-194q-14 0 -14 14t14 14h194v121h-194q-14 0 -14 14t14 14h194l-218 304q-6 8 -6 13q0 14 14 14q7 0 13 -8l213 -297l213 297q6 8 13 8q14 0 14 -14
q0 -5 -6 -13z" />
    <glyph glyph-name="brokenbar" unicode="&#xa6;" horiz-adv-x="332" 
d="M166 790q15 0 15 -17v-286q0 -17 -17 -17q-13 0 -13 17v286q0 17 15 17zM166 189q15 0 15 -17v-286q0 -17 -17 -17q-13 0 -13 17v286q0 17 15 17z" />
    <glyph glyph-name="section" unicode="&#xa7;" horiz-adv-x="548" 
d="M508 179q0 -53 -36.5 -87.5t-95.5 -39.5q5 -18 5 -35q0 -54 -36.5 -89.5t-92.5 -35.5q-76 0 -129 64q-4 5 -4 11t5 11q10 8 22 -5q46 -52 106 -52q43 0 70 26.5t27 69.5q0 33 -20 62t-67 63l-90 68q-75 56 -103.5 94t-28.5 81q0 53 36.5 87.5t95.5 39.5q-5 18 -5 35
q0 54 36.5 89.5t92.5 35.5q76 0 129 -64q5 -7 5 -12t-5 -10q-12 -8 -22 4q-48 53 -107 53q-43 0 -70 -26.5t-27 -69.5q0 -33 20 -62t67 -63l90 -68q75 -56 103.5 -94t28.5 -81zM363 80q50 1 81.5 27.5t31.5 68.5q0 64 -96 137l-97 74q-76 58 -99 97q-49 -1 -80.5 -27.5
t-31.5 -68.5q0 -65 96 -137l90 -69q79 -61 105 -102z" />
    <glyph glyph-name="dieresis" unicode="&#xa8;" horiz-adv-x="320" 
d="M64 699q14 0 23.5 -9.5t9.5 -23.5t-9.5 -23.5t-23.5 -9.5t-23.5 9.5t-9.5 23.5t9.5 23.5t23.5 9.5zM256 699q14 0 23.5 -9.5t9.5 -23.5t-9.5 -23.5t-23.5 -9.5t-23.5 9.5t-9.5 23.5t9.5 23.5t23.5 9.5z" />
    <glyph glyph-name="copyright" unicode="&#xa9;" horiz-adv-x="784" 
d="M391 -10q-140 0 -237 98.5t-97 241.5t96.5 241.5t237.5 98.5t238.5 -98.5t97.5 -241.5t-97.5 -241.5t-238.5 -98.5zM392 19q128 0 216 90.5t88 221.5t-88 220.5t-216 89.5t-216 -89.5t-88 -220.5q0 -132 88 -222t216 -90zM398 130q-82 0 -139.5 58.5t-57.5 141.5
t57.5 141.5t139.5 58.5q40 0 81 -20t67 -52q6 -7 6 -14q0 -13 -13 -13q-8 0 -14 8q-49 62 -127 62q-70 0 -117.5 -49.5t-47.5 -121.5t47.5 -121.5t117.5 -49.5q75 0 127 62q6 8 14 8q13 0 13 -13q0 -6 -6 -14q-24 -31 -65.5 -51.5t-82.5 -20.5z" />
    <glyph glyph-name="ordfeminine" unicode="&#xaa;" horiz-adv-x="360" 
d="M178 554q51 0 82.5 -31t31.5 -88v-181q0 -15 -14 -15q-6 0 -10.5 4.5t-4.5 10.5v40q-35 -55 -110 -55q-46 0 -75 22.5t-29 58.5q0 37 28.5 58.5t77.5 21.5h107v36q0 44 -23.5 66.5t-62.5 22.5q-46 0 -81 -39q-6 -6 -13 -6q-15 0 -15 15q0 6 5 11q43 48 106 48zM157 266
q44 0 74.5 25t30.5 64v19h-105q-76 0 -76 -54q0 -25 20.5 -39.5t55.5 -14.5z" />
    <glyph glyph-name="guillemotleft" unicode="&#xab;" horiz-adv-x="427" 
d="M211 95q-6 0 -12 6l-148 157q-5 5 -5 11t5 11l148 157q6 6 12 6t10.5 -4.5t4.5 -10.5t-5 -11l-137 -148l137 -148q5 -5 5 -11t-4.5 -10.5t-10.5 -4.5zM360 95q-6 0 -12 6l-148 157q-5 5 -5 11t5 11l148 157q6 6 12 6t10.5 -4.5t4.5 -10.5t-5 -11l-137 -148l137 -148
q5 -5 5 -11t-4.5 -10.5t-10.5 -4.5z" />
    <glyph glyph-name="logicalnot" unicode="&#xac;" 
d="M448 87q-6 0 -10.5 4.5t-4.5 10.5v193h-354q-15 0 -15 14t15 14h369q6 0 10.5 -4.5t4.5 -10.5v-206q0 -6 -4.5 -10.5t-10.5 -4.5z" />
    <glyph glyph-name="uni00AD" unicode="&#xad;" horiz-adv-x="340" 
d="M267 323q15 0 15 -14t-15 -14h-194q-15 0 -15 14t15 14h194z" />
    <glyph glyph-name="registered" unicode="&#xae;" horiz-adv-x="569" 
d="M284 668q97 0 165 -68t68 -165q0 -96 -68.5 -164t-164.5 -68q-95 0 -163.5 68.5t-68.5 163.5q0 96 68 164.5t164 68.5zM284 232q85 0 144.5 59t59.5 144t-59 144.5t-145 59.5q-85 0 -144 -59.5t-59 -144.5q0 -84 59.5 -143.5t143.5 -59.5zM324 419l67 -85q5 -7 5 -12
q0 -15 -14 -15q-8 0 -16 9l-76 98h-61v-92q0 -6 -4.5 -10.5t-10.5 -4.5t-10.5 4.5t-4.5 10.5l-1 224q0 15 15 15h79q37 0 60 -20.5t23 -52.5q0 -55 -51 -69zM228 441h63q24 0 38.5 12.5t14.5 33.5q0 22 -14 34.5t-39 12.5h-63v-93z" />
    <glyph glyph-name="macron" unicode="&#xaf;" horiz-adv-x="312" 
d="M270 680q14 0 14 -14t-14 -14h-228q-14 0 -14 14t14 14h228z" />
    <glyph glyph-name="degree" unicode="&#xb0;" horiz-adv-x="360" 
d="M180 670q59 0 100.5 -41t41.5 -100t-41.5 -100t-100.5 -41q-60 0 -101 41t-41 100t41.5 100t100.5 41zM180 641q-46 0 -78 -32.5t-32 -79.5t32 -79.5t78 -32.5t78 32.5t32 79.5t-32 79.5t-78 32.5z" />
    <glyph glyph-name="plusminus" unicode="&#xb1;" 
d="M280 119q-6 0 -10.5 4.5t-4.5 10.5v176h-176q-15 0 -15 14t15 14h176v176q0 6 4.5 10.5t10.5 4.5t10.5 -4.5t4.5 -10.5v-176h175q15 0 15 -14t-15 -14h-175v-176q0 -6 -4.5 -10.5t-10.5 -4.5zM89 0q-15 0 -15 14t15 14h381q15 0 15 -14t-15 -14h-381z" />
    <glyph glyph-name="uni00B2" unicode="&#xb2;" horiz-adv-x="358" 
d="M304 392q15 0 15 -14t-15 -14h-253q-6 0 -10.5 4.5t-4.5 10.5t6 12l146 138q77 74 77 134q0 41 -26.5 67.5t-66.5 26.5q-41 0 -68.5 -27.5t-27.5 -70.5q0 -4 1 -11.5t1 -10.5q0 -5 -4.5 -9.5t-10.5 -4.5q-18 0 -18 38q0 53 36.5 89t90.5 36t89.5 -34.5t35.5 -86.5
q0 -73 -89 -155l-127 -118h223z" />
    <glyph glyph-name="uni00B3" unicode="&#xb3;" horiz-adv-x="350" 
d="M165 620q56 -1 98 -33t42 -94t-42 -98t-101 -36q-78 0 -129 68q-4 5 -4 10q0 6 4.5 10.5t10.5 4.5q8 0 12 -6q43 -58 107 -58q48 0 79 29t31 76q0 46 -31 72.5t-86 26.5h-20q-6 0 -10.5 4.5t-4.5 10.5t8 15l121 130h-185q-15 0 -15 14t15 14h213q6 0 10.5 -4.5t4.5 -10.5
t-6 -12z" />
    <glyph glyph-name="acute" unicode="&#xb4;" horiz-adv-x="193" 
d="M61 561q-12 0 -12 12q0 4 2 8l84 184q5 11 16 11q6 0 10 -4t4 -9q0 -4 -4 -14l-86 -176q-6 -12 -14 -12z" />
    <glyph glyph-name="uni00B5" unicode="&#xb5;" horiz-adv-x="578" 
d="M541 25q15 0 15 -13q0 -11 -13 -14q-5 -2 -26 -2q-77 0 -86 82q-46 -88 -152 -88q-102 0 -150 86v-251q0 -6 -4.5 -10.5t-10.5 -4.5t-10.5 4.5t-4.5 10.5v650q0 6 4.5 10.5t10.5 4.5t10.5 -4.5t4.5 -10.5v-291q0 -72 42.5 -118.5t107.5 -46.5q66 0 108.5 46.5t42.5 118.5
v291q0 6 4.5 10.5t10.5 4.5t10.5 -4.5t4.5 -10.5v-369q0 -82 61 -82q4 0 10.5 0.5t9.5 0.5z" />
    <glyph glyph-name="paragraph" unicode="&#xb6;" horiz-adv-x="525" 
d="M407 660q15 0 15 -17v-686q0 -147 -138 -147q-29 0 -55 6q-15 3 -15 15q0 15 15 15q2 0 17 -3.5t35 -3.5q51 0 81 26t30 92v293h-117q-100 0 -165 57t-65 150q0 92 65 147.5t165 55.5h132z" />
    <glyph glyph-name="periodcentered" unicode="&#xb7;" horiz-adv-x="270" 
d="M134 270q-15 0 -26.5 10.5t-11.5 27.5q0 18 11.5 29t26.5 11q16 0 28 -11t12 -29q0 -17 -12 -27.5t-28 -10.5z" />
    <glyph glyph-name="cedilla" unicode="&#xb8;" horiz-adv-x="238" 
d="M93 -190q-30 0 -51 6q-16 4 -16 15q0 14 14 14q2 0 18 -3.5t32 -3.5q38 0 60.5 21t22.5 56q0 50 -40 76q-13 9 -13 16q0 12 14 12q19 0 45 -32t26 -74q0 -45 -31.5 -74t-80.5 -29z" />
    <glyph glyph-name="uni00B9" unicode="&#xb9;" horiz-adv-x="341" 
d="M64 364q-15 0 -15 14t15 14h99v360h-99q-15 0 -15 14t15 14h113q17 0 17 -17v-371h87q15 0 15 -14t-15 -14h-217z" />
    <glyph glyph-name="ordmasculine" unicode="&#xba;" horiz-adv-x="415" 
d="M207 554q66 0 112 -46t46 -112t-46 -112t-112 -46t-111.5 46t-45.5 112t45.5 112t111.5 46zM207 525q-53 0 -89 -37t-36 -92t36 -92t89 -37q54 0 90 37t36 92t-36 92t-90 37z" />
    <glyph glyph-name="guillemotright" unicode="&#xbb;" horiz-adv-x="427" 
d="M67 95q-6 0 -10.5 4.5t-4.5 10.5t5 11l137 148l-137 148q-5 5 -5 11t4.5 10.5t10.5 4.5t12 -6l148 -157q5 -5 5 -11t-5 -11l-148 -157q-6 -6 -12 -6zM216 95q-6 0 -10.5 4.5t-4.5 10.5t5 11l137 148l-137 148q-5 5 -5 11t4.5 10.5t10.5 4.5t12 -6l148 -157q5 -5 5 -11
t-5 -11l-148 -157q-6 -6 -12 -6z" />
    <glyph glyph-name="onequarter" unicode="&#xbc;" horiz-adv-x="851" 
d="M658 652q0 -3 -2 -7l-376 -644q-6 -11 -15 -11q-6 0 -10.5 4.5t-4.5 10.5q0 3 2 7l376 644q6 11 15 11q6 0 10.5 -4.5t4.5 -10.5zM296 258q0 -14 -15 -14h-217q-15 0 -15 14t15 14h99v360h-99q-15 0 -15 14t15 14h113q17 0 17 -17v-371h87q15 0 15 -14zM817 110
q15 0 15 -14t-15 -14h-51v-70q0 -17 -15 -17q-16 0 -16 17v70h-194q-6 0 -10.5 4.5t-4.5 10.5q0 4 2 8l138 307q2 4 3.5 6.5t3 3.5t2.5 1t3 -0.5t3 -0.5q6 0 10.5 -4.5t4.5 -9.5q0 -4 -2 -8l-128 -290h169v134q0 17 16 17q15 0 15 -17v-134h51z" />
    <glyph glyph-name="onehalf" unicode="&#xbd;" horiz-adv-x="890" 
d="M658 652q0 -3 -2 -7l-376 -644q-6 -11 -15 -11q-6 0 -10.5 4.5t-4.5 10.5q0 3 2 7l376 644q6 11 15 11q6 0 10.5 -4.5t4.5 -10.5zM296 258q0 -14 -15 -14h-217q-15 0 -15 14t15 14h99v360h-99q-15 0 -15 14t15 14h113q17 0 17 -17v-371h87q15 0 15 -14zM836 28
q15 0 15 -14t-15 -14h-253q-6 0 -10.5 4.5t-4.5 10.5t6 12l146 138q77 74 77 134q0 41 -26.5 67.5t-66.5 26.5q-41 0 -68.5 -27.5t-27.5 -70.5q0 -4 1 -11.5t1 -10.5q0 -5 -4.5 -9.5t-10.5 -4.5q-18 0 -18 38q0 53 36.5 89t90.5 36t89.5 -34.5t35.5 -86.5q0 -73 -89 -155
l-127 -118h223z" />
    <glyph glyph-name="threequarters" unicode="&#xbe;" horiz-adv-x="825" 
d="M632 652q0 -3 -2 -7l-376 -644q-6 -11 -15 -11q-6 0 -10.5 4.5t-4.5 10.5q0 3 2 7l376 644q6 11 15 11q6 0 10.5 -4.5t4.5 -10.5zM305 373q0 -62 -42 -98t-101 -36q-78 0 -129 68q-4 5 -4 10q0 6 4.5 10.5t10.5 4.5q8 0 12 -6q43 -58 107 -58q48 0 79 29t31 76
q0 46 -31 72.5t-86 26.5h-20q-6 0 -10.5 4.5t-4.5 10.5t8 15l121 130h-185q-15 0 -15 14t15 14h213q6 0 10.5 -4.5t4.5 -10.5t-6 -12l-122 -133q56 -1 98 -33t42 -94zM791 110q15 0 15 -14t-15 -14h-51v-70q0 -17 -15 -17q-16 0 -16 17v70h-194q-6 0 -10.5 4.5t-4.5 10.5
q0 4 2 8l138 307q2 4 3.5 6.5t3 3.5t2.5 1t3 -0.5t3 -0.5q6 0 10.5 -4.5t4.5 -9.5q0 -4 -2 -8l-128 -290h169v134q0 17 16 17q15 0 15 -17v-134h51z" />
    <glyph glyph-name="questiondown" unicode="&#xbf;" horiz-adv-x="440" 
d="M233 490q15 0 26.5 -10.5t11.5 -27.5q0 -18 -11.5 -29t-26.5 -11q-16 0 -28 11t-12 29q0 17 12 27.5t28 10.5zM238 300q15 0 15 -16v-28q0 -35 -16 -63.5t-56 -67.5q-58 -56 -76.5 -86.5t-18.5 -68.5q0 -57 36.5 -94t92.5 -37q45 0 79 27t53 75q4 9 13 9q15 0 15 -15
q0 -5 -4 -15q-18 -49 -59.5 -79.5t-95.5 -30.5q-68 0 -115 46t-47 113q0 44 22.5 81t84.5 95q34 31 46.5 55t13.5 56l1 29q0 15 16 15z" />
    <glyph glyph-name="Agrave" unicode="&#xc0;" horiz-adv-x="665" 
d="M313 736l-84 153q-5 10 -1.5 17t12.5 7q10 0 14 -9l82 -158q4 -6 -0.5 -12t-10.5 -6q-7 0 -12 8zM614 14q3 -8 3 -11q0 -13 -15 -13q-12 0 -16 12l-71 173h-365l-71 -173q-5 -12 -16 -12q-15 0 -15 13q0 3 3 11l267 645q3 11 15 11t15 -11zM333 619l-171 -415h341z" />
    <glyph glyph-name="Aacute" unicode="&#xc1;" horiz-adv-x="665" 
d="M341 728q-6 0 -10.5 6t-0.5 12l82 158q4 9 14 9q9 0 12.5 -7t-1.5 -17l-84 -153q-5 -8 -12 -8zM614 14q3 -8 3 -11q0 -13 -15 -13q-12 0 -16 12l-71 173h-365l-71 -173q-5 -12 -16 -12q-15 0 -15 13q0 3 3 11l267 645q3 11 15 11t15 -11zM333 619l-171 -415h341z" />
    <glyph glyph-name="Acircumflex" unicode="&#xc2;" horiz-adv-x="665" 
d="M192 724q-14 0 -14 14q0 5 5 10l138 146q5 5 11 5t11 -5l138 -146q5 -5 5 -10q0 -14 -14 -14q-5 0 -11 6l-129 132l-129 -132q-6 -6 -11 -6zM614 14q3 -8 3 -11q0 -13 -15 -13q-12 0 -16 12l-71 173h-365l-71 -173q-5 -12 -16 -12q-15 0 -15 13q0 3 3 11l267 645
q3 11 15 11t15 -11zM333 619l-171 -415h341z" />
    <glyph glyph-name="Atilde" unicode="&#xc3;" horiz-adv-x="665" 
d="M211 761q-15 0 -15 18q0 35 17 57t44 22q26 0 67 -29l37 -26q30 -21 45 -21q34 0 34 51q0 18 15 18t15 -18q0 -35 -17 -57t-44 -22q-25 0 -66 29l-37 26q-30 21 -46 21q-34 0 -34 -51q0 -18 -15 -18zM614 14q3 -8 3 -11q0 -13 -15 -13q-12 0 -16 12l-71 173h-365
l-71 -173q-5 -12 -16 -12q-15 0 -15 13q0 3 3 11l267 645q3 11 15 11t15 -11zM333 619l-171 -415h341z" />
    <glyph glyph-name="Adieresis" unicode="&#xc4;" horiz-adv-x="665" 
d="M222 773q-14 0 -23.5 9.5t-9.5 23.5t9.5 23.5t23.5 9.5t23.5 -9.5t9.5 -23.5t-9.5 -23.5t-23.5 -9.5zM443 773q-14 0 -23.5 9.5t-9.5 23.5t9.5 23.5t23.5 9.5t23.5 -9.5t9.5 -23.5t-9.5 -23.5t-23.5 -9.5zM614 14q3 -8 3 -11q0 -13 -15 -13q-12 0 -16 12l-71 173h-365
l-71 -173q-5 -12 -16 -12q-15 0 -15 13q0 3 3 11l267 645q3 11 15 11t15 -11zM333 619l-171 -415h341z" />
    <glyph glyph-name="Aring" unicode="&#xc5;" horiz-adv-x="665" 
d="M333 716q-41 0 -69.5 28.5t-28.5 68.5t28.5 68.5t69.5 28.5t69.5 -28.5t28.5 -68.5t-28.5 -68.5t-69.5 -28.5zM333 882q-29 0 -48.5 -20t-19.5 -49t19.5 -49t48.5 -20t48.5 20t19.5 49t-19.5 49t-48.5 20zM614 14q3 -8 3 -11q0 -13 -15 -13q-12 0 -16 12l-71 173h-365
l-71 -173q-5 -12 -16 -12q-15 0 -15 13q0 3 3 11l267 645q3 11 15 11t15 -11zM333 619l-171 -415h341z" />
    <glyph glyph-name="AE" unicode="&#xc6;" horiz-adv-x="796" 
d="M743 29q15 0 15 -14q0 -6 -4.5 -10.5t-10.5 -4.5h-249q-13 0 -16 14l-29 162h-304l-91 -175q-6 -11 -15 -11q-15 0 -15 14q0 4 3 10l333 638q5 8 13 8h358q15 0 15 -14q0 -6 -4.5 -10.5t-10.5 -4.5h-330l46 -257h204q15 0 15 -14q0 -6 -4.5 -10.5t-10.5 -4.5h-199
l57 -316h234zM371 615l-211 -410h284z" />
    <glyph glyph-name="Ccedilla" unicode="&#xc7;" horiz-adv-x="709" 
d="M637 139q14 0 14 -15q0 -6 -6 -14q-84 -104 -216 -118q30 -36 30 -79q0 -45 -31.5 -74t-80.5 -29q-30 0 -51 6q-16 4 -16 15q0 14 14 14q2 0 18 -3.5t32 -3.5q38 0 60.5 21t22.5 56q0 50 -39 75q-140 1 -235.5 99t-95.5 241t96.5 241.5t237.5 98.5q157 0 254 -120
q6 -8 6 -14q0 -15 -14 -15q-8 0 -15 8q-87 110 -231 110q-127 0 -213.5 -89t-86.5 -220q0 -132 86 -220.5t214 -88.5q144 0 231 110q7 8 15 8z" />
    <glyph glyph-name="Egrave" unicode="&#xc8;" horiz-adv-x="561" 
d="M293 728q-7 0 -12 8l-84 153q-5 10 -1.5 17t12.5 7q10 0 14 -9l82 -158q4 -6 -0.5 -12t-10.5 -6zM120 0q-17 0 -17 17v626q0 17 17 17h376q15 0 15 -14q0 -6 -4.5 -10.5t-10.5 -4.5h-361v-257h281q15 0 15 -14q0 -6 -4.5 -10.5t-10.5 -4.5h-281v-316h373q15 0 15 -14
q0 -6 -4.5 -10.5t-10.5 -4.5h-388z" />
    <glyph glyph-name="Eacute" unicode="&#xc9;" horiz-adv-x="561" 
d="M309 728q-6 0 -10.5 6t-0.5 12l82 158q4 9 14 9q9 0 12.5 -7t-1.5 -17l-84 -153q-5 -8 -12 -8zM120 0q-17 0 -17 17v626q0 17 17 17h376q15 0 15 -14q0 -6 -4.5 -10.5t-10.5 -4.5h-361v-257h281q15 0 15 -14q0 -6 -4.5 -10.5t-10.5 -4.5h-281v-316h373q15 0 15 -14
q0 -6 -4.5 -10.5t-10.5 -4.5h-388z" />
    <glyph glyph-name="Ecircumflex" unicode="&#xca;" horiz-adv-x="561" 
d="M160 724q-14 0 -14 14q0 5 5 10l138 146q5 5 11 5t11 -5l138 -146q5 -5 5 -10q0 -14 -14 -14q-5 0 -11 6l-129 132l-129 -132q-6 -6 -11 -6zM508 29q15 0 15 -14q0 -6 -4.5 -10.5t-10.5 -4.5h-388q-17 0 -17 17v626q0 17 17 17h376q15 0 15 -14q0 -6 -4.5 -10.5
t-10.5 -4.5h-361v-257h281q15 0 15 -14q0 -6 -4.5 -10.5t-10.5 -4.5h-281v-316h373z" />
    <glyph glyph-name="Edieresis" unicode="&#xcb;" horiz-adv-x="561" 
d="M190 773q-14 0 -23.5 9.5t-9.5 23.5t9.5 23.5t23.5 9.5t23.5 -9.5t9.5 -23.5t-9.5 -23.5t-23.5 -9.5zM411 773q-14 0 -23.5 9.5t-9.5 23.5t9.5 23.5t23.5 9.5t23.5 -9.5t9.5 -23.5t-9.5 -23.5t-23.5 -9.5zM120 0q-17 0 -17 17v626q0 17 17 17h376q15 0 15 -14
q0 -6 -4.5 -10.5t-10.5 -4.5h-361v-257h281q15 0 15 -14q0 -6 -4.5 -10.5t-10.5 -4.5h-281v-316h373q15 0 15 -14q0 -6 -4.5 -10.5t-10.5 -4.5h-388z" />
    <glyph glyph-name="Igrave" unicode="&#xcc;" horiz-adv-x="238" 
d="M111 728q-7 0 -12 8l-84 153q-5 10 -1.5 17t12.5 7q10 0 14 -9l82 -158q4 -6 -0.5 -12t-10.5 -6zM119 -10q-16 0 -16 17v646q0 17 16 17t16 -17v-646q0 -17 -16 -17z" />
    <glyph glyph-name="Iacute" unicode="&#xcd;" horiz-adv-x="238" 
d="M127 728q-6 0 -10.5 6t-0.5 12l82 158q4 9 14 9q9 0 12.5 -7t-1.5 -17l-84 -153q-5 -8 -12 -8zM119 -10q-16 0 -16 17v646q0 17 16 17t16 -17v-646q0 -17 -16 -17z" />
    <glyph glyph-name="Icircumflex" unicode="&#xce;" horiz-adv-x="238" 
d="M267 748q5 -5 5 -10q0 -14 -14 -14q-5 0 -11 6l-129 132l-129 -132q-6 -6 -11 -6q-14 0 -14 14q0 5 5 10l138 146q5 5 11 5t11 -5zM119 670q16 0 16 -17v-646q0 -17 -16 -17t-16 17v646q0 17 16 17z" />
    <glyph glyph-name="Idieresis" unicode="&#xcf;" horiz-adv-x="238" 
d="M8 773q-14 0 -23.5 9.5t-9.5 23.5t9.5 23.5t23.5 9.5t23.5 -9.5t9.5 -23.5t-9.5 -23.5t-23.5 -9.5zM229 773q-14 0 -23.5 9.5t-9.5 23.5t9.5 23.5t23.5 9.5t23.5 -9.5t9.5 -23.5t-9.5 -23.5t-23.5 -9.5zM119 -10q-16 0 -16 17v646q0 17 16 17t16 -17v-646q0 -17 -16 -17z
" />
    <glyph glyph-name="Eth" unicode="&#xd0;" horiz-adv-x="698" 
d="M282 660q164 0 261.5 -89t97.5 -240t-97.5 -241t-261.5 -90h-162q-17 0 -17 17v270h-90q-15 0 -15 14t15 14h90v328q0 17 17 17h162zM282 29q146 0 235.5 83t89.5 219t-89 218t-236 82h-147v-316h138q15 0 15 -14t-15 -14h-138v-258h147z" />
    <glyph glyph-name="Ntilde" unicode="&#xd1;" horiz-adv-x="704" 
d="M230 761q-15 0 -15 18q0 35 17 57t44 22q26 0 67 -29l37 -26q30 -21 45 -21q34 0 34 51q0 18 15 18t15 -18q0 -35 -17 -57t-44 -22q-25 0 -66 29l-37 26q-30 21 -46 21q-34 0 -34 -51q0 -18 -15 -18zM585 670q16 0 16 -17v-646q0 -17 -16 -17q-7 0 -13 7l-437 606v-596
q0 -17 -16 -17t-16 17v646q0 17 16 17q7 0 13 -7l437 -606v596q0 17 16 17z" />
    <glyph glyph-name="Ograve" unicode="&#xd2;" horiz-adv-x="784" 
d="M384 728q-7 0 -12 8l-84 153q-5 10 -1.5 17t12.5 7t14 -9l82 -158q4 -6 -0.5 -12t-10.5 -6zM391 670q141 0 238.5 -98.5t97.5 -241.5t-97.5 -241.5t-238.5 -98.5q-140 0 -237 98.5t-97 241.5t96.5 241.5t237.5 98.5zM392 639q-128 0 -214.5 -88.5t-86.5 -219.5
q0 -132 86.5 -221t214.5 -89q127 0 214 89.5t87 220.5q0 130 -86.5 219t-214.5 89z" />
    <glyph glyph-name="Oacute" unicode="&#xd3;" horiz-adv-x="784" 
d="M400 728q-6 0 -10.5 6t-0.5 12l82 158q5 9 14 9t12.5 -7t-1.5 -17l-84 -153q-5 -8 -12 -8zM391 670q141 0 238.5 -98.5t97.5 -241.5t-97.5 -241.5t-238.5 -98.5q-140 0 -237 98.5t-97 241.5t96.5 241.5t237.5 98.5zM392 639q-128 0 -214.5 -88.5t-86.5 -219.5
q0 -132 86.5 -221t214.5 -89q127 0 214 89.5t87 220.5q0 130 -86.5 219t-214.5 89z" />
    <glyph glyph-name="Ocircumflex" unicode="&#xd4;" horiz-adv-x="784" 
d="M251 724q-14 0 -14 14q0 5 5 10l138 146q5 5 11 5t11 -5l138 -146q5 -5 5 -10q0 -14 -14 -14q-5 0 -11 6l-129 132l-129 -132q-6 -6 -11 -6zM391 670q141 0 238.5 -98.5t97.5 -241.5t-97.5 -241.5t-238.5 -98.5q-140 0 -237 98.5t-97 241.5t96.5 241.5t237.5 98.5z
M392 21q127 0 214 89.5t87 220.5q0 130 -86.5 219t-214.5 89t-214.5 -88.5t-86.5 -219.5q0 -132 86.5 -221t214.5 -89z" />
    <glyph glyph-name="Otilde" unicode="&#xd5;" horiz-adv-x="784" 
d="M270 761q-15 0 -15 18q0 35 17 57t44 22q26 0 67 -29l37 -26q30 -21 45 -21q34 0 34 51q0 18 15 18t15 -18q0 -35 -17 -57t-44 -22q-25 0 -66 29l-37 26q-30 21 -46 21q-34 0 -34 -51q0 -18 -15 -18zM391 670q141 0 238.5 -98.5t97.5 -241.5t-97.5 -241.5t-238.5 -98.5
q-140 0 -237 98.5t-97 241.5t96.5 241.5t237.5 98.5zM392 639q-128 0 -214.5 -88.5t-86.5 -219.5q0 -132 86.5 -221t214.5 -89q127 0 214 89.5t87 220.5q0 130 -86.5 219t-214.5 89z" />
    <glyph glyph-name="Odieresis" unicode="&#xd6;" horiz-adv-x="784" 
d="M281 773q-14 0 -23.5 9.5t-9.5 23.5t9.5 23.5t23.5 9.5t23.5 -9.5t9.5 -23.5t-9.5 -23.5t-23.5 -9.5zM502 773q-14 0 -23.5 9.5t-9.5 23.5t9.5 23.5t23.5 9.5t23.5 -9.5t9.5 -23.5t-9.5 -23.5t-23.5 -9.5zM391 670q141 0 238.5 -98.5t97.5 -241.5t-97.5 -241.5
t-238.5 -98.5q-140 0 -237 98.5t-97 241.5t96.5 241.5t237.5 98.5zM392 639q-128 0 -214.5 -88.5t-86.5 -219.5q0 -132 86.5 -221t214.5 -89q127 0 214 89.5t87 220.5q0 130 -86.5 219t-214.5 89z" />
    <glyph glyph-name="multiply" unicode="&#xd7;" 
d="M116 131q-14 0 -14 13q0 6 5 11l154 154l-154 154q-5 5 -5 11q0 13 14 13q6 0 12 -6l152 -152l152 152q6 6 12 6q14 0 14 -13q0 -6 -5 -11l-154 -154l154 -154q5 -5 5 -11q0 -13 -14 -13q-6 0 -12 6l-152 152l-152 -152q-6 -6 -12 -6z" />
    <glyph glyph-name="Oslash" unicode="&#xd8;" horiz-adv-x="784" 
d="M732 656q0 -7 -5 -12l-85 -85q85 -96 85 -229q0 -143 -97.5 -241.5t-238.5 -98.5q-133 0 -228 90l-84 -84q-6 -6 -13 -6q-14 0 -14 14q0 7 6 13l84 84q-85 96 -85 229q0 143 96.5 241.5t237.5 98.5q134 0 230 -90l84 84q6 6 13 6q14 0 14 -14zM91 331q0 -122 74 -207
l434 434q-84 81 -207 81q-128 0 -214.5 -88.5t-86.5 -219.5zM693 331q0 120 -73 206l-435 -435q84 -81 207 -81q128 0 214.5 89t86.5 221z" />
    <glyph glyph-name="Ugrave" unicode="&#xd9;" horiz-adv-x="678" 
d="M331 728q-7 0 -12 8l-84 153q-5 10 -1.5 17t12.5 7q10 0 14 -9l82 -158q4 -6 -0.5 -12t-10.5 -6zM340 -10q-115 0 -181.5 70.5t-66.5 191.5v401q0 17 16 17t16 -17v-401q0 -107 58 -169t158 -62q99 0 156.5 62t57.5 169v401q0 17 16 17t16 -17v-401q0 -121 -66.5 -191.5
t-179.5 -70.5z" />
    <glyph glyph-name="Uacute" unicode="&#xda;" horiz-adv-x="678" 
d="M347 728q-6 0 -10.5 6t-0.5 12l82 158q4 9 14 9q9 0 12.5 -7t-1.5 -17l-84 -153q-5 -8 -12 -8zM340 -10q-115 0 -181.5 70.5t-66.5 191.5v401q0 17 16 17t16 -17v-401q0 -107 58 -169t158 -62q99 0 156.5 62t57.5 169v401q0 17 16 17t16 -17v-401q0 -121 -66.5 -191.5
t-179.5 -70.5z" />
    <glyph glyph-name="Ucircumflex" unicode="&#xdb;" horiz-adv-x="678" 
d="M198 724q-14 0 -14 14q0 5 5 10l138 146q5 5 11 5t11 -5l138 -146q5 -5 5 -10q0 -14 -14 -14q-5 0 -11 6l-129 132l-129 -132q-6 -6 -11 -6zM570 670q16 0 16 -17v-401q0 -121 -66.5 -191.5t-179.5 -70.5q-115 0 -181.5 70.5t-66.5 191.5v401q0 17 16 17t16 -17v-401
q0 -107 58 -169t158 -62q99 0 156.5 62t57.5 169v401q0 17 16 17z" />
    <glyph glyph-name="Udieresis" unicode="&#xdc;" horiz-adv-x="678" 
d="M228 773q-14 0 -23.5 9.5t-9.5 23.5t9.5 23.5t23.5 9.5t23.5 -9.5t9.5 -23.5t-9.5 -23.5t-23.5 -9.5zM449 773q-14 0 -23.5 9.5t-9.5 23.5t9.5 23.5t23.5 9.5t23.5 -9.5t9.5 -23.5t-9.5 -23.5t-23.5 -9.5zM340 -10q-115 0 -181.5 70.5t-66.5 191.5v401q0 17 16 17t16 -17
v-401q0 -107 58 -169t158 -62q99 0 156.5 62t57.5 169v401q0 17 16 17t16 -17v-401q0 -121 -66.5 -191.5t-179.5 -70.5z" />
    <glyph glyph-name="Yacute" unicode="&#xdd;" horiz-adv-x="610" 
d="M313 728q-6 0 -10.5 6t-0.5 12l82 158q4 9 14 9q9 0 12.5 -7t-1.5 -17l-84 -153q-5 -8 -12 -8zM546 656q0 -4 -5 -12l-220 -359v-278q0 -17 -16 -17t-16 17v279l-220 357q-5 7 -5 13q0 14 15 14q8 0 13 -8l213 -349l213 349q5 8 13 8q15 0 15 -14z" />
    <glyph glyph-name="Thorn" unicode="&#xde;" horiz-adv-x="557" 
d="M119 670q16 0 16 -17v-126h187q87 0 138.5 -48.5t51.5 -130.5t-51.5 -131t-138.5 -49h-187v-161q0 -17 -16 -17t-16 17v646q0 17 16 17zM320 498h-185v-301h185q74 0 116.5 40t42.5 110q0 71 -42.5 111t-116.5 40z" />
    <glyph glyph-name="germandbls" unicode="&#xdf;" horiz-adv-x="579" 
d="M393 -12q-93 0 -152 70q-6 7 -6 13t4.5 10.5t10.5 4.5q7 0 14 -8q49 -61 133 -61q56 0 87.5 25t31.5 68q0 31 -18.5 51t-80.5 55q-63 35 -83.5 57t-20.5 53q0 27 18 82l47 150q12 45 12 72q0 47 -29 74t-80 27q-70 0 -111 -48t-41 -129v-549q0 -6 -4.5 -10.5t-10.5 -4.5
t-10.5 4.5t-4.5 10.5v549q0 92 51 149t133 57q63 0 101 -35.5t38 -93.5q0 -30 -14 -79l-48 -152q-16 -55 -16 -74q0 -23 15.5 -38.5t69.5 -46.5q71 -40 95 -67t24 -65q0 -54 -43 -87.5t-112 -33.5z" />
    <glyph glyph-name="agrave" unicode="&#xe0;" horiz-adv-x="516" 
d="M232 573l-86 176q-4 10 -4 14q0 5 4 9t10 4q11 0 16 -11l84 -184q2 -4 2 -8q0 -12 -12 -12q-8 0 -14 12zM252 490q81 0 127 -49.5t46 -135.5v-300q0 -6 -4.5 -10.5t-10.5 -4.5t-10.5 4.5t-4.5 10.5v80q-26 -44 -73 -69.5t-106 -25.5q-73 0 -118.5 35.5t-45.5 91.5
q0 57 44.5 90.5t119.5 33.5h179v65q0 73 -38.5 114t-106.5 41q-81 0 -142 -73q-6 -7 -13 -7q-14 0 -14 13q0 7 7 15q69 81 164 81zM217 19q74 0 126 45.5t52 110.5v38h-178q-63 0 -98 -25.5t-35 -70.5q0 -44 36.5 -71t96.5 -27z" />
    <glyph glyph-name="aacute" unicode="&#xe1;" horiz-adv-x="516" 
d="M256 561q-12 0 -12 12q0 4 2 8l84 184q5 11 16 11q6 0 10 -4t4 -9q0 -4 -4 -14l-86 -176q-6 -12 -14 -12zM252 490q81 0 127 -49.5t46 -135.5v-300q0 -6 -4.5 -10.5t-10.5 -4.5t-10.5 4.5t-4.5 10.5v80q-26 -44 -73 -69.5t-106 -25.5q-73 0 -118.5 35.5t-45.5 91.5
q0 57 44.5 90.5t119.5 33.5h179v65q0 73 -38.5 114t-106.5 41q-81 0 -142 -73q-6 -7 -13 -7q-14 0 -14 13q0 7 7 15q69 81 164 81zM217 19q74 0 126 45.5t52 110.5v38h-178q-63 0 -98 -25.5t-35 -70.5q0 -44 36.5 -71t96.5 -27z" />
    <glyph glyph-name="acircumflex" unicode="&#xe2;" horiz-adv-x="516" 
d="M122 561q-12 0 -12 11q0 6 4 11l125 187q5 6 12 6t12 -6l125 -187q4 -5 4 -11q0 -11 -12 -11q-7 0 -11 6l-118 173l-118 -173q-4 -6 -11 -6zM252 490q81 0 127 -49.5t46 -135.5v-300q0 -6 -4.5 -10.5t-10.5 -4.5t-10.5 4.5t-4.5 10.5v80q-26 -44 -73 -69.5t-106 -25.5
q-73 0 -118.5 35.5t-45.5 91.5q0 57 44.5 90.5t119.5 33.5h179v65q0 73 -38.5 114t-106.5 41q-81 0 -142 -73q-6 -7 -13 -7q-14 0 -14 13q0 7 7 15q69 81 164 81zM217 19q74 0 126 45.5t52 110.5v38h-178q-63 0 -98 -25.5t-35 -70.5q0 -44 36.5 -71t96.5 -27z" />
    <glyph glyph-name="atilde" unicode="&#xe3;" horiz-adv-x="516" 
d="M138 625q-15 0 -15 18q0 35 17 57t44 22q34 0 63 -33l25 -27q24 -25 43 -25q34 0 34 51q0 18 15 18t15 -18q0 -35 -17 -57t-44 -22q-34 0 -63 33l-25 27q-24 25 -43 25q-34 0 -34 -51q0 -18 -15 -18zM252 490q81 0 127 -49.5t46 -135.5v-300q0 -6 -4.5 -10.5t-10.5 -4.5
t-10.5 4.5t-4.5 10.5v80q-26 -44 -73 -69.5t-106 -25.5q-73 0 -118.5 35.5t-45.5 91.5q0 57 44.5 90.5t119.5 33.5h179v65q0 73 -38.5 114t-106.5 41q-81 0 -142 -73q-6 -7 -13 -7q-14 0 -14 13q0 7 7 15q69 81 164 81zM217 19q74 0 126 45.5t52 110.5v38h-178
q-63 0 -98 -25.5t-35 -70.5q0 -44 36.5 -71t96.5 -27z" />
    <glyph glyph-name="adieresis" unicode="&#xe4;" horiz-adv-x="516" 
d="M155 633q-14 0 -23.5 9.5t-9.5 23.5t9.5 23.5t23.5 9.5t23.5 -9.5t9.5 -23.5t-9.5 -23.5t-23.5 -9.5zM347 633q-14 0 -23.5 9.5t-9.5 23.5t9.5 23.5t23.5 9.5t23.5 -9.5t9.5 -23.5t-9.5 -23.5t-23.5 -9.5zM252 490q81 0 127 -49.5t46 -135.5v-300q0 -6 -4.5 -10.5
t-10.5 -4.5t-10.5 4.5t-4.5 10.5v80q-26 -44 -73 -69.5t-106 -25.5q-73 0 -118.5 35.5t-45.5 91.5q0 57 44.5 90.5t119.5 33.5h179v65q0 73 -38.5 114t-106.5 41q-81 0 -142 -73q-6 -7 -13 -7q-14 0 -14 13q0 7 7 15q69 81 164 81zM217 19q74 0 126 45.5t52 110.5v38h-178
q-63 0 -98 -25.5t-35 -70.5q0 -44 36.5 -71t96.5 -27z" />
    <glyph glyph-name="aring" unicode="&#xe5;" horiz-adv-x="516" 
d="M251 569q-41 0 -69.5 28.5t-28.5 68.5t28.5 68.5t69.5 28.5t69.5 -28.5t28.5 -68.5t-28.5 -68.5t-69.5 -28.5zM251 735q-29 0 -48.5 -20t-19.5 -49t19.5 -49t48.5 -20t48.5 20t19.5 49t-19.5 49t-48.5 20zM252 490q81 0 127 -49.5t46 -135.5v-300q0 -6 -4.5 -10.5
t-10.5 -4.5t-10.5 4.5t-4.5 10.5v80q-26 -44 -73 -69.5t-106 -25.5q-73 0 -118.5 35.5t-45.5 91.5q0 57 44.5 90.5t119.5 33.5h179v65q0 73 -38.5 114t-106.5 41q-81 0 -142 -73q-6 -7 -13 -7q-14 0 -14 13q0 7 7 15q69 81 164 81zM217 19q74 0 126 45.5t52 110.5v38h-178
q-63 0 -98 -25.5t-35 -70.5q0 -44 36.5 -71t96.5 -27z" />
    <glyph glyph-name="ae" unicode="&#xe6;" horiz-adv-x="908" 
d="M633 490q98 0 156.5 -62.5t58.5 -165.5v-12q0 -21 -19 -21h-402q4 -90 65 -150t149 -60q99 0 162 74q7 8 13 8q14 0 14 -13q0 -7 -7 -15q-68 -83 -182 -83q-73 0 -133 39t-90 104q-17 -64 -72 -103.5t-129 -39.5t-119.5 37.5t-45.5 98.5t44 96t120 35h179v49
q0 73 -38.5 114t-106.5 41q-84 0 -142 -73q-6 -7 -13 -7q-14 0 -14 13q0 7 7 15q66 81 164 81q69 0 112.5 -35.5t56.5 -100.5q30 62 86.5 99t125.5 37zM633 461q-83 0 -141.5 -58.5t-63.5 -145.5h389q4 88 -48.5 146t-135.5 58zM219 19q73 0 124.5 46t51.5 110v54h-178
q-64 0 -98.5 -26t-34.5 -74q0 -49 37 -79.5t98 -30.5z" />
    <glyph glyph-name="ccedilla" unicode="&#xe7;" horiz-adv-x="553" 
d="M485 107q5 0 9.5 -4t4.5 -9q0 -7 -8 -16q-64 -74 -149 -86q30 -34 30 -79t-31.5 -74t-80.5 -29q-30 0 -51 6q-16 4 -16 15q0 14 14 14q2 0 18 -3.5t32 -3.5q38 0 60.5 21t22.5 56q0 50 -39 75q-101 1 -171 74t-70 176q0 104 71.5 177t174.5 73q114 0 186 -88q8 -9 8 -16
q0 -5 -4.5 -9t-9.5 -4q-7 0 -13 7q-62 81 -167 81q-91 0 -152.5 -64t-61.5 -157t61.5 -157t151.5 -64q102 0 167 81q6 7 13 7z" />
    <glyph glyph-name="egrave" unicode="&#xe8;" horiz-adv-x="573" 
d="M282 573l-86 176q-4 10 -4 14q0 5 4 9t10 4q11 0 16 -11l84 -184q2 -4 2 -8q0 -12 -12 -12q-8 0 -14 12zM298 490q94 0 154.5 -61t60.5 -155v-16q0 -21 -19 -21h-402q1 -93 62 -155.5t152 -62.5q99 0 162 74q7 8 13 8q14 0 14 -13q0 -7 -7 -15q-74 -83 -182 -83
q-103 0 -174.5 73t-71.5 177q0 105 69 177.5t169 72.5zM298 461q-81 0 -139 -56t-66 -140h389q3 84 -49 140t-135 56z" />
    <glyph glyph-name="eacute" unicode="&#xe9;" horiz-adv-x="573" 
d="M306 561q-12 0 -12 12q0 4 2 8l84 184q5 11 16 11q6 0 10 -4t4 -9q0 -4 -4 -14l-86 -176q-6 -12 -14 -12zM298 490q94 0 154.5 -61t60.5 -155v-16q0 -21 -19 -21h-402q1 -93 62 -155.5t152 -62.5q99 0 162 74q7 8 13 8q14 0 14 -13q0 -7 -7 -15q-74 -83 -182 -83
q-103 0 -174.5 73t-71.5 177q0 105 69 177.5t169 72.5zM298 461q-81 0 -139 -56t-66 -140h389q3 84 -49 140t-135 56z" />
    <glyph glyph-name="ecircumflex" unicode="&#xea;" horiz-adv-x="573" 
d="M172 561q-12 0 -12 11q0 6 4 11l125 187q5 6 12 6t12 -6l125 -187q4 -5 4 -11q0 -11 -12 -11q-7 0 -11 6l-118 173l-118 -173q-4 -6 -11 -6zM298 490q94 0 154.5 -61t60.5 -155v-16q0 -21 -19 -21h-402q1 -93 62 -155.5t152 -62.5q99 0 162 74q7 8 13 8q14 0 14 -13
q0 -7 -7 -15q-74 -83 -182 -83q-103 0 -174.5 73t-71.5 177q0 105 69 177.5t169 72.5zM298 461q-81 0 -139 -56t-66 -140h389q3 84 -49 140t-135 56z" />
    <glyph glyph-name="edieresis" unicode="&#xeb;" horiz-adv-x="573" 
d="M205 633q-14 0 -23.5 9.5t-9.5 23.5t9.5 23.5t23.5 9.5t23.5 -9.5t9.5 -23.5t-9.5 -23.5t-23.5 -9.5zM397 633q-14 0 -23.5 9.5t-9.5 23.5t9.5 23.5t23.5 9.5t23.5 -9.5t9.5 -23.5t-9.5 -23.5t-23.5 -9.5zM298 490q94 0 154.5 -61t60.5 -155v-16q0 -21 -19 -21h-402
q1 -93 62 -155.5t152 -62.5q99 0 162 74q7 8 13 8q14 0 14 -13q0 -7 -7 -15q-74 -83 -182 -83q-103 0 -174.5 73t-71.5 177q0 105 69 177.5t169 72.5zM298 461q-81 0 -139 -56t-66 -140h389q3 84 -49 140t-135 56z" />
    <glyph glyph-name="igrave" unicode="&#xec;" horiz-adv-x="228" 
d="M101 553q-7 1 -10 15l-38 192v15q5 12 17 9q9 -2 13 -15l33 -200v-8q-3 -12 -15 -8zM114 -10q-6 0 -10.5 4.5t-4.5 10.5v470q0 15 15 15q6 0 10.5 -4.5t4.5 -10.5v-470q0 -6 -4.5 -10.5t-10.5 -4.5z" />
    <glyph glyph-name="iacute" unicode="&#xed;" horiz-adv-x="228" 
d="M124 558q-12 -2 -14 10v8l51 196q3 12 14 13q14 3 16 -10q1 -5 -1 -14l-55 -189q-3 -13 -11 -14zM114 -10q-6 0 -10.5 4.5t-4.5 10.5v470q0 15 15 15q6 0 10.5 -4.5t4.5 -10.5v-470q0 -6 -4.5 -10.5t-10.5 -4.5z" />
    <glyph glyph-name="icircumflex" unicode="&#xee;" horiz-adv-x="228" 
d="M251 583q4 -5 4 -11q0 -11 -12 -11q-7 0 -11 6l-118 173l-118 -173q-4 -6 -11 -6q-12 0 -12 11q0 6 4 11l125 187q4 6 12 6t12 -6zM114 490q6 0 10.5 -4.5t4.5 -10.5v-470q0 -6 -4.5 -10.5t-10.5 -4.5t-10.5 4.5t-4.5 10.5v470q0 15 15 15z" />
    <glyph glyph-name="idieresis" unicode="&#xef;" horiz-adv-x="228" 
d="M33 633q-14 0 -23.5 9.5t-9.5 23.5t9.5 23.5t23.5 9.5t23.5 -9.5t9.5 -23.5t-9.5 -23.5t-23.5 -9.5zM194 633q-14 0 -23.5 9.5t-9.5 23.5t9.5 23.5t23.5 9.5t23.5 -9.5t9.5 -23.5t-9.5 -23.5t-23.5 -9.5zM114 -10q-6 0 -10.5 4.5t-4.5 10.5v470q0 15 15 15q6 0 10.5 -4.5
t4.5 -10.5v-470q0 -6 -4.5 -10.5t-10.5 -4.5z" />
    <glyph glyph-name="eth" unicode="&#xf0;" horiz-adv-x="565" 
d="M404 441q62 -86 81.5 -129t19.5 -93q0 -98 -63.5 -163.5t-159.5 -65.5q-95 0 -158.5 64t-63.5 159q0 94 63.5 160.5t153.5 66.5q68 0 117 -35l-148 205l-143 -66q-12 -5 -15 -5q-13 0 -13 13q0 10 9 14l145 67l-73 101q-5 6 -5 12t4.5 10t9.5 4q8 0 15 -8l76 -106l139 64
q10 5 16 5q12 0 12 -13q0 -10 -10 -14l-140 -65zM282 19q81 0 135.5 56.5t54.5 139.5t-54.5 139.5t-136.5 56.5q-80 0 -134.5 -56.5t-54.5 -139.5q0 -84 54.5 -140t135.5 -56z" />
    <glyph glyph-name="ntilde" unicode="&#xf1;" horiz-adv-x="551" 
d="M171 625q-15 0 -15 18q0 35 17 57t44 22q34 0 63 -33l25 -27q24 -25 43 -25q34 0 34 51q0 18 15 18t15 -18q0 -35 -17 -57t-44 -22q-34 0 -63 33l-25 27q-24 25 -43 25q-34 0 -34 -51q0 -18 -15 -18zM286 490q80 0 127 -50t47 -135v-300q0 -6 -4.5 -10.5t-10.5 -4.5
t-10.5 4.5t-4.5 10.5v300q0 71 -39.5 113.5t-105.5 42.5q-68 0 -112 -44t-44 -112v-300q0 -6 -4.5 -10.5t-10.5 -4.5t-10.5 4.5t-4.5 10.5v470q0 6 4.5 10.5t10.5 4.5t10.5 -4.5t4.5 -10.5v-72q49 87 157 87z" />
    <glyph glyph-name="ograve" unicode="&#xf2;" horiz-adv-x="613" 
d="M302 561q-8 0 -14 12l-86 176q-4 10 -4 14q0 5 4 9t10 4q11 0 16 -11l84 -184q2 -4 2 -8q0 -12 -12 -12zM306 490q104 0 175.5 -72.5t71.5 -177.5t-72 -177.5t-176 -72.5q-103 0 -174 72.5t-71 177.5q0 106 71 178t175 72zM306 461q-91 0 -152.5 -63.5t-61.5 -157.5
t61 -157.5t152 -63.5t153.5 64t62.5 157q0 94 -62 157.5t-153 63.5z" />
    <glyph glyph-name="oacute" unicode="&#xf3;" horiz-adv-x="613" 
d="M312 561q-12 0 -12 12q0 4 2 8l84 184q5 11 16 11q6 0 10 -4t4 -9q0 -4 -4 -14l-86 -176q-6 -12 -14 -12zM306 490q104 0 175.5 -72.5t71.5 -177.5t-72 -177.5t-176 -72.5q-103 0 -174 72.5t-71 177.5q0 106 71 178t175 72zM306 461q-91 0 -152.5 -63.5t-61.5 -157.5
t61 -157.5t152 -63.5t153.5 64t62.5 157q0 94 -62 157.5t-153 63.5z" />
    <glyph glyph-name="ocircumflex" unicode="&#xf4;" horiz-adv-x="613" 
d="M178 561q-12 0 -12 11q0 6 4 11l125 187q5 6 12 6t12 -6l125 -187q4 -5 4 -11q0 -11 -12 -11q-7 0 -11 6l-118 173l-118 -173q-4 -6 -11 -6zM306 490q104 0 175.5 -72.5t71.5 -177.5t-72 -177.5t-176 -72.5q-103 0 -174 72.5t-71 177.5q0 106 71 178t175 72zM305 19
q91 0 153.5 64t62.5 157q0 94 -62 157.5t-153 63.5t-152.5 -63.5t-61.5 -157.5t61 -157.5t152 -63.5z" />
    <glyph glyph-name="otilde" unicode="&#xf5;" horiz-adv-x="613" 
d="M374 609q-34 0 -63 33l-25 27q-24 25 -43 25q-34 0 -34 -51q0 -18 -15 -18t-15 18q0 35 17 57t44 22q34 0 63 -33l25 -27q24 -25 43 -25q34 0 34 51q0 18 15 18t15 -18q0 -35 -17 -57t-44 -22zM306 490q104 0 175.5 -72.5t71.5 -177.5t-72 -177.5t-176 -72.5
q-103 0 -174 72.5t-71 177.5q0 106 71 178t175 72zM306 461q-91 0 -152.5 -63.5t-61.5 -157.5t61 -157.5t152 -63.5t153.5 64t62.5 157q0 94 -62 157.5t-153 63.5z" />
    <glyph glyph-name="odieresis" unicode="&#xf6;" horiz-adv-x="613" 
d="M211 699q14 0 23.5 -9.5t9.5 -23.5t-9.5 -23.5t-23.5 -9.5t-23.5 9.5t-9.5 23.5t9.5 23.5t23.5 9.5zM403 699q14 0 23.5 -9.5t9.5 -23.5t-9.5 -23.5t-23.5 -9.5t-23.5 9.5t-9.5 23.5t9.5 23.5t23.5 9.5zM306 490q104 0 175.5 -72.5t71.5 -177.5t-72 -177.5t-176 -72.5
q-103 0 -174 72.5t-71 177.5q0 106 71 178t175 72zM306 461q-91 0 -152.5 -63.5t-61.5 -157.5t61 -157.5t152 -63.5t153.5 64t62.5 157q0 94 -62 157.5t-153 63.5z" />
    <glyph glyph-name="divide" unicode="&#xf7;" 
d="M277 513q14 0 24 -10t10 -24t-10 -24t-24 -10t-24 10t-10 24t10 24t24 10zM480 323q15 0 15 -14t-15 -14h-401q-15 0 -15 14t15 14h401zM277 172q14 0 24 -10t10 -24t-10 -24t-24 -10t-24 10t-10 24t10 24t24 10z" />
    <glyph glyph-name="oslash" unicode="&#xf8;" horiz-adv-x="627" 
d="M557 463l-58 -59q61 -69 61 -164q0 -104 -72.5 -177t-175.5 -73q-94 0 -163 64l-58 -58q-6 -6 -12 -6t-10.5 4.5t-4.5 10.5t6 12l58 58q-61 71 -61 165q0 104 71.5 177t174.5 73q96 0 166 -64l57 58q6 6 12 6t10.5 -4.5t4.5 -10.5t-6 -12zM313 461q-91 0 -152.5 -64
t-61.5 -157q0 -81 50 -144l309 309q-61 56 -145 56zM312 19q92 0 154 64t62 157q0 84 -50 143l-309 -309q61 -55 143 -55z" />
    <glyph glyph-name="ugrave" unicode="&#xf9;" horiz-adv-x="543" 
d="M267 561q-8 0 -14 12l-86 176q-4 10 -4 14q0 5 4 9t10 4q11 0 16 -11l84 -184q2 -4 2 -8q0 -12 -12 -12zM272 -10q-79 0 -130 52t-51 133v300q0 6 4.5 10.5t10.5 4.5t10.5 -4.5t4.5 -10.5v-300q0 -70 41.5 -113t109.5 -43q67 0 108.5 43t41.5 113v300q0 15 15 15
q6 0 10.5 -4.5t4.5 -10.5v-300q0 -81 -50.5 -133t-129.5 -52z" />
    <glyph glyph-name="uacute" unicode="&#xfa;" horiz-adv-x="543" 
d="M277 561q-12 0 -12 12q0 4 2 8l84 184q5 11 16 11q6 0 10 -4t4 -9q0 -4 -4 -14l-86 -176q-6 -12 -14 -12zM272 -10q-79 0 -130 52t-51 133v300q0 6 4.5 10.5t10.5 4.5t10.5 -4.5t4.5 -10.5v-300q0 -70 41.5 -113t109.5 -43q67 0 108.5 43t41.5 113v300q0 15 15 15
q6 0 10.5 -4.5t4.5 -10.5v-300q0 -81 -50.5 -133t-129.5 -52z" />
    <glyph glyph-name="ucircumflex" unicode="&#xfb;" horiz-adv-x="543" 
d="M143 561q-12 0 -12 11q0 6 4 11l125 187q4 6 12 6t12 -6l125 -187q4 -5 4 -11q0 -11 -12 -11q-7 0 -11 6l-118 173l-118 -173q-4 -6 -11 -6zM437 490q6 0 10.5 -4.5t4.5 -10.5v-300q0 -81 -50.5 -133t-129.5 -52t-130 52t-51 133v300q0 6 4.5 10.5t10.5 4.5t10.5 -4.5
t4.5 -10.5v-300q0 -70 41.5 -113t109.5 -43q67 0 108.5 43t41.5 113v300q0 15 15 15z" />
    <glyph glyph-name="udieresis" unicode="&#xfc;" horiz-adv-x="543" 
d="M176 699q14 0 23.5 -9.5t9.5 -23.5t-9.5 -23.5t-23.5 -9.5t-23.5 9.5t-9.5 23.5t9.5 23.5t23.5 9.5zM368 699q14 0 23.5 -9.5t9.5 -23.5t-9.5 -23.5t-23.5 -9.5t-23.5 9.5t-9.5 23.5t9.5 23.5t23.5 9.5zM272 -10q-79 0 -130 52t-51 133v300q0 6 4.5 10.5t10.5 4.5
t10.5 -4.5t4.5 -10.5v-300q0 -70 41.5 -113t109.5 -43q67 0 108.5 43t41.5 113v300q0 15 15 15q6 0 10.5 -4.5t4.5 -10.5v-300q0 -81 -50.5 -133t-129.5 -52z" />
    <glyph glyph-name="yacute" unicode="&#xfd;" horiz-adv-x="519" 
d="M264 561q-12 0 -12 12q0 4 2 8l84 184q5 11 16 11q6 0 10 -4t4 -9q0 -4 -4 -14l-86 -176q-6 -12 -14 -12zM466 490q6 0 10.5 -4.5t4.5 -10.5q0 -3 -2 -8l-236 -548q-48 -109 -152 -109q-25 0 -44 6q-13 3 -13 14q0 14 14 14q2 0 17 -3t24 -3q88 0 128 94l31 73l-205 462
l-2 8q0 6 4.5 10.5t10.5 4.5q12 0 16 -12l192 -437l186 437q4 12 16 12z" />
    <glyph glyph-name="thorn" unicode="&#xfe;" horiz-adv-x="635" 
d="M335 490q101 0 170.5 -72.5t69.5 -177.5q0 -106 -69.5 -178t-170.5 -72q-70 0 -126 35t-80 91v-291q0 -6 -4.5 -10.5t-10.5 -4.5t-10.5 4.5t-4.5 10.5v920q0 15 15 15q6 0 10.5 -4.5t4.5 -10.5v-381q24 56 80 91t126 35zM335 19q89 0 148.5 63t59.5 158q0 94 -59.5 157.5
t-148.5 63.5q-93 0 -149.5 -60.5t-56.5 -160.5t56.5 -160.5t149.5 -60.5z" />
    <glyph glyph-name="ydieresis" unicode="&#xff;" horiz-adv-x="519" 
d="M163 633q-14 0 -23.5 9.5t-9.5 23.5t9.5 23.5t23.5 9.5t23.5 -9.5t9.5 -23.5t-9.5 -23.5t-23.5 -9.5zM355 633q-14 0 -23.5 9.5t-9.5 23.5t9.5 23.5t23.5 9.5t23.5 -9.5t9.5 -23.5t-9.5 -23.5t-23.5 -9.5zM466 490q6 0 10.5 -4.5t4.5 -10.5q0 -3 -2 -8l-236 -548
q-48 -109 -152 -109q-25 0 -44 6q-13 3 -13 14q0 14 14 14q2 0 17 -3t24 -3q88 0 128 94l31 73l-205 462l-2 8q0 6 4.5 10.5t10.5 4.5q12 0 16 -12l192 -437l186 437q4 12 16 12z" />
    <glyph glyph-name="Amacron" unicode="&#x100;" horiz-adv-x="665" 
d="M211 782q-14 0 -14 14t14 14h244q14 0 14 -14t-14 -14h-244zM614 14q3 -8 3 -11q0 -13 -15 -13q-12 0 -16 12l-71 173h-365l-71 -173q-5 -12 -16 -12q-15 0 -15 13q0 3 3 11l267 645q3 11 15 11t15 -11zM333 619l-171 -415h341z" />
    <glyph glyph-name="amacron" unicode="&#x101;" horiz-adv-x="516" 
d="M137 652q-14 0 -14 14t14 14h228q14 0 14 -14t-14 -14h-228zM252 490q81 0 127 -49.5t46 -135.5v-300q0 -6 -4.5 -10.5t-10.5 -4.5t-10.5 4.5t-4.5 10.5v80q-26 -44 -73 -69.5t-106 -25.5q-73 0 -118.5 35.5t-45.5 91.5q0 57 44.5 90.5t119.5 33.5h179v65q0 73 -38.5 114
t-106.5 41q-81 0 -142 -73q-6 -7 -13 -7q-14 0 -14 13q0 7 7 15q69 81 164 81zM217 19q74 0 126 45.5t52 110.5v38h-178q-63 0 -98 -25.5t-35 -70.5q0 -44 36.5 -71t96.5 -27z" />
    <glyph glyph-name="Abreve" unicode="&#x102;" horiz-adv-x="665" 
d="M333 747q-55 0 -94.5 35.5t-39.5 84.5q0 18 15 18t15 -18q2 -38 32 -65t72 -27t72.5 27t31.5 65q0 18 15 18t15 -18q0 -49 -39.5 -84.5t-94.5 -35.5zM614 14q3 -8 3 -11q0 -13 -15 -13q-12 0 -16 12l-71 173h-365l-71 -173q-5 -12 -16 -12q-15 0 -15 13q0 3 3 11l267 645
q3 11 15 11t15 -11zM333 619l-171 -415h341z" />
    <glyph glyph-name="abreve" unicode="&#x103;" horiz-adv-x="516" 
d="M251 593q-57 0 -96 38.5t-39 95.5q0 17 15 17t15 -17q0 -45 30.5 -75.5t74.5 -30.5t74.5 30.5t30.5 75.5q0 17 15 17t15 -17q0 -56 -39 -95t-96 -39zM252 490q81 0 127 -49.5t46 -135.5v-300q0 -6 -4.5 -10.5t-10.5 -4.5t-10.5 4.5t-4.5 10.5v80q-26 -44 -73 -69.5
t-106 -25.5q-73 0 -118.5 35.5t-45.5 91.5q0 57 44.5 90.5t119.5 33.5h179v65q0 73 -38.5 114t-106.5 41q-81 0 -142 -73q-6 -7 -13 -7q-14 0 -14 13q0 7 7 15q69 81 164 81zM217 19q74 0 126 45.5t52 110.5v38h-178q-63 0 -98 -25.5t-35 -70.5q0 -44 36.5 -71t96.5 -27z
" />
    <glyph glyph-name="Aogonek" unicode="&#x104;" horiz-adv-x="665" 
d="M608 -156q12 0 12 -13q0 -9 -15 -14q-22 -7 -48 -7q-40 0 -67.5 20t-27.5 55q0 32 26.5 58.5t95.5 62.5l-69 169h-365l-71 -173q-5 -12 -16 -12q-15 0 -15 13q0 3 3 11l267 645q3 11 15 11t15 -11l266 -645q2 -4 2 -5q1 -2 1 -5v-1q0 -1 -1 -3v-2q-2 -4 -6 -6
q-72 -43 -94.5 -62.5t-22.5 -41.5q0 -23 17.5 -36.5t46.5 -13.5q17 0 33 3t18 3zM333 619l-171 -415h341z" />
    <glyph glyph-name="aogonek" unicode="&#x105;" horiz-adv-x="516" 
d="M416 -156q12 0 12 -13q0 -9 -15 -14q-22 -7 -48 -7q-40 0 -67.5 20t-27.5 55q0 33 27 59.5t98 62.5v78q-26 -44 -73 -69.5t-106 -25.5q-73 0 -118.5 35.5t-45.5 91.5q0 57 44.5 90.5t119.5 33.5h179v65q0 73 -38.5 114t-106.5 41q-81 0 -142 -73q-6 -7 -13 -7
q-14 0 -14 13q0 7 7 15q69 81 164 81q81 0 127 -49.5t46 -135.5v-300v-1q0 -8 -7 -12q-72 -43 -94.5 -62.5t-22.5 -41.5q0 -23 17.5 -36.5t46.5 -13.5q17 0 33 3t18 3zM217 19q74 0 126 45.5t52 110.5v38h-178q-63 0 -98 -25.5t-35 -70.5q0 -44 36.5 -71t96.5 -27z" />
    <glyph glyph-name="Cacute" unicode="&#x106;" horiz-adv-x="709" 
d="M401 728q-6 0 -10.5 6t-0.5 12l82 158q4 9 14 9q9 0 12.5 -7t-1.5 -17l-84 -153q-5 -8 -12 -8zM391 -10q-142 0 -238 98t-96 242q0 143 96.5 241.5t237.5 98.5q157 0 254 -120q6 -8 6 -14q0 -15 -14 -15q-8 0 -15 8q-87 110 -231 110q-127 0 -213.5 -89t-86.5 -220
q0 -132 86 -220.5t214 -88.5q144 0 231 110q7 8 15 8q14 0 14 -15q0 -6 -6 -14q-97 -120 -254 -120z" />
    <glyph glyph-name="cacute" unicode="&#x107;" horiz-adv-x="553" 
d="M311 561q-12 0 -12 12q0 4 2 8l84 184q5 11 16 11q6 0 10 -4t4 -9q0 -4 -4 -14l-86 -176q-6 -12 -14 -12zM305 -10q-102 0 -173.5 73t-71.5 177t71.5 177t174.5 73q114 0 186 -88q8 -9 8 -16q0 -5 -4.5 -9t-9.5 -4q-7 0 -13 7q-62 81 -167 81q-91 0 -152.5 -64
t-61.5 -157t61.5 -157t151.5 -64q102 0 167 81q6 7 13 7q5 0 9.5 -4t4.5 -9q0 -7 -8 -16q-75 -88 -186 -88z" />
    <glyph glyph-name="Ccircumflex" unicode="&#x108;" horiz-adv-x="709" 
d="M252 724q-14 0 -14 14q0 5 5 10l138 146q5 5 11 5t11 -5l138 -146q5 -5 5 -10q0 -14 -14 -14q-5 0 -11 6l-129 132l-129 -132q-6 -6 -11 -6zM637 139q14 0 14 -15q0 -6 -6 -14q-97 -120 -254 -120q-142 0 -238 98t-96 242q0 143 96.5 241.5t237.5 98.5q157 0 254 -120
q6 -8 6 -14q0 -15 -14 -15q-8 0 -15 8q-87 110 -231 110q-127 0 -213.5 -89t-86.5 -220q0 -132 86 -220.5t214 -88.5q144 0 231 110q7 8 15 8z" />
    <glyph glyph-name="ccircumflex" unicode="&#x109;" horiz-adv-x="553" 
d="M177 561q-12 0 -12 11q0 6 4 11l125 187q4 6 12 6t12 -6l125 -187q4 -5 4 -11q0 -11 -12 -11q-7 0 -11 6l-118 173l-118 -173q-4 -6 -11 -6zM485 107q5 0 9.5 -4t4.5 -9q0 -7 -8 -16q-75 -88 -186 -88q-102 0 -173.5 73t-71.5 177t71.5 177t174.5 73q114 0 186 -88
q8 -9 8 -16q0 -5 -4.5 -9t-9.5 -4q-7 0 -13 7q-62 81 -167 81q-91 0 -152.5 -64t-61.5 -157t61.5 -157t151.5 -64q102 0 167 81q6 7 13 7z" />
    <glyph glyph-name="Cdotaccent" unicode="&#x10a;" horiz-adv-x="709" 
d="M393 839q14 0 23.5 -9.5t9.5 -23.5t-9.5 -23.5t-23.5 -9.5t-23.5 9.5t-9.5 23.5t9.5 23.5t23.5 9.5zM391 -10q-142 0 -238 98t-96 242q0 143 96.5 241.5t237.5 98.5q157 0 254 -120q6 -8 6 -14q0 -15 -14 -15q-8 0 -15 8q-87 110 -231 110q-127 0 -213.5 -89t-86.5 -220
q0 -132 86 -220.5t214 -88.5q144 0 231 110q7 8 15 8q14 0 14 -15q0 -6 -6 -14q-97 -120 -254 -120z" />
    <glyph glyph-name="cdotaccent" unicode="&#x10b;" horiz-adv-x="553" 
d="M306 699q14 0 23.5 -9.5t9.5 -23.5t-9.5 -23.5t-23.5 -9.5t-23.5 9.5t-9.5 23.5t9.5 23.5t23.5 9.5zM305 -10q-102 0 -173.5 73t-71.5 177t71.5 177t174.5 73q114 0 186 -88q8 -9 8 -16q0 -5 -4.5 -9t-9.5 -4q-7 0 -13 7q-62 81 -167 81q-91 0 -152.5 -64t-61.5 -157
t61.5 -157t151.5 -64q102 0 167 81q6 7 13 7q5 0 9.5 -4t4.5 -9q0 -7 -8 -16q-75 -88 -186 -88z" />
    <glyph glyph-name="Ccaron" unicode="&#x10c;" horiz-adv-x="709" 
d="M381 729l-138 146q-5 5 -5 10q0 14 14 14q5 0 11 -6l129 -132l129 132q6 6 11 6q14 0 14 -14q0 -5 -5 -10l-138 -146q-5 -5 -11 -5t-11 5zM637 139q14 0 14 -15q0 -6 -6 -14q-97 -120 -254 -120q-142 0 -238 98t-96 242q0 143 96.5 241.5t237.5 98.5q157 0 254 -120
q6 -8 6 -14q0 -15 -14 -15q-8 0 -15 8q-87 110 -231 110q-127 0 -213.5 -89t-86.5 -220q0 -132 86 -220.5t214 -88.5q144 0 231 110q7 8 15 8z" />
    <glyph glyph-name="ccaron" unicode="&#x10d;" horiz-adv-x="553" 
d="M294 567l-125 187q-4 5 -4 11q0 11 12 11q7 0 11 -6l118 -173l118 173q4 6 11 6q12 0 12 -11q0 -6 -4 -11l-125 -187q-4 -6 -12 -6t-12 6zM485 107q5 0 9.5 -4t4.5 -9q0 -7 -8 -16q-75 -88 -186 -88q-102 0 -173.5 73t-71.5 177t71.5 177t174.5 73q114 0 186 -88
q8 -9 8 -16q0 -5 -4.5 -9t-9.5 -4q-7 0 -13 7q-62 81 -167 81q-91 0 -152.5 -64t-61.5 -157t61.5 -157t151.5 -64q102 0 167 81q6 7 13 7z" />
    <glyph glyph-name="Dcaron" unicode="&#x10e;" horiz-adv-x="698" 
d="M270 729l-138 146q-5 5 -5 10q0 14 14 14q5 0 11 -6l129 -132l129 132q6 6 11 6q14 0 14 -14q0 -5 -5 -10l-138 -146q-5 -5 -11 -5t-11 5zM282 660q164 0 261.5 -89t97.5 -240t-97.5 -241t-261.5 -90h-162q-17 0 -17 17v626q0 17 17 17h162zM282 29q146 0 235.5 83
t89.5 219t-89 218t-236 82h-147v-602h147z" />
    <glyph glyph-name="dcaron" unicode="&#x10f;" horiz-adv-x="724" 
d="M521 760q6 0 10.5 -4.5t4.5 -10.5v-740q0 -6 -4.5 -10.5t-10.5 -4.5t-10.5 4.5t-4.5 10.5v111q-24 -56 -80 -91t-126 -35q-101 0 -170.5 72.5t-69.5 177.5q0 106 69.5 178t170.5 72q70 0 126 -35t80 -91v381q0 15 15 15zM688 760q6 0 11 -5t4 -12l-30 -202
q-2 -11 -12 -11q-6 0 -10 4.5t-3 10.5l24 198q3 17 16 17zM300 19q93 0 149.5 60.5t56.5 160.5t-56.5 160.5t-149.5 60.5q-89 0 -148.5 -63t-59.5 -158q0 -94 59.5 -157.5t148.5 -63.5z" />
    <glyph glyph-name="Dcroat" unicode="&#x110;" horiz-adv-x="698" 
d="M282 660q164 0 261.5 -89t97.5 -240t-97.5 -241t-261.5 -90h-162q-17 0 -17 17v270h-90q-15 0 -15 14t15 14h90v328q0 17 17 17h162zM282 29q146 0 235.5 83t89.5 219t-89 218t-236 82h-147v-316h138q15 0 15 -14t-15 -14h-138v-258h147z" />
    <glyph glyph-name="dcroat" unicode="&#x111;" horiz-adv-x="633" 
d="M607 632q15 0 15 -14t-15 -14h-73v-599q0 -6 -4.5 -10.5t-10.5 -4.5t-10.5 4.5t-4.5 10.5v111q-24 -56 -80 -91t-126 -35q-101 0 -170.5 72.5t-69.5 177.5q0 106 69.5 178t170.5 72q70 0 126 -35t80 -91v240h-217q-15 0 -15 14t15 14h217v113q0 15 15 15q6 0 10.5 -4.5
t4.5 -10.5v-113h73zM298 19q93 0 149.5 60.5t56.5 160.5t-56.5 160.5t-149.5 60.5q-89 0 -148.5 -63t-59.5 -158q0 -94 59.5 -157.5t148.5 -63.5z" />
    <glyph glyph-name="Emacron" unicode="&#x112;" horiz-adv-x="561" 
d="M423 810q14 0 14 -14t-14 -14h-244q-14 0 -14 14t14 14h244zM120 0q-17 0 -17 17v626q0 17 17 17h376q15 0 15 -14q0 -6 -4.5 -10.5t-10.5 -4.5h-361v-257h281q15 0 15 -14q0 -6 -4.5 -10.5t-10.5 -4.5h-281v-316h373q15 0 15 -14q0 -6 -4.5 -10.5t-10.5 -4.5h-388z" />
    <glyph glyph-name="emacron" unicode="&#x113;" horiz-adv-x="573" 
d="M187 652q-14 0 -14 14t14 14h228q14 0 14 -14t-14 -14h-228zM298 490q94 0 154.5 -61t60.5 -155v-16q0 -21 -19 -21h-402q1 -93 62 -155.5t152 -62.5q99 0 162 74q7 8 13 8q14 0 14 -13q0 -7 -7 -15q-74 -83 -182 -83q-103 0 -174.5 73t-71.5 177q0 105 69 177.5
t169 72.5zM298 461q-81 0 -139 -56t-66 -140h389q3 84 -49 140t-135 56z" />
    <glyph glyph-name="Ebreve" unicode="&#x114;" horiz-adv-x="561" 
d="M301 747q-55 0 -94.5 35.5t-39.5 84.5q0 18 15 18t15 -18q2 -38 32 -65t72 -27t72.5 27t31.5 65q0 18 15 18t15 -18q0 -49 -39.5 -84.5t-94.5 -35.5zM120 0q-17 0 -17 17v626q0 17 17 17h376q15 0 15 -14q0 -6 -4.5 -10.5t-10.5 -4.5h-361v-257h281q15 0 15 -14
q0 -6 -4.5 -10.5t-10.5 -4.5h-281v-316h373q15 0 15 -14q0 -6 -4.5 -10.5t-10.5 -4.5h-388z" />
    <glyph glyph-name="ebreve" unicode="&#x115;" horiz-adv-x="573" 
d="M301 593q-57 0 -96 38.5t-39 95.5q0 17 15 17t15 -17q0 -45 30.5 -75.5t74.5 -30.5t74.5 30.5t30.5 75.5q0 17 15 17t15 -17q0 -56 -39 -95t-96 -39zM298 490q94 0 154.5 -61t60.5 -155v-16q0 -21 -19 -21h-402q1 -93 62 -155.5t152 -62.5q99 0 162 74q7 8 13 8
q14 0 14 -13q0 -7 -7 -15q-74 -83 -182 -83q-103 0 -174.5 73t-71.5 177q0 105 69 177.5t169 72.5zM298 461q-81 0 -139 -56t-66 -140h389q3 84 -49 140t-135 56z" />
    <glyph glyph-name="Edotaccent" unicode="&#x116;" horiz-adv-x="561" 
d="M301 839q14 0 23.5 -9.5t9.5 -23.5t-9.5 -23.5t-23.5 -9.5t-23.5 9.5t-9.5 23.5t9.5 23.5t23.5 9.5zM120 0q-17 0 -17 17v626q0 17 17 17h376q15 0 15 -14q0 -6 -4.5 -10.5t-10.5 -4.5h-361v-257h281q15 0 15 -14q0 -6 -4.5 -10.5t-10.5 -4.5h-281v-316h373q15 0 15 -14
q0 -6 -4.5 -10.5t-10.5 -4.5h-388z" />
    <glyph glyph-name="edotaccent" unicode="&#x117;" horiz-adv-x="573" 
d="M301 633q-14 0 -23.5 9.5t-9.5 23.5t9.5 23.5t23.5 9.5t23.5 -9.5t9.5 -23.5t-9.5 -23.5t-23.5 -9.5zM298 490q94 0 154.5 -61t60.5 -155v-16q0 -21 -19 -21h-402q1 -93 62 -155.5t152 -62.5q99 0 162 74q7 8 13 8q14 0 14 -13q0 -7 -7 -15q-74 -83 -182 -83
q-103 0 -174.5 73t-71.5 177q0 105 69 177.5t169 72.5zM298 461q-81 0 -139 -56t-66 -140h389q3 84 -49 140t-135 56z" />
    <glyph glyph-name="Eogonek" unicode="&#x118;" horiz-adv-x="561" 
d="M520 6q-3 -3 -5 -4l-3 -2l-57 -35q-39 -24 -54.5 -41.5t-15.5 -35.5q0 -23 17.5 -36.5t46.5 -13.5q17 0 33 3t18 3q12 0 12 -13q0 -9 -15 -14q-22 -7 -48 -7q-40 0 -67.5 20t-27.5 55q0 30 23.5 55t85.5 60h-343q-17 0 -17 17v626q0 17 17 17h376q15 0 15 -14
q0 -6 -4.5 -10.5t-10.5 -4.5h-361v-257h281q15 0 15 -14q0 -6 -4.5 -10.5t-10.5 -4.5h-281v-316h373q15 0 15 -14q0 -6 -3 -9z" />
    <glyph glyph-name="eogonek" unicode="&#x119;" horiz-adv-x="573" 
d="M298 490q94 0 154.5 -61t60.5 -155v-16q0 -21 -19 -21h-402q1 -93 62 -155.5t152 -62.5q99 0 162 74q7 8 13 8q14 0 14 -13q0 -7 -7 -15q-23 -26 -50 -44l-10 -7q-87 -63 -111 -85.5t-24 -48.5q0 -23 17.5 -36.5t46.5 -13.5q17 0 33 3t18 3q12 0 12 -13q0 -9 -15 -14
q-22 -7 -48 -7q-40 0 -67.5 20t-27.5 55q0 27 19.5 50.5t66.5 58.5q-17 -4 -42 -4q-103 0 -174.5 73t-71.5 177q0 105 69 177.5t169 72.5zM298 461q-81 0 -139 -56t-66 -140h389q3 84 -49 140t-135 56z" />
    <glyph glyph-name="Ecaron" unicode="&#x11a;" horiz-adv-x="561" 
d="M289 729l-138 146q-5 5 -5 10q0 14 14 14q5 0 11 -6l129 -132l129 132q6 6 11 6q14 0 14 -14q0 -5 -5 -10l-138 -146q-5 -5 -11 -5t-11 5zM508 29q15 0 15 -14q0 -6 -4.5 -10.5t-10.5 -4.5h-388q-17 0 -17 17v626q0 17 17 17h376q15 0 15 -14q0 -6 -4.5 -10.5t-10.5 -4.5
h-361v-257h281q15 0 15 -14q0 -6 -4.5 -10.5t-10.5 -4.5h-281v-316h373z" />
    <glyph glyph-name="ecaron" unicode="&#x11b;" horiz-adv-x="573" 
d="M289 567l-125 187q-4 5 -4 11q0 11 12 11q7 0 11 -6l118 -173l118 173q4 6 11 6q12 0 12 -11q0 -6 -4 -11l-125 -187q-5 -6 -12 -6t-12 6zM298 490q94 0 154.5 -61t60.5 -155v-16q0 -21 -19 -21h-402q1 -93 62 -155.5t152 -62.5q99 0 162 74q7 8 13 8q14 0 14 -13
q0 -7 -7 -15q-74 -83 -182 -83q-103 0 -174.5 73t-71.5 177q0 105 69 177.5t169 72.5zM298 461q-81 0 -139 -56t-66 -140h389q3 84 -49 140t-135 56z" />
    <glyph glyph-name="Gcircumflex" unicode="&#x11c;" horiz-adv-x="744" 
d="M250 724q-14 0 -14 14q0 5 5 10l138 146q5 5 11 5t11 -5l138 -146q5 -5 5 -10q0 -14 -14 -14q-5 0 -11 6l-129 132l-129 -132q-6 -6 -11 -6zM664 316q17 0 17 -17v-125q0 -20 -8 -33q-44 -70 -119.5 -110.5t-162.5 -40.5q-141 0 -237.5 98.5t-96.5 241.5t96.5 241.5
t237.5 98.5q77 0 144.5 -32t109.5 -88q6 -8 6 -14q0 -15 -14 -15q-8 0 -20 14q-87 104 -225 104q-128 0 -214.5 -88.5t-86.5 -219.5q0 -132 86.5 -221t215.5 -89q80 0 148 37t108 102v126h-245q-17 0 -17 15t17 15h260z" />
    <glyph glyph-name="gcircumflex" unicode="&#x11d;" horiz-adv-x="642" 
d="M182 561q-12 0 -12 11q0 6 4 11l125 187q5 6 12 6t12 -6l125 -187q4 -5 4 -11q0 -11 -12 -11q-7 0 -11 6l-118 173l-118 -173q-4 -6 -11 -6zM528 480q6 0 10.5 -4.5t4.5 -10.5v-425q0 -103 -62.5 -166.5t-164.5 -63.5q-58 0 -113 22t-94 61q-7 7 -7 13t4.5 10.5t9.5 4.5
q6 0 12 -6q76 -76 188 -76q90 0 143.5 54.5t53.5 146.5v83q-24 -55 -80.5 -89t-126.5 -34q-100 0 -169.5 71.5t-69.5 173.5q0 103 69.5 174.5t169.5 71.5q70 0 126.5 -34t80.5 -89v97q0 6 4.5 10.5t10.5 4.5zM308 29q92 0 148.5 59.5t56.5 156.5t-57 157t-148 60
q-89 0 -149 -62.5t-60 -154.5t60 -154t149 -62z" />
    <glyph glyph-name="Gbreve" unicode="&#x11e;" horiz-adv-x="744" 
d="M391 747q-55 0 -94.5 35.5t-39.5 84.5q0 18 15 18t15 -18q2 -38 32 -65t72 -27t72.5 27t31.5 65q0 18 15 18t15 -18q0 -49 -39.5 -84.5t-94.5 -35.5zM391 -10q-141 0 -237.5 98.5t-96.5 241.5t96.5 241.5t237.5 98.5q77 0 144.5 -32t109.5 -88q6 -8 6 -14q0 -15 -14 -15
q-8 0 -20 14q-87 104 -225 104q-128 0 -214.5 -88.5t-86.5 -219.5q0 -132 86.5 -221t215.5 -89q80 0 148 37t108 102v126h-245q-17 0 -17 15t17 15h260q17 0 17 -17v-125q0 -20 -8 -33q-44 -70 -119.5 -110.5t-162.5 -40.5z" />
    <glyph glyph-name="gbreve" unicode="&#x11f;" horiz-adv-x="642" 
d="M311 593q-57 0 -96 38.5t-39 95.5q0 17 15 17t15 -17q0 -45 30.5 -75.5t74.5 -30.5t74.5 30.5t30.5 75.5q0 17 15 17t15 -17q0 -56 -39 -95t-96 -39zM528 480q6 0 10.5 -4.5t4.5 -10.5v-425q0 -103 -62.5 -166.5t-164.5 -63.5q-58 0 -113 22t-94 61q-7 7 -7 13t4.5 10.5
t9.5 4.5q6 0 12 -6q76 -76 188 -76q90 0 143.5 54.5t53.5 146.5v83q-24 -55 -80.5 -89t-126.5 -34q-100 0 -169.5 71.5t-69.5 173.5q0 103 69.5 174.5t169.5 71.5q70 0 126.5 -34t80.5 -89v97q0 6 4.5 10.5t10.5 4.5zM308 29q92 0 148.5 59.5t56.5 156.5t-57 157t-148 60
q-89 0 -149 -62.5t-60 -154.5t60 -154t149 -62z" />
    <glyph glyph-name="Gdotaccent" unicode="&#x120;" horiz-adv-x="744" 
d="M391 839q14 0 23.5 -9.5t9.5 -23.5t-9.5 -23.5t-23.5 -9.5t-23.5 9.5t-9.5 23.5t9.5 23.5t23.5 9.5zM391 -10q-141 0 -237.5 98.5t-96.5 241.5t96.5 241.5t237.5 98.5q77 0 144.5 -32t109.5 -88q6 -8 6 -14q0 -15 -14 -15q-8 0 -20 14q-87 104 -225 104
q-128 0 -214.5 -88.5t-86.5 -219.5q0 -132 86.5 -221t215.5 -89q80 0 148 37t108 102v126h-245q-17 0 -17 15t17 15h260q17 0 17 -17v-125q0 -20 -8 -33q-44 -70 -119.5 -110.5t-162.5 -40.5z" />
    <glyph glyph-name="gdotaccent" unicode="&#x121;" horiz-adv-x="642" 
d="M311 633q-14 0 -23.5 9.5t-9.5 23.5t9.5 23.5t23.5 9.5t23.5 -9.5t9.5 -23.5t-9.5 -23.5t-23.5 -9.5zM528 480q6 0 10.5 -4.5t4.5 -10.5v-425q0 -103 -62.5 -166.5t-164.5 -63.5q-58 0 -113 22t-94 61q-7 7 -7 13t4.5 10.5t9.5 4.5q6 0 12 -6q76 -76 188 -76
q90 0 143.5 54.5t53.5 146.5v83q-24 -55 -80.5 -89t-126.5 -34q-100 0 -169.5 71.5t-69.5 173.5q0 103 69.5 174.5t169.5 71.5q70 0 126.5 -34t80.5 -89v97q0 6 4.5 10.5t10.5 4.5zM308 29q92 0 148.5 59.5t56.5 156.5t-57 157t-148 60q-89 0 -149 -62.5t-60 -154.5t60 -154
t149 -62z" />
    <glyph glyph-name="Gcommaaccent" unicode="&#x122;" horiz-adv-x="744" 
d="M391 -10q-141 0 -237.5 98.5t-96.5 241.5t96.5 241.5t237.5 98.5q77 0 144.5 -32t109.5 -88q6 -8 6 -14q0 -15 -14 -15q-8 0 -20 14q-87 104 -225 104q-128 0 -214.5 -88.5t-86.5 -219.5q0 -132 86.5 -221t215.5 -89q80 0 148 37t108 102v126h-245q-17 0 -17 15t17 15
h260q17 0 17 -17v-125q0 -20 -8 -33q-44 -70 -119.5 -110.5t-162.5 -40.5zM376 -220q-6 0 -10 4.5t-2 11.5q13 47 13 141q0 6 4.5 10.5t10.5 4.5t10.5 -4.5t4.5 -10.5q-1 -57 -18 -143q-3 -14 -13 -14z" />
    <glyph glyph-name="gcommaaccent" unicode="&#x123;" horiz-adv-x="642" 
d="M311 561q-15 0 -15 16q0 123 38 189q6 10 14 10q4 0 8 -4t4 -8q0 -6 -11 -35t-12 -34q-11 -45 -11 -118q0 -16 -15 -16zM528 480q6 0 10.5 -4.5t4.5 -10.5v-425q0 -103 -62.5 -166.5t-164.5 -63.5q-58 0 -113 22t-94 61q-7 7 -7 13t4.5 10.5t9.5 4.5q6 0 12 -6
q76 -76 188 -76q90 0 143.5 54.5t53.5 146.5v83q-24 -55 -80.5 -89t-126.5 -34q-100 0 -169.5 71.5t-69.5 173.5q0 103 69.5 174.5t169.5 71.5q70 0 126.5 -34t80.5 -89v97q0 6 4.5 10.5t10.5 4.5zM308 29q92 0 148.5 59.5t56.5 156.5t-57 157t-148 60q-89 0 -149 -62.5
t-60 -154.5t60 -154t149 -62z" />
    <glyph glyph-name="Hcircumflex" unicode="&#x124;" horiz-adv-x="704" 
d="M211 724q-14 0 -14 14q0 5 5 10l138 146q5 5 11 5t11 -5l138 -146q5 -5 5 -10q0 -14 -14 -14q-5 0 -11 6l-129 132l-129 -132q-6 -6 -11 -6zM585 670q16 0 16 -16v-648q0 -16 -16 -16t-16 16v339h-434v-339q0 -16 -16 -16t-16 16v648q0 16 16 16t16 -16v-280h434v280
q0 16 16 16z" />
    <glyph glyph-name="hcircumflex" unicode="&#x125;" horiz-adv-x="551" 
d="M257 820l-129 132l-129 -132q-6 -6 -11 -6q-14 0 -14 14q0 5 5 10l138 146q5 5 11 5t11 -5l138 -146q5 -5 5 -10q0 -14 -14 -14q-5 0 -11 6zM286 490q80 0 127 -50t47 -135v-300q0 -6 -4.5 -10.5t-10.5 -4.5t-10.5 4.5t-4.5 10.5v300q0 71 -39.5 113.5t-105.5 42.5
q-68 0 -112 -44t-44 -112v-300q0 -6 -4.5 -10.5t-10.5 -4.5t-10.5 4.5t-4.5 10.5v740q0 6 4.5 10.5t10.5 4.5t10.5 -4.5t4.5 -10.5v-342q49 87 157 87z" />
    <glyph glyph-name="Hbar" unicode="&#x126;" horiz-adv-x="710" 
d="M122 -10q-16 0 -16 17v473h-93q-15 0 -15 14t15 14h93v145q0 17 16 17t16 -17v-145h434v145q0 17 16 17t16 -17v-145h94q15 0 15 -14t-15 -14h-94v-473q0 -17 -16 -17t-16 17v279h-434v-279q0 -17 -16 -17zM138 315h434v165h-434v-165z" />
    <glyph glyph-name="hbar" unicode="&#x127;" horiz-adv-x="551" 
d="M286 490q80 0 127 -50t47 -135v-300q0 -6 -4.5 -10.5t-10.5 -4.5t-10.5 4.5t-4.5 10.5v300q0 71 -39.5 113.5t-105.5 42.5q-68 0 -112 -44t-44 -112v-300q0 -6 -4.5 -10.5t-10.5 -4.5t-10.5 4.5t-4.5 10.5v599h-74q-14 0 -14 14t14 14h74v113q0 15 15 15q6 0 10.5 -4.5
t4.5 -10.5v-113h198q14 0 14 -14t-14 -14h-198v-201q49 87 157 87z" />
    <glyph glyph-name="Itilde" unicode="&#x128;" horiz-adv-x="238" 
d="M-3 761q-15 0 -15 18q0 35 17 57t44 22q26 0 67 -29l37 -26q30 -21 45 -21q34 0 34 51q0 18 15 18t15 -18q0 -35 -17 -57t-44 -22q-25 0 -66 29l-37 26q-30 21 -46 21q-34 0 -34 -51q0 -18 -15 -18zM119 -10q-16 0 -16 17v646q0 17 16 17t16 -17v-646q0 -17 -16 -17z" />
    <glyph glyph-name="itilde" unicode="&#x129;" horiz-adv-x="228" 
d="M174 609q-30 0 -58 34l-21 25q-21 26 -40 26q-32 0 -32 -51q0 -18 -15 -18t-15 18q0 35 17 57t44 22q30 0 58 -34l21 -25q21 -26 40 -26q32 0 32 51q0 18 15 18t15 -18q0 -35 -17 -57t-44 -22zM114 -10q-6 0 -10.5 4.5t-4.5 10.5v470q0 15 15 15q6 0 10.5 -4.5t4.5 -10.5
v-470q0 -6 -4.5 -10.5t-10.5 -4.5z" />
    <glyph glyph-name="Imacron" unicode="&#x12a;" horiz-adv-x="238" 
d="M241 810q14 0 14 -14t-14 -14h-244q-14 0 -14 14t14 14h244zM119 -10q-16 0 -16 17v646q0 17 16 17t16 -17v-646q0 -17 -16 -17z" />
    <glyph glyph-name="imacron" unicode="&#x12b;" horiz-adv-x="228" 
d="M198 680q14 0 14 -14t-14 -14h-168q-14 0 -14 14t14 14h168zM114 -10q-6 0 -10.5 4.5t-4.5 10.5v470q0 15 15 15q6 0 10.5 -4.5t4.5 -10.5v-470q0 -6 -4.5 -10.5t-10.5 -4.5z" />
    <glyph glyph-name="Ibreve" unicode="&#x12c;" horiz-adv-x="238" 
d="M119 747q-55 0 -94.5 35.5t-39.5 84.5q0 18 15 18t15 -18q2 -38 32 -65t72 -27t72.5 27t31.5 65q0 18 15 18t15 -18q0 -49 -39.5 -84.5t-94.5 -35.5zM119 -10q-16 0 -16 17v646q0 17 16 17t16 -17v-646q0 -17 -16 -17z" />
    <glyph glyph-name="ibreve" unicode="&#x12d;" horiz-adv-x="228" 
d="M114 593q-57 0 -96 38.5t-39 95.5q0 17 15 17t15 -17q0 -45 30.5 -75.5t74.5 -30.5t74.5 30.5t30.5 75.5q0 17 15 17t15 -17q0 -56 -39 -95t-96 -39zM114 -10q-6 0 -10.5 4.5t-4.5 10.5v470q0 15 15 15q6 0 10.5 -4.5t4.5 -10.5v-470q0 -6 -4.5 -10.5t-10.5 -4.5z" />
    <glyph glyph-name="Iogonek" unicode="&#x12e;" horiz-adv-x="238" 
d="M126 -156q12 0 12 -13q0 -9 -15 -14q-22 -7 -48 -7q-40 0 -67.5 20t-27.5 55q0 32 27 59t96 62v1v646q0 17 16 17t16 -17v-646v-2v-1q0 -8 -7 -12q-72 -43 -94.5 -62.5t-22.5 -41.5q0 -23 17.5 -36.5t46.5 -13.5q17 0 33 3t18 3z" />
    <glyph glyph-name="iogonek" unicode="&#x12f;" horiz-adv-x="228" 
d="M114 699q14 0 23.5 -9.5t9.5 -23.5t-9.5 -23.5t-23.5 -9.5t-23.5 9.5t-9.5 23.5t9.5 23.5t23.5 9.5zM120 -156q12 0 12 -13q0 -9 -15 -14q-22 -7 -48 -7q-40 0 -67.5 20t-27.5 55q0 33 27 59.5t98 62.5v468q0 15 15 15q6 0 10.5 -4.5t4.5 -10.5v-470v-1q0 -8 -7 -12
q-72 -43 -94.5 -62.5t-22.5 -41.5q0 -23 17.5 -36.5t46.5 -13.5q17 0 33.5 3t17.5 3z" />
    <glyph glyph-name="Idotaccent" unicode="&#x130;" horiz-adv-x="238" 
d="M119 839q14 0 23.5 -9.5t9.5 -23.5t-9.5 -23.5t-23.5 -9.5t-23.5 9.5t-9.5 23.5t9.5 23.5t23.5 9.5zM119 -10q-16 0 -16 17v646q0 17 16 17t16 -17v-646q0 -17 -16 -17z" />
    <glyph glyph-name="dotlessi" unicode="&#x131;" horiz-adv-x="228" 
d="M114 -10q-6 0 -10.5 4.5t-4.5 10.5v470q0 15 15 15q6 0 10.5 -4.5t4.5 -10.5v-470q0 -6 -4.5 -10.5t-10.5 -4.5z" />
    <glyph glyph-name="IJ" unicode="&#x132;" horiz-adv-x="599" 
d="M119 -10q-16 0 -16 17v646q0 17 16 17t16 -17v-646q0 -17 -16 -17zM346 -10q-41 0 -65 6q-16 4 -16 17q0 16 17 16q4 0 25 -3.5t38 -3.5q119 0 119 113v518q0 17 16 17t16 -17v-518q0 -70 -39 -107.5t-111 -37.5z" />
    <glyph glyph-name="ij" unicode="&#x133;" horiz-adv-x="456" 
d="M114 699q14 0 23.5 -9.5t9.5 -23.5t-9.5 -23.5t-23.5 -9.5t-23.5 9.5t-9.5 23.5t9.5 23.5t23.5 9.5zM342 699q14 0 23.5 -9.5t9.5 -23.5t-9.5 -23.5t-23.5 -9.5t-23.5 9.5t-9.5 23.5t9.5 23.5t23.5 9.5zM114 -10q-6 0 -10.5 4.5t-4.5 10.5v470q0 15 15 15q6 0 10.5 -4.5
t4.5 -10.5v-470q0 -6 -4.5 -10.5t-10.5 -4.5zM221 -190q-24 0 -40 4q-14 4 -14 15q0 13 14 13q2 0 15 -2t23 -2q108 0 108 107v530q0 15 15 15q6 0 10.5 -4.5t4.5 -10.5v-530q0 -70 -37 -102.5t-99 -32.5z" />
    <glyph glyph-name="Jcircumflex" unicode="&#x134;" horiz-adv-x="361" 
d="M387 748q5 -5 5 -10q0 -14 -14 -14q-5 0 -11 6l-129 132l-129 -132q-6 -6 -11 -6q-14 0 -14 14q0 5 5 10l138 146q5 5 11 5t11 -5zM242 670q16 0 16 -17v-518q0 -70 -39 -107.5t-111 -37.5q-41 0 -65 6q-16 4 -16 17q0 16 17 16q4 0 25 -3.5t38 -3.5q119 0 119 113v518
q0 17 16 17z" />
    <glyph glyph-name="jcircumflex" unicode="&#x135;" horiz-adv-x="228" 
d="M251 583q4 -5 4 -11q0 -11 -12 -11q-7 0 -11 6l-118 173l-118 -173q-4 -6 -11 -6q-12 0 -12 11q0 6 4 11l125 187q4 6 12 6t12 -6zM114 490q6 0 10.5 -4.5t4.5 -10.5v-530q0 -70 -37 -102.5t-99 -32.5q-24 0 -40 4q-14 4 -14 15q0 13 14 13q2 0 15 -2t23 -2
q108 0 108 107v530q0 15 15 15z" />
    <glyph glyph-name="Kcommaaccent" unicode="&#x136;" horiz-adv-x="598" 
d="M119 670q16 0 16 -17v-646q0 -17 -16 -17t-16 17v646q0 17 16 17zM545 17q6 -6 6 -13q0 -5 -4.5 -9.5t-10.5 -4.5q-7 0 -17 10l-352 346q-5 5 -5 12t6 13l320 284q16 15 24 15q15 0 15 -15q0 -7 -9 -15l-319 -283zM282 -48q6 0 10.5 -4.5t4.5 -10.5q-1 -57 -18 -143
q-3 -14 -13 -14q-6 0 -10 4.5t-2 11.5q13 47 13 141q0 6 4.5 10.5t10.5 4.5z" />
    <glyph glyph-name="kcommaaccent" unicode="&#x137;" horiz-adv-x="463" 
d="M114 750q6 0 10.5 -4.5t4.5 -10.5v-720q0 -6 -4.5 -10.5t-10.5 -4.5t-10.5 4.5t-4.5 10.5v720q0 15 15 15zM428 16q5 -5 5 -12q0 -14 -14 -14q-7 0 -13 6l-246 262q-6 6 -6 12t7 12l221 203q5 5 12 5q14 0 14 -14q0 -7 -6 -13l-212 -194zM232 -48q6 0 10.5 -4.5
t4.5 -10.5q-1 -57 -18 -143q-3 -14 -13 -14q-6 0 -10 4.5t-2 11.5q13 47 13 141q0 6 4.5 10.5t10.5 4.5z" />
    <glyph glyph-name="Lacute" unicode="&#x139;" horiz-adv-x="493" 
d="M127 728q-6 0 -10.5 6t-0.5 12l82 158q4 9 14 9q9 0 12.5 -7t-1.5 -17l-84 -153q-5 -8 -12 -8zM120 0q-17 0 -17 17v636q0 17 16 17t16 -17v-624h321q15 0 15 -14q0 -6 -4.5 -10.5t-10.5 -4.5h-336z" />
    <glyph glyph-name="lacute" unicode="&#x13a;" horiz-adv-x="228" 
d="M122 818q-6 0 -10.5 6t-0.5 12l82 158q5 9 14 9t12.5 -7t-1.5 -17l-84 -153q-5 -8 -12 -8zM114 -10q-6 0 -10.5 4.5t-4.5 10.5v740q0 6 4.5 10.5t10.5 4.5t10.5 -4.5t4.5 -10.5v-740q0 -15 -15 -15z" />
    <glyph glyph-name="Lcommaaccent" unicode="&#x13b;" horiz-adv-x="493" 
d="M120 0q-17 0 -17 17v636q0 17 16 17t16 -17v-624h321q15 0 15 -14q0 -6 -4.5 -10.5t-10.5 -4.5h-336zM267 -220q-6 0 -10 4.5t-2 11.5q13 47 13 141q0 6 4.5 10.5t10.5 4.5t10.5 -4.5t4.5 -10.5q-1 -57 -18 -143q-3 -14 -13 -14z" />
    <glyph glyph-name="lcommaaccent" unicode="&#x13c;" horiz-adv-x="228" 
d="M114 -10q-6 0 -10.5 4.5t-4.5 10.5v740q0 6 4.5 10.5t10.5 4.5t10.5 -4.5t4.5 -10.5v-740q0 -15 -15 -15zM99 -220q-6 0 -10 4.5t-2 11.5q13 47 13 141q0 6 4.5 10.5t10.5 4.5t10.5 -4.5t4.5 -10.5q-1 -57 -18 -143q-3 -14 -13 -14z" />
    <glyph glyph-name="Lcaron" unicode="&#x13d;" horiz-adv-x="493" 
d="M383 500q-6 0 -10 4.5t-3 10.5l24 198q3 17 16 17q6 0 11 -5t4 -12l-30 -202q-2 -11 -12 -11zM120 0q-17 0 -17 17v636q0 17 16 17t16 -17v-624h321q15 0 15 -14q0 -6 -4.5 -10.5t-10.5 -4.5h-336z" />
    <glyph glyph-name="lcaron" unicode="&#x13e;" horiz-adv-x="316" 
d="M114 -10q-6 0 -10.5 4.5t-4.5 10.5v740q0 6 4.5 10.5t10.5 4.5t10.5 -4.5t4.5 -10.5v-740q0 -15 -15 -15zM253 530q-6 0 -10 4.5t-3 10.5l24 198q3 17 16 17q6 0 11 -5t4 -12l-30 -202q-2 -11 -12 -11z" />
    <glyph glyph-name="Ldot" unicode="&#x13f;" horiz-adv-x="493" 
d="M120 0q-17 0 -17 17v636q0 17 16 17t16 -17v-624h321q15 0 15 -14q0 -6 -4.5 -10.5t-10.5 -4.5h-336zM365 322q-15 0 -26.5 10.5t-11.5 27.5q0 18 11.5 29t26.5 11q16 0 28 -11t12 -29q0 -17 -12 -27.5t-28 -10.5z" />
    <glyph glyph-name="ldot" unicode="&#x140;" horiz-adv-x="231" 
d="M114 -10q-6 0 -10.5 4.5t-4.5 10.5v740q0 6 4.5 10.5t10.5 4.5t10.5 -4.5t4.5 -10.5v-740q0 -15 -15 -15zM230 270q-15 0 -26.5 10.5t-11.5 27.5q0 18 11.5 29t26.5 11q16 0 28 -11t12 -29q0 -17 -12 -27.5t-28 -10.5z" />
    <glyph glyph-name="Lslash" unicode="&#x141;" horiz-adv-x="493" 
d="M456 29q15 0 15 -14q0 -6 -4.5 -10.5t-10.5 -4.5h-336q-17 0 -17 17v276l-64 -30q-7 -3 -14 1t-7 12q0 10 10 14l75 34v329q0 17 16 17t16 -17v-318l222 101q8 4 14.5 0t6.5 -12q0 -10 -10 -14l-233 -106v-275h321z" />
    <glyph glyph-name="lslash" unicode="&#x142;" horiz-adv-x="228" 
d="M206 441q13 0 13 -14q0 -8 -8 -12l-82 -39v-371q0 -6 -4.5 -10.5t-10.5 -4.5t-10.5 4.5t-4.5 10.5v359l-69 -31q-6 -3 -10 -3q-13 0 -13 14q0 8 8 12l84 39v350q0 15 15 15q6 0 10.5 -4.5t4.5 -10.5v-338l67 31q6 3 10 3z" />
    <glyph glyph-name="Nacute" unicode="&#x143;" horiz-adv-x="704" 
d="M360 728q-6 0 -10.5 6t-0.5 12l82 158q5 9 14 9t12.5 -7t-1.5 -17l-84 -153q-5 -8 -12 -8zM585 670q16 0 16 -17v-646q0 -17 -16 -17q-7 0 -13 7l-437 606v-596q0 -17 -16 -17t-16 17v646q0 17 16 17q7 0 13 -7l437 -606v596q0 17 16 17z" />
    <glyph glyph-name="nacute" unicode="&#x144;" horiz-adv-x="551" 
d="M289 561q-12 0 -12 12q0 4 2 8l84 184q5 11 16 11q6 0 10 -4t4 -9q0 -4 -4 -14l-86 -176q-6 -12 -14 -12zM286 490q80 0 127 -50t47 -135v-300q0 -6 -4.5 -10.5t-10.5 -4.5t-10.5 4.5t-4.5 10.5v300q0 71 -39.5 113.5t-105.5 42.5q-68 0 -112 -44t-44 -112v-300
q0 -6 -4.5 -10.5t-10.5 -4.5t-10.5 4.5t-4.5 10.5v470q0 6 4.5 10.5t10.5 4.5t10.5 -4.5t4.5 -10.5v-72q49 87 157 87z" />
    <glyph glyph-name="Ncommaaccent" unicode="&#x145;" horiz-adv-x="704" 
d="M585 670q16 0 16 -17v-646q0 -17 -16 -17q-7 0 -13 7l-437 606v-596q0 -17 -16 -17t-16 17v646q0 17 16 17q7 0 13 -7l437 -606v596q0 17 16 17zM353 -48q6 0 10.5 -4.5t4.5 -10.5q-1 -57 -18 -143q-3 -14 -13 -14q-6 0 -10 4.5t-2 11.5q13 47 13 141q0 6 4.5 10.5
t10.5 4.5z" />
    <glyph glyph-name="ncommaaccent" unicode="&#x146;" horiz-adv-x="551" 
d="M286 490q80 0 127 -50t47 -135v-300q0 -6 -4.5 -10.5t-10.5 -4.5t-10.5 4.5t-4.5 10.5v300q0 71 -39.5 113.5t-105.5 42.5q-68 0 -112 -44t-44 -112v-300q0 -6 -4.5 -10.5t-10.5 -4.5t-10.5 4.5t-4.5 10.5v470q0 6 4.5 10.5t10.5 4.5t10.5 -4.5t4.5 -10.5v-72
q49 87 157 87zM285 -48q6 0 10.5 -4.5t4.5 -10.5q-1 -57 -18 -143q-3 -14 -13 -14q-6 0 -10 4.5t-2 11.5q13 47 13 141q0 6 4.5 10.5t10.5 4.5z" />
    <glyph glyph-name="Ncaron" unicode="&#x147;" horiz-adv-x="704" 
d="M340 729l-138 146q-5 5 -5 10q0 14 14 14q5 0 11 -6l129 -132l129 132q6 6 11 6q14 0 14 -14q0 -5 -5 -10l-138 -146q-5 -5 -11 -5t-11 5zM585 670q16 0 16 -17v-646q0 -17 -16 -17q-7 0 -13 7l-437 606v-596q0 -17 -16 -17t-16 17v646q0 17 16 17q7 0 13 -7l437 -606
v596q0 17 16 17z" />
    <glyph glyph-name="ncaron" unicode="&#x148;" horiz-adv-x="551" 
d="M272 567l-125 187q-4 5 -4 11q0 11 12 11q7 0 11 -6l118 -173l118 173q4 6 11 6q12 0 12 -11q0 -6 -4 -11l-125 -187q-4 -6 -12 -6t-12 6zM286 490q80 0 127 -50t47 -135v-300q0 -6 -4.5 -10.5t-10.5 -4.5t-10.5 4.5t-4.5 10.5v300q0 71 -39.5 113.5t-105.5 42.5
q-68 0 -112 -44t-44 -112v-300q0 -6 -4.5 -10.5t-10.5 -4.5t-10.5 4.5t-4.5 10.5v470q0 6 4.5 10.5t10.5 4.5t10.5 -4.5t4.5 -10.5v-72q49 87 157 87z" />
    <glyph glyph-name="Eng" unicode="&#x14a;" horiz-adv-x="704" 
d="M585 670q16 0 16 -17v-708q0 -65 -35 -100t-101 -35q-24 0 -39 3q-16 3 -16 16q0 14 16 14q3 0 16 -1.5t21 -1.5q106 0 106 105v56l-434 602v-596q0 -17 -16 -17t-16 17v646q0 17 16 17q7 0 13 -7l437 -606v596q0 17 16 17z" />
    <glyph glyph-name="eng" unicode="&#x14b;" horiz-adv-x="551" 
d="M286 490q80 0 127 -50t47 -135v-360q0 -65 -35 -100t-101 -35q-24 0 -40 4q-14 4 -14 15q0 13 14 13q2 0 15 -2t23 -2q108 0 108 107v360q0 71 -39.5 113.5t-105.5 42.5q-68 0 -112 -44t-44 -112v-300q0 -6 -4.5 -10.5t-10.5 -4.5t-10.5 4.5t-4.5 10.5v470q0 6 4.5 10.5
t10.5 4.5t10.5 -4.5t4.5 -10.5v-72q49 87 157 87z" />
    <glyph glyph-name="Omacron" unicode="&#x14c;" horiz-adv-x="784" 
d="M514 810q14 0 14 -14t-14 -14h-244q-14 0 -14 14t14 14h244zM391 670q141 0 238.5 -98.5t97.5 -241.5t-97.5 -241.5t-238.5 -98.5q-140 0 -237 98.5t-97 241.5t96.5 241.5t237.5 98.5zM392 639q-128 0 -214.5 -88.5t-86.5 -219.5q0 -132 86.5 -221t214.5 -89
q127 0 214 89.5t87 220.5q0 130 -86.5 219t-214.5 89z" />
    <glyph glyph-name="omacron" unicode="&#x14d;" horiz-adv-x="613" 
d="M421 680q14 0 14 -14t-14 -14h-228q-14 0 -14 14t14 14h228zM306 490q104 0 175.5 -72.5t71.5 -177.5t-72 -177.5t-176 -72.5q-103 0 -174 72.5t-71 177.5q0 106 71 178t175 72zM306 461q-91 0 -152.5 -63.5t-61.5 -157.5t61 -157.5t152 -63.5t153.5 64t62.5 157
q0 94 -62 157.5t-153 63.5z" />
    <glyph glyph-name="Obreve" unicode="&#x14e;" horiz-adv-x="784" 
d="M392 747q-55 0 -94.5 35.5t-39.5 84.5q0 18 15 18t15 -18q2 -38 32 -65t72 -27t72.5 27t31.5 65q0 18 15 18t15 -18q0 -49 -39.5 -84.5t-94.5 -35.5zM391 670q141 0 238.5 -98.5t97.5 -241.5t-97.5 -241.5t-238.5 -98.5q-140 0 -237 98.5t-97 241.5t96.5 241.5
t237.5 98.5zM392 639q-128 0 -214.5 -88.5t-86.5 -219.5q0 -132 86.5 -221t214.5 -89q127 0 214 89.5t87 220.5q0 130 -86.5 219t-214.5 89z" />
    <glyph glyph-name="obreve" unicode="&#x14f;" horiz-adv-x="613" 
d="M307 593q-57 0 -96 38.5t-39 95.5q0 17 15 17t15 -17q0 -45 30.5 -75.5t74.5 -30.5t74.5 30.5t30.5 75.5q0 17 15 17t15 -17q0 -56 -39 -95t-96 -39zM306 490q104 0 175.5 -72.5t71.5 -177.5t-72 -177.5t-176 -72.5q-103 0 -174 72.5t-71 177.5q0 106 71 178t175 72z
M306 461q-91 0 -152.5 -63.5t-61.5 -157.5t61 -157.5t152 -63.5t153.5 64t62.5 157q0 94 -62 157.5t-153 63.5z" />
    <glyph glyph-name="Ohungarumlaut" unicode="&#x150;" horiz-adv-x="784" 
d="M335 728q-6 0 -10.5 6t-0.5 12l82 158q4 9 14 9q9 0 12.5 -7t-1.5 -17l-84 -153q-5 -8 -12 -8zM489 728q-6 0 -10.5 6t-0.5 12l82 158q4 9 14 9q9 0 12.5 -7t-1.5 -17l-84 -153q-5 -8 -12 -8zM391 670q141 0 238.5 -98.5t97.5 -241.5t-97.5 -241.5t-238.5 -98.5
q-140 0 -237 98.5t-97 241.5t96.5 241.5t237.5 98.5zM392 639q-128 0 -214.5 -88.5t-86.5 -219.5q0 -132 86.5 -221t214.5 -89q127 0 214 89.5t87 220.5q0 130 -86.5 219t-214.5 89z" />
    <glyph glyph-name="ohungarumlaut" unicode="&#x151;" horiz-adv-x="613" 
d="M247 561q-12 0 -12 12q0 4 2 8l84 184q5 11 16 11q6 0 10 -4t4 -9q0 -4 -4 -14l-86 -176q-6 -12 -14 -12zM381 561q-12 0 -12 12q0 4 2 8l84 184q5 11 16 11q6 0 10 -4t4 -9q0 -4 -4 -14l-86 -176q-6 -12 -14 -12zM306 490q104 0 175.5 -72.5t71.5 -177.5t-72 -177.5
t-176 -72.5q-103 0 -174 72.5t-71 177.5q0 106 71 178t175 72zM306 461q-91 0 -152.5 -63.5t-61.5 -157.5t61 -157.5t152 -63.5t153.5 64t62.5 157q0 94 -62 157.5t-153 63.5z" />
    <glyph glyph-name="OE" unicode="&#x152;" horiz-adv-x="1151" 
d="M1098 29q15 0 15 -14q0 -6 -4.5 -10.5t-10.5 -4.5h-388q-17 0 -17 17v172q-34 -89 -117 -144t-185 -55q-140 0 -237 98.5t-97 241.5t96.5 241.5t237.5 98.5q102 0 185 -55t117 -144v172q0 17 17 17h376q15 0 15 -14q0 -6 -4.5 -10.5t-10.5 -4.5h-361v-257h281
q15 0 15 -14q0 -6 -4.5 -10.5t-10.5 -4.5h-281v-316h373zM392 21q128 0 214.5 89t86.5 221q0 131 -86.5 219.5t-214.5 88.5t-214.5 -88.5t-86.5 -219.5q0 -132 86.5 -221t214.5 -89z" />
    <glyph glyph-name="oe" unicode="&#x153;" horiz-adv-x="1014" 
d="M739 490q94 0 154.5 -61t60.5 -155v-16q0 -21 -19 -21h-392q1 -95 58.5 -156.5t145.5 -61.5q99 0 162 74q7 8 13 8q14 0 14 -13q0 -7 -7 -15q-68 -83 -182 -83q-76 0 -135.5 43t-84.5 114q-26 -71 -86 -114t-136 -43q-102 0 -173.5 73t-71.5 177t71.5 177t174.5 73
q76 0 135 -42.5t85 -113.5q25 71 82.5 113.5t130.5 42.5zM305 19q89 0 147.5 63t58.5 158q0 96 -58 158.5t-147 62.5q-91 0 -152.5 -63.5t-61.5 -157.5q0 -93 61.5 -157t151.5 -64zM739 461q-78 0 -132.5 -55t-62.5 -141h379q3 84 -49 140t-135 56z" />
    <glyph glyph-name="Racute" unicode="&#x154;" horiz-adv-x="608" 
d="M272 728q-6 0 -10.5 6t-0.5 12l82 158q5 9 14 9t12.5 -7t-1.5 -17l-84 -153q-5 -8 -12 -8zM574 17q5 -7 5 -12q0 -15 -16 -15q-9 0 -15 9l-236 312h-177v-305q0 -16 -16 -16t-16 16v638q0 16 16 16h203q86 0 138 -47.5t52 -126.5q0 -72 -43.5 -118.5t-117.5 -54.5z
M135 631v-291h185q73 0 116 39t43 106t-42.5 106.5t-116.5 39.5h-185z" />
    <glyph glyph-name="racute" unicode="&#x155;" horiz-adv-x="341" 
d="M152 561q-12 0 -12 12q0 4 2 8l84 184q5 11 16 11q6 0 10 -4t4 -9q0 -4 -4 -14l-86 -176q-6 -12 -14 -12zM310 484q17 0 17 -14q0 -15 -17 -15q-78 0 -129.5 -49.5t-51.5 -125.5v-275q0 -6 -4.5 -10.5t-10.5 -4.5t-10.5 4.5t-4.5 10.5v470q0 6 4.5 10.5t10.5 4.5
t10.5 -4.5t4.5 -10.5v-92q51 101 181 101z" />
    <glyph glyph-name="Rcommaaccent" unicode="&#x156;" horiz-adv-x="608" 
d="M574 17q5 -7 5 -12q0 -15 -16 -15q-9 0 -15 9l-236 312h-177v-305q0 -16 -16 -16t-16 16v638q0 16 16 16h203q86 0 138 -47.5t52 -126.5q0 -72 -43.5 -118.5t-117.5 -54.5zM135 631v-291h185q73 0 116 39t43 106t-42.5 106.5t-116.5 39.5h-185zM295 -48q6 0 10.5 -4.5
t4.5 -10.5q-1 -57 -18 -143q-3 -14 -13 -14q-6 0 -10 4.5t-2 11.5q13 47 13 141q0 6 4.5 10.5t10.5 4.5z" />
    <glyph glyph-name="rcommaaccent" unicode="&#x157;" horiz-adv-x="341" 
d="M310 484q17 0 17 -14q0 -15 -17 -15q-78 0 -129.5 -49.5t-51.5 -125.5v-275q0 -6 -4.5 -10.5t-10.5 -4.5t-10.5 4.5t-4.5 10.5v470q0 6 4.5 10.5t10.5 4.5t10.5 -4.5t4.5 -10.5v-92q51 101 181 101zM115 -48q6 0 10.5 -4.5t4.5 -10.5q-1 -57 -18 -143q-3 -14 -13 -14
q-6 0 -10 4.5t-2 11.5q13 47 13 141q0 6 4.5 10.5t10.5 4.5z" />
    <glyph glyph-name="Rcaron" unicode="&#x158;" horiz-adv-x="608" 
d="M252 729l-138 146q-5 5 -5 10q0 14 14 14q5 0 11 -6l129 -132l129 132q6 6 11 6q14 0 14 -14q0 -5 -5 -10l-138 -146q-5 -5 -11 -5t-11 5zM574 17q5 -7 5 -12q0 -15 -16 -15q-9 0 -15 9l-236 312h-177v-305q0 -16 -16 -16t-16 16v638q0 16 16 16h203q86 0 138 -47.5
t52 -126.5q0 -72 -43.5 -118.5t-117.5 -54.5zM135 631v-291h185q73 0 116 39t43 106t-42.5 106.5t-116.5 39.5h-185z" />
    <glyph glyph-name="rcaron" unicode="&#x159;" horiz-adv-x="341" 
d="M147 561q-7 0 -12 6l-125 187q-4 5 -4 11q0 11 12 11q7 0 11 -6l118 -173l118 173q4 6 11 6q12 0 12 -11q0 -6 -4 -11l-125 -187q-5 -6 -12 -6zM310 484q17 0 17 -14q0 -15 -17 -15q-78 0 -129.5 -49.5t-51.5 -125.5v-275q0 -6 -4.5 -10.5t-10.5 -4.5t-10.5 4.5
t-4.5 10.5v470q0 6 4.5 10.5t10.5 4.5t10.5 -4.5t4.5 -10.5v-92q51 101 181 101z" />
    <glyph glyph-name="Sacute" unicode="&#x15a;" horiz-adv-x="555" 
d="M291 728q-6 0 -10.5 6t-0.5 12l82 158q4 9 14 9q9 0 12.5 -7t-1.5 -17l-84 -153q-5 -8 -12 -8zM283 -10q-139 0 -224 126q-4 6 -4 12q0 14 15 14q8 0 15 -10q74 -111 199 -111q74 0 118.5 38t44.5 100q0 52 -27 83t-104 68l-76 36q-79 37 -111 75t-32 93q0 73 53.5 114.5
t132.5 41.5q112 0 180 -85q5 -6 5 -13q0 -5 -4 -9.5t-10 -4.5q-8 0 -14 8q-61 73 -155 73q-62 0 -108 -30t-46 -93q0 -47 26.5 -77.5t97.5 -64.5l76 -36q84 -41 117 -80t33 -99q0 -74 -55.5 -121.5t-142.5 -47.5z" />
    <glyph glyph-name="sacute" unicode="&#x15b;" horiz-adv-x="455" 
d="M237 561q-12 0 -12 12q0 4 2 8l84 184q5 11 16 11q6 0 10 -4t4 -9q0 -4 -4 -14l-86 -176q-6 -12 -14 -12zM232 -10q-56 0 -102 27t-75 72q-4 6 -4 11q0 6 4.5 11t11.5 5t13 -7q62 -90 154 -90q51 0 85.5 25t34.5 72q0 23 -8 40t-26.5 30.5t-32 21t-42.5 20.5l-42 19
q-27 12 -43.5 21t-36 24t-28.5 34.5t-9 44.5q0 54 43.5 86.5t102.5 32.5q84 0 142 -67q8 -10 8 -14q0 -6 -4 -11t-10 -5q-7 0 -15 9q-51 59 -123 59q-46 0 -79 -22.5t-33 -66.5q0 -26 15 -45t32 -28t54 -26l45 -20q59 -27 90.5 -56t31.5 -79q0 -60 -45 -94t-109 -34z" />
    <glyph glyph-name="Scircumflex" unicode="&#x15c;" horiz-adv-x="555" 
d="M142 724q-14 0 -14 14q0 5 5 10l138 146q5 5 11 5t11 -5l138 -146q5 -5 5 -10q0 -14 -14 -14q-5 0 -11 6l-129 132l-129 -132q-6 -6 -11 -6zM331 338q84 -41 117 -80t33 -99q0 -74 -55.5 -121.5t-142.5 -47.5q-139 0 -224 126q-4 6 -4 12q0 14 15 14q8 0 15 -10
q74 -111 199 -111q74 0 118.5 38t44.5 100q0 52 -27 83t-104 68l-76 36q-79 37 -111 75t-32 93q0 73 53.5 114.5t132.5 41.5q112 0 180 -85q5 -6 5 -13q0 -5 -4 -9.5t-10 -4.5q-8 0 -14 8q-61 73 -155 73q-62 0 -108 -30t-46 -93q0 -47 26.5 -77.5t97.5 -64.5z" />
    <glyph glyph-name="scircumflex" unicode="&#x15d;" horiz-adv-x="455" 
d="M103 561q-12 0 -12 11q0 6 4 11l125 187q4 6 12 6t12 -6l125 -187q4 -5 4 -11q0 -11 -12 -11q-7 0 -11 6l-118 173l-118 -173q-4 -6 -11 -6zM264 253q59 -27 90.5 -56t31.5 -79q0 -60 -45 -94t-109 -34q-56 0 -102 27t-75 72q-4 6 -4 11q0 6 4.5 11t11.5 5t13 -7
q62 -90 154 -90q51 0 85.5 25t34.5 72q0 23 -8 40t-26.5 30.5t-32 21t-42.5 20.5l-42 19q-27 12 -43.5 21t-36 24t-28.5 34.5t-9 44.5q0 54 43.5 86.5t102.5 32.5q84 0 142 -67q8 -10 8 -14q0 -6 -4 -11t-10 -5q-7 0 -15 9q-51 59 -123 59q-46 0 -79 -22.5t-33 -66.5
q0 -26 15 -45t32 -28t54 -26z" />
    <glyph glyph-name="Scedilla" unicode="&#x15e;" horiz-adv-x="555" 
d="M481 159q0 -66 -45 -111.5t-117 -55.5q30 -34 30 -79t-31.5 -74t-80.5 -29q-30 0 -51 6q-16 4 -16 15q0 14 14 14q2 0 18 -3.5t32 -3.5q38 0 60.5 21t22.5 56q0 50 -39 75q-136 2 -219 126q-4 6 -4 12q0 14 15 14q8 0 15 -10q74 -111 199 -111q74 0 118.5 38t44.5 100
q0 52 -27 83t-104 68l-76 36q-79 37 -111 75t-32 93q0 73 53.5 114.5t132.5 41.5q112 0 180 -85q5 -6 5 -13q0 -5 -4 -9.5t-10 -4.5q-8 0 -14 8q-61 73 -155 73q-62 0 -108 -30t-46 -93q0 -47 26.5 -77.5t97.5 -64.5l76 -36q84 -41 117 -80t33 -99z" />
    <glyph glyph-name="scedilla" unicode="&#x15f;" horiz-adv-x="455" 
d="M386 118q0 -50 -32 -82t-82 -42q32 -36 32 -81t-31.5 -74t-80.5 -29q-30 0 -51 6q-16 4 -16 15q0 14 14 14q2 0 18 -3.5t32 -3.5q38 0 60.5 21t22.5 56q0 49 -38 75h-2q-56 0 -102 27t-75 72q-4 6 -4 11q0 6 4.5 11t11.5 5t13 -7q62 -90 154 -90q51 0 85.5 25t34.5 72
q0 23 -8 40t-26.5 30.5t-32 21t-42.5 20.5l-42 19q-27 12 -43.5 21t-36 24t-28.5 34.5t-9 44.5q0 54 43.5 86.5t102.5 32.5q84 0 142 -67q8 -10 8 -14q0 -6 -4 -11t-10 -5q-7 0 -15 9q-51 59 -123 59q-46 0 -79 -22.5t-33 -66.5q0 -26 15 -45t32 -28t54 -26l45 -20
q59 -27 90.5 -56t31.5 -79z" />
    <glyph glyph-name="Scaron" unicode="&#x160;" horiz-adv-x="555" 
d="M271 729l-138 146q-5 5 -5 10q0 14 14 14q5 0 11 -6l129 -132l129 132q6 6 11 6q14 0 14 -14q0 -5 -5 -10l-138 -146q-5 -5 -11 -5t-11 5zM331 338q84 -41 117 -80t33 -99q0 -74 -55.5 -121.5t-142.5 -47.5q-139 0 -224 126q-4 6 -4 12q0 14 15 14q8 0 15 -10
q74 -111 199 -111q74 0 118.5 38t44.5 100q0 52 -27 83t-104 68l-76 36q-79 37 -111 75t-32 93q0 73 53.5 114.5t132.5 41.5q112 0 180 -85q5 -6 5 -13q0 -5 -4 -9.5t-10 -4.5q-8 0 -14 8q-61 73 -155 73q-62 0 -108 -30t-46 -93q0 -47 26.5 -77.5t97.5 -64.5z" />
    <glyph glyph-name="scaron" unicode="&#x161;" horiz-adv-x="455" 
d="M220 567l-125 187q-4 5 -4 11q0 11 12 11q7 0 11 -6l118 -173l118 173q4 6 11 6q12 0 12 -11q0 -6 -4 -11l-125 -187q-4 -6 -12 -6t-12 6zM264 253q59 -27 90.5 -56t31.5 -79q0 -60 -45 -94t-109 -34q-56 0 -102 27t-75 72q-4 6 -4 11q0 6 4.5 11t11.5 5t13 -7
q62 -90 154 -90q51 0 85.5 25t34.5 72q0 23 -8 40t-26.5 30.5t-32 21t-42.5 20.5l-42 19q-27 12 -43.5 21t-36 24t-28.5 34.5t-9 44.5q0 54 43.5 86.5t102.5 32.5q84 0 142 -67q8 -10 8 -14q0 -6 -4 -11t-10 -5q-7 0 -15 9q-51 59 -123 59q-46 0 -79 -22.5t-33 -66.5
q0 -26 15 -45t32 -28t54 -26z" />
    <glyph glyph-name="uni0162" unicode="&#x162;" horiz-adv-x="584" 
d="M544 660q15 0 15 -14q0 -6 -4.5 -10.5t-10.5 -4.5h-236v-612h3q19 0 45 -32t26 -74q0 -45 -31.5 -74t-80.5 -29q-30 0 -51 6q-16 4 -16 15q0 14 14 14q2 0 18 -3.5t32 -3.5q38 0 60.5 21t22.5 56q0 50 -40 76q-1 1 -4 3l-2 1q-5 -5 -12 -5q-16 0 -16 17v624h-236
q-6 0 -10.5 4.5t-4.5 10.5q0 14 15 14h504z" />
    <glyph glyph-name="uni0163" unicode="&#x163;" horiz-adv-x="350" 
d="M313 25q14 0 14 -13q0 -11 -16 -15q-28 -7 -59 -7q28 -35 28 -77q0 -45 -31.5 -74t-80.5 -29q-30 0 -51 6q-16 4 -16 15q0 14 14 14q2 0 18 -3.5t32 -3.5q38 0 60.5 21t22.5 56q0 50 -40 76q-8 6 -9 7q-82 25 -82 127v327h-73q-15 0 -15 14t15 14h73v129q0 15 15 15
q6 0 10.5 -4.5t4.5 -10.5v-129h147q15 0 15 -14t-15 -14h-147v-327q0 -107 107 -107q18 0 37.5 3.5t21.5 3.5z" />
    <glyph glyph-name="Tcaron" unicode="&#x164;" horiz-adv-x="584" 
d="M280 729l-138 146q-5 5 -5 10q0 14 14 14q5 0 11 -6l129 -132l129 132q6 6 11 6q14 0 14 -14q0 -5 -5 -10l-138 -146q-5 -5 -11 -5t-11 5zM544 660q15 0 15 -14q0 -6 -4.5 -10.5t-10.5 -4.5h-236v-624q0 -17 -16 -17t-16 17v624h-236q-6 0 -10.5 4.5t-4.5 10.5
q0 14 15 14h504z" />
    <glyph glyph-name="tcaron" unicode="&#x165;" horiz-adv-x="350" 
d="M267 530q-6 0 -10 4.5t-3 10.5l24 198q3 17 16 17q6 0 11 -5t4 -12l-30 -202q-2 -11 -12 -11zM313 25q14 0 14 -13q0 -11 -16 -15q-28 -7 -59 -7q-64 0 -99.5 35t-35.5 100v327h-73q-15 0 -15 14t15 14h73v129q0 15 15 15q6 0 10.5 -4.5t4.5 -10.5v-129h147q15 0 15 -14
t-15 -14h-147v-327q0 -107 107 -107q18 0 37.5 3.5t21.5 3.5z" />
    <glyph glyph-name="Tbar" unicode="&#x166;" horiz-adv-x="584" 
d="M292 -10q-16 0 -16 17v279h-197q-15 0 -15 14t15 14h197v317h-236q-6 0 -10.5 4.5t-4.5 10.5q0 14 15 14h504q15 0 15 -14q0 -6 -4.5 -10.5t-10.5 -4.5h-236v-317h197q15 0 15 -14t-15 -14h-197v-279q0 -17 -16 -17z" />
    <glyph glyph-name="tbar" unicode="&#x167;" horiz-adv-x="364" 
d="M323 25q14 0 14 -13q0 -11 -16 -15q-28 -7 -59 -7q-64 0 -99.5 35t-35.5 100v111h-75q-14 0 -14 14t14 14h75v188h-75q-14 0 -14 14t14 14h75v129q0 15 15 15q6 0 10.5 -4.5t4.5 -10.5v-129h147q14 0 14 -14t-14 -14h-147v-188h147q14 0 14 -14t-14 -14h-147v-111
q0 -107 107 -107q18 0 37.5 3.5t21.5 3.5z" />
    <glyph glyph-name="Utilde" unicode="&#x168;" horiz-adv-x="678" 
d="M217 761q-15 0 -15 18q0 35 17 57t44 22q26 0 67 -29l37 -26q30 -21 45 -21q34 0 34 51q0 18 15 18t15 -18q0 -35 -17 -57t-44 -22q-25 0 -66 29l-37 26q-30 21 -46 21q-34 0 -34 -51q0 -18 -15 -18zM340 -10q-115 0 -181.5 70.5t-66.5 191.5v401q0 17 16 17t16 -17v-401
q0 -107 58 -169t158 -62q99 0 156.5 62t57.5 169v401q0 17 16 17t16 -17v-401q0 -121 -66.5 -191.5t-179.5 -70.5z" />
    <glyph glyph-name="utilde" unicode="&#x169;" horiz-adv-x="543" 
d="M339 609q-34 0 -63 33l-25 27q-24 25 -43 25q-34 0 -34 -51q0 -18 -15 -18t-15 18q0 35 17 57t44 22q34 0 63 -33l25 -27q24 -25 43 -25q34 0 34 51q0 18 15 18t15 -18q0 -35 -17 -57t-44 -22zM272 -10q-79 0 -130 52t-51 133v300q0 6 4.5 10.5t10.5 4.5t10.5 -4.5
t4.5 -10.5v-300q0 -70 41.5 -113t109.5 -43q67 0 108.5 43t41.5 113v300q0 15 15 15q6 0 10.5 -4.5t4.5 -10.5v-300q0 -81 -50.5 -133t-129.5 -52z" />
    <glyph glyph-name="Umacron" unicode="&#x16a;" horiz-adv-x="678" 
d="M461 810q14 0 14 -14t-14 -14h-244q-14 0 -14 14t14 14h244zM340 -10q-115 0 -181.5 70.5t-66.5 191.5v401q0 17 16 17t16 -17v-401q0 -107 58 -169t158 -62q99 0 156.5 62t57.5 169v401q0 17 16 17t16 -17v-401q0 -121 -66.5 -191.5t-179.5 -70.5z" />
    <glyph glyph-name="umacron" unicode="&#x16b;" horiz-adv-x="543" 
d="M386 680q14 0 14 -14t-14 -14h-228q-14 0 -14 14t14 14h228zM272 -10q-79 0 -130 52t-51 133v300q0 6 4.5 10.5t10.5 4.5t10.5 -4.5t4.5 -10.5v-300q0 -70 41.5 -113t109.5 -43q67 0 108.5 43t41.5 113v300q0 15 15 15q6 0 10.5 -4.5t4.5 -10.5v-300q0 -81 -50.5 -133
t-129.5 -52z" />
    <glyph glyph-name="Ubreve" unicode="&#x16c;" horiz-adv-x="678" 
d="M339 747q-55 0 -94.5 35.5t-39.5 84.5q0 18 15 18t15 -18q2 -38 32 -65t72 -27t72.5 27t31.5 65q0 18 15 18t15 -18q0 -49 -39.5 -84.5t-94.5 -35.5zM340 -10q-115 0 -181.5 70.5t-66.5 191.5v401q0 17 16 17t16 -17v-401q0 -107 58 -169t158 -62q99 0 156.5 62t57.5 169
v401q0 17 16 17t16 -17v-401q0 -121 -66.5 -191.5t-179.5 -70.5z" />
    <glyph glyph-name="ubreve" unicode="&#x16d;" horiz-adv-x="543" 
d="M272 593q-57 0 -96 38.5t-39 95.5q0 17 15 17t15 -17q0 -45 30.5 -75.5t74.5 -30.5t74.5 30.5t30.5 75.5q0 17 15 17t15 -17q0 -56 -39 -95t-96 -39zM272 -10q-79 0 -130 52t-51 133v300q0 6 4.5 10.5t10.5 4.5t10.5 -4.5t4.5 -10.5v-300q0 -70 41.5 -113t109.5 -43
q67 0 108.5 43t41.5 113v300q0 15 15 15q6 0 10.5 -4.5t4.5 -10.5v-300q0 -81 -50.5 -133t-129.5 -52z" />
    <glyph glyph-name="Uring" unicode="&#x16e;" horiz-adv-x="678" 
d="M339 910q41 0 69.5 -28.5t28.5 -68.5t-28.5 -68.5t-69.5 -28.5t-69.5 28.5t-28.5 68.5t28.5 68.5t69.5 28.5zM339 882q-29 0 -48.5 -20t-19.5 -49t19.5 -49t48.5 -20t48.5 20t19.5 49t-19.5 49t-48.5 20zM340 -10q-115 0 -181.5 70.5t-66.5 191.5v401q0 17 16 17t16 -17
v-401q0 -107 58 -169t158 -62q99 0 156.5 62t57.5 169v401q0 17 16 17t16 -17v-401q0 -121 -66.5 -191.5t-179.5 -70.5z" />
    <glyph glyph-name="uring" unicode="&#x16f;" horiz-adv-x="543" 
d="M272 763q41 0 69.5 -28.5t28.5 -68.5t-28.5 -68.5t-69.5 -28.5t-69.5 28.5t-28.5 68.5t28.5 68.5t69.5 28.5zM272 735q-29 0 -48.5 -20t-19.5 -49t19.5 -49t48.5 -20t48.5 20t19.5 49t-19.5 49t-48.5 20zM272 -10q-79 0 -130 52t-51 133v300q0 6 4.5 10.5t10.5 4.5
t10.5 -4.5t4.5 -10.5v-300q0 -70 41.5 -113t109.5 -43q67 0 108.5 43t41.5 113v300q0 15 15 15q6 0 10.5 -4.5t4.5 -10.5v-300q0 -81 -50.5 -133t-129.5 -52z" />
    <glyph glyph-name="Uhungarumlaut" unicode="&#x170;" horiz-adv-x="678" 
d="M282 728q-6 0 -10.5 6t-0.5 12l82 158q5 9 14 9t12.5 -7t-1.5 -17l-84 -153q-5 -8 -12 -8zM436 728q-6 0 -10.5 6t-0.5 12l82 158q5 9 14 9t12.5 -7t-1.5 -17l-84 -153q-5 -8 -12 -8zM340 -10q-115 0 -181.5 70.5t-66.5 191.5v401q0 17 16 17t16 -17v-401q0 -107 58 -169
t158 -62q99 0 156.5 62t57.5 169v401q0 17 16 17t16 -17v-401q0 -121 -66.5 -191.5t-179.5 -70.5z" />
    <glyph glyph-name="uhungarumlaut" unicode="&#x171;" horiz-adv-x="543" 
d="M212 561q-12 0 -12 12q0 4 2 8l84 184q5 11 16 11q6 0 10 -4t4 -9q0 -4 -4 -14l-86 -176q-6 -12 -14 -12zM346 561q-12 0 -12 12q0 4 2 8l84 184q5 11 16 11q6 0 10 -4t4 -9q0 -4 -4 -14l-86 -176q-6 -12 -14 -12zM272 -10q-79 0 -130 52t-51 133v300q0 6 4.5 10.5
t10.5 4.5t10.5 -4.5t4.5 -10.5v-300q0 -70 41.5 -113t109.5 -43q67 0 108.5 43t41.5 113v300q0 15 15 15q6 0 10.5 -4.5t4.5 -10.5v-300q0 -81 -50.5 -133t-129.5 -52z" />
    <glyph glyph-name="Uogonek" unicode="&#x172;" horiz-adv-x="678" 
d="M432 -190q-42 0 -68.5 21t-26.5 54q0 60 93 124q-40 -19 -90 -19q-115 0 -181.5 70.5t-66.5 191.5v401q0 17 16 17t16 -17v-401q0 -107 58 -169t158 -62q97 0 155.5 63t58.5 168v401q0 17 16 17t16 -17v-401q0 -129 -82 -205l-40 -37q-7 -7 -28.5 -26t-28 -26.5
l-18.5 -21.5t-16.5 -25t-4.5 -23q0 -23 17.5 -36.5t46.5 -13.5q16 0 33 3t18 3q13 0 13 -12q0 -10 -16 -15q-21 -7 -48 -7z" />
    <glyph glyph-name="uogonek" unicode="&#x173;" horiz-adv-x="543" 
d="M437 490q6 0 10.5 -4.5t4.5 -10.5v-300q0 -104 -78 -156l-34 -26q-82 -64 -82 -105q0 -23 17.5 -36.5t46.5 -13.5q16 0 33 3t18 3q12 0 12 -13q0 -9 -15 -14q-22 -7 -48 -7q-40 0 -67.5 20t-27.5 55q0 48 71 107q-16 -2 -26 -2q-79 0 -130 52t-51 133v300q0 6 4.5 10.5
t10.5 4.5t10.5 -4.5t4.5 -10.5v-300q0 -70 41.5 -113t109.5 -43q67 0 108.5 43t41.5 113v300q0 15 15 15z" />
    <glyph glyph-name="Wcircumflex" unicode="&#x174;" horiz-adv-x="1077" 
d="M398 724q-14 0 -14 14q0 5 5 10l138 146q5 5 11 5t11 -5l138 -146q5 -5 5 -10q0 -14 -14 -14q-5 0 -11 6l-129 132l-129 -132q-6 -6 -11 -6zM1004 670q6 0 10.5 -4.5t4.5 -9.5q0 -4 -2 -10l-225 -643q-5 -13 -18 -13q-12 0 -17 13l-219 614l-218 -613q-5 -14 -17 -14
q-13 0 -18 14l-225 642q-2 6 -2 10q0 14 15 14q12 0 16 -13l214 -623l220 623q4 13 16 13q10 0 15 -13l220 -623l214 623q4 13 16 13z" />
    <glyph glyph-name="wcircumflex" unicode="&#x175;" horiz-adv-x="840" 
d="M292 561q-12 0 -12 11q0 6 4 11l125 187q5 6 12 6t12 -6l125 -187q4 -5 4 -11q0 -11 -12 -11q-7 0 -11 6l-118 173l-118 -173q-4 -6 -11 -6zM786 490q6 0 10.5 -4.5t4.5 -10.5q0 -4 -2 -9l-174 -466q-4 -10 -15 -10q-10 0 -15 10l-175 429l-175 -429q-5 -10 -15 -10
q-11 0 -15 10l-174 466q-2 5 -2 9q0 6 4.5 10.5t10.5 4.5q11 0 15 -11l160 -441l176 441q5 11 15 11t15 -11l176 -441l160 441q4 11 15 11z" />
    <glyph glyph-name="Ycircumflex" unicode="&#x176;" horiz-adv-x="610" 
d="M164 724q-14 0 -14 14q0 5 5 10l138 146q5 5 11 5t11 -5l138 -146q5 -5 5 -10q0 -14 -14 -14q-5 0 -11 6l-129 132l-129 -132q-6 -6 -11 -6zM546 656q0 -4 -5 -12l-220 -359v-278q0 -17 -16 -17t-16 17v279l-220 357q-5 7 -5 13q0 14 15 14q8 0 13 -8l213 -349l213 349
q5 8 13 8q15 0 15 -14z" />
    <glyph glyph-name="ycircumflex" unicode="&#x177;" horiz-adv-x="519" 
d="M130 561q-12 0 -12 11q0 6 4 11l125 187q5 6 12 6t12 -6l125 -187q4 -5 4 -11q0 -11 -12 -11q-7 0 -11 6l-118 173l-118 -173q-4 -6 -11 -6zM466 490q6 0 10.5 -4.5t4.5 -10.5q0 -3 -2 -8l-236 -548q-48 -109 -152 -109q-25 0 -44 6q-13 3 -13 14q0 14 14 14q2 0 17 -3
t24 -3q88 0 128 94l31 73l-205 462l-2 8q0 6 4.5 10.5t10.5 4.5q12 0 16 -12l192 -437l186 437q4 12 16 12z" />
    <glyph glyph-name="Ydieresis" unicode="&#x178;" horiz-adv-x="610" 
d="M194 773q-14 0 -23.5 9.5t-9.5 23.5t9.5 23.5t23.5 9.5t23.5 -9.5t9.5 -23.5t-9.5 -23.5t-23.5 -9.5zM415 773q-14 0 -23.5 9.5t-9.5 23.5t9.5 23.5t23.5 9.5t23.5 -9.5t9.5 -23.5t-9.5 -23.5t-23.5 -9.5zM546 656q0 -4 -5 -12l-220 -359v-278q0 -17 -16 -17t-16 17v279
l-220 357q-5 7 -5 13q0 14 15 14q8 0 13 -8l213 -349l213 349q5 8 13 8q15 0 15 -14z" />
    <glyph glyph-name="Zacute" unicode="&#x179;" horiz-adv-x="590" 
d="M306 728q-6 0 -10.5 6t-0.5 12l82 158q5 9 14 9t12.5 -7t-1.5 -17l-84 -153q-5 -8 -12 -8zM537 29q15 0 15 -14q0 -6 -4.5 -10.5t-10.5 -4.5h-480q-15 0 -15 13q0 7 5 13l458 605h-406q-6 0 -10.5 4.5t-4.5 10.5q0 14 15 14h435q15 0 15 -14q0 -4 -6 -12l-456 -605h450z
" />
    <glyph glyph-name="zacute" unicode="&#x17a;" horiz-adv-x="447" 
d="M239 561q-12 0 -12 12q0 4 2 8l84 184q5 11 16 11q6 0 10 -4t4 -9q0 -4 -4 -14l-86 -176q-6 -12 -14 -12zM398 28q14 0 14 -14t-14 -14h-346q-14 0 -14 14q0 6 6 13l319 425h-290q-14 0 -14 14t14 14h318q14 0 14 -14q0 -6 -6 -14l-319 -424h318z" />
    <glyph glyph-name="Zdotaccent" unicode="&#x17b;" horiz-adv-x="590" 
d="M298 773q-14 0 -23.5 9.5t-9.5 23.5t9.5 23.5t23.5 9.5t23.5 -9.5t9.5 -23.5t-9.5 -23.5t-23.5 -9.5zM537 29q15 0 15 -14q0 -6 -4.5 -10.5t-10.5 -4.5h-480q-15 0 -15 13q0 7 5 13l458 605h-406q-6 0 -10.5 4.5t-4.5 10.5q0 14 15 14h435q15 0 15 -14q0 -4 -6 -12
l-456 -605h450z" />
    <glyph glyph-name="zdotaccent" unicode="&#x17c;" horiz-adv-x="447" 
d="M234 633q-14 0 -23.5 9.5t-9.5 23.5t9.5 23.5t23.5 9.5t23.5 -9.5t9.5 -23.5t-9.5 -23.5t-23.5 -9.5zM398 28q14 0 14 -14t-14 -14h-346q-14 0 -14 14q0 6 6 13l319 425h-290q-14 0 -14 14t14 14h318q14 0 14 -14q0 -6 -6 -14l-319 -424h318z" />
    <glyph glyph-name="Zcaron" unicode="&#x17d;" horiz-adv-x="590" 
d="M286 729l-138 146q-5 5 -5 10q0 14 14 14q5 0 11 -6l129 -132l129 132q6 6 11 6q14 0 14 -14q0 -5 -5 -10l-138 -146q-5 -5 -11 -5t-11 5zM537 29q15 0 15 -14q0 -6 -4.5 -10.5t-10.5 -4.5h-480q-15 0 -15 13q0 7 5 13l458 605h-406q-6 0 -10.5 4.5t-4.5 10.5q0 14 15 14
h435q15 0 15 -14q0 -4 -6 -12l-456 -605h450z" />
    <glyph glyph-name="zcaron" unicode="&#x17e;" horiz-adv-x="447" 
d="M222 567l-125 187q-4 5 -4 11q0 11 12 11q7 0 11 -6l118 -173l118 173q4 6 11 6q12 0 12 -11q0 -6 -4 -11l-125 -187q-4 -6 -12 -6t-12 6zM398 28q14 0 14 -14t-14 -14h-346q-14 0 -14 14q0 6 6 13l319 425h-290q-14 0 -14 14t14 14h318q14 0 14 -14q0 -6 -6 -14
l-319 -424h318z" />
    <glyph glyph-name="uni018F" unicode="&#x18f;" horiz-adv-x="776" 
d="M350 670q136 0 229.5 -97.5t93.5 -240.5t-94.5 -242.5t-231.5 -99.5q-127 0 -208.5 82t-81.5 210q0 15 2 33q2 17 16 17h564v2q0 130 -83 217.5t-207 87.5q-145 0 -234 -112q-7 -10 -15 -10q-16 0 -16 16q0 5 8 16q101 121 258 121zM349 21q114 0 196 80.5t93 201.5h-547
q-9 -120 65 -201t193 -81z" />
    <glyph glyph-name="florin" unicode="&#x192;" horiz-adv-x="436" 
d="M378 670q13 0 20.5 -0.5t14.5 -2t10 -5t3 -8.5q0 -14 -15 -14q-3 0 -12.5 1t-17.5 1q-51 0 -79.5 -23.5t-35.5 -83.5l-18 -145h104q14 0 14 -14t-14 -14h-107l-45 -360q-16 -135 -142 -135q-48 0 -48 17q0 14 14 14q4 0 13 -1.5t18 -1.5q51 0 79.5 23.5t35.5 83.5l45 360
h-70q-14 0 -14 14t14 14h73l18 145q16 135 142 135z" />
    <glyph glyph-name="uni01D4" unicode="&#x1d4;" horiz-adv-x="543" 
d="M260 567l-125 187q-4 5 -4 11q0 11 12 11q7 0 11 -6l118 -173l118 173q4 6 11 6q12 0 12 -11q0 -6 -4 -11l-125 -187q-4 -6 -12 -6t-12 6zM437 490q6 0 10.5 -4.5t4.5 -10.5v-300q0 -81 -50.5 -133t-129.5 -52t-130 52t-51 133v300q0 6 4.5 10.5t10.5 4.5t10.5 -4.5
t4.5 -10.5v-300q0 -70 41.5 -113t109.5 -43q67 0 108.5 43t41.5 113v300q0 15 15 15z" />
    <glyph glyph-name="AEacute" unicode="&#x1fc;" horiz-adv-x="796" 
d="M401 728q-6 0 -10.5 6t-0.5 12l82 158q4 9 14 9q9 0 12.5 -7t-1.5 -17l-84 -153q-5 -8 -12 -8zM743 29q15 0 15 -14q0 -6 -4.5 -10.5t-10.5 -4.5h-249q-13 0 -16 14l-29 162h-304l-91 -175q-6 -11 -15 -11q-15 0 -15 14q0 4 3 10l333 638q5 8 13 8h358q15 0 15 -14
q0 -6 -4.5 -10.5t-10.5 -4.5h-330l46 -257h204q15 0 15 -14q0 -6 -4.5 -10.5t-10.5 -4.5h-199l57 -316h234zM371 615l-211 -410h284z" />
    <glyph glyph-name="aeacute" unicode="&#x1fd;" horiz-adv-x="908" 
d="M436 561q-12 0 -12 12q0 4 2 8l84 184q5 11 16 11q6 0 10 -4t4 -9q0 -4 -4 -14l-86 -176q-6 -12 -14 -12zM633 490q98 0 156.5 -62.5t58.5 -165.5v-12q0 -21 -19 -21h-402q4 -90 65 -150t149 -60q99 0 162 74q7 8 13 8q14 0 14 -13q0 -7 -7 -15q-68 -83 -182 -83
q-73 0 -133 39t-90 104q-17 -64 -72 -103.5t-129 -39.5t-119.5 37.5t-45.5 98.5t44 96t120 35h179v49q0 73 -38.5 114t-106.5 41q-84 0 -142 -73q-6 -7 -13 -7q-14 0 -14 13q0 7 7 15q66 81 164 81q69 0 112.5 -35.5t56.5 -100.5q30 62 86.5 99t125.5 37zM633 461
q-83 0 -141.5 -58.5t-63.5 -145.5h389q4 88 -48.5 146t-135.5 58zM219 19q73 0 124.5 46t51.5 110v54h-178q-64 0 -98.5 -26t-34.5 -74q0 -49 37 -79.5t98 -30.5z" />
    <glyph glyph-name="Oslashacute" unicode="&#x1fe;" horiz-adv-x="784" 
d="M400 728q-6 0 -10.5 6t-0.5 12l82 158q5 9 14 9t12.5 -7t-1.5 -17l-84 -153q-5 -8 -12 -8zM732 656q0 -7 -5 -12l-85 -85q85 -96 85 -229q0 -143 -97.5 -241.5t-238.5 -98.5q-133 0 -228 90l-84 -84q-6 -6 -13 -6q-14 0 -14 14q0 7 6 13l84 84q-85 96 -85 229
q0 143 96.5 241.5t237.5 98.5q134 0 230 -90l84 84q6 6 13 6q14 0 14 -14zM91 331q0 -122 74 -207l434 434q-84 81 -207 81q-128 0 -214.5 -88.5t-86.5 -219.5zM693 331q0 120 -73 206l-435 -435q84 -81 207 -81q128 0 214.5 89t86.5 221z" />
    <glyph glyph-name="oslashacute" unicode="&#x1ff;" horiz-adv-x="627" 
d="M319 561q-12 0 -12 12q0 4 2 8l84 184q5 11 16 11q6 0 10 -4t4 -9q0 -4 -4 -14l-86 -176q-6 -12 -14 -12zM557 463l-58 -59q61 -69 61 -164q0 -104 -72.5 -177t-175.5 -73q-94 0 -163 64l-58 -58q-6 -6 -12 -6t-10.5 4.5t-4.5 10.5t6 12l58 58q-61 71 -61 165
q0 104 71.5 177t174.5 73q96 0 166 -64l57 58q6 6 12 6t10.5 -4.5t4.5 -10.5t-6 -12zM313 461q-91 0 -152.5 -64t-61.5 -157q0 -81 50 -144l309 309q-61 56 -145 56zM312 19q92 0 154 64t62 157q0 84 -50 143l-309 -309q61 -55 143 -55z" />
    <glyph glyph-name="Scommaaccent" unicode="&#x218;" horiz-adv-x="555" 
d="M283 -10q-139 0 -224 126q-4 6 -4 12q0 14 15 14q8 0 15 -10q74 -111 199 -111q74 0 118.5 38t44.5 100q0 52 -27 83t-104 68l-76 36q-79 37 -111 75t-32 93q0 73 53.5 114.5t132.5 41.5q112 0 180 -85q5 -6 5 -13q0 -5 -4 -9.5t-10 -4.5q-8 0 -14 8q-61 73 -155 73
q-62 0 -108 -30t-46 -93q0 -47 26.5 -77.5t97.5 -64.5l76 -36q84 -41 117 -80t33 -99q0 -74 -55.5 -121.5t-142.5 -47.5zM268 -220q-6 0 -10 4.5t-2 11.5q13 47 13 141q0 6 4.5 10.5t10.5 4.5t10.5 -4.5t4.5 -10.5q-1 -57 -18 -143q-3 -14 -13 -14z" />
    <glyph glyph-name="scommaaccent" unicode="&#x219;" horiz-adv-x="455" 
d="M232 -10q-56 0 -102 27t-75 72q-4 6 -4 11q0 6 4.5 11t11.5 5t13 -7q62 -90 154 -90q51 0 85.5 25t34.5 72q0 23 -8 40t-26.5 30.5t-32 21t-42.5 20.5l-42 19q-27 12 -43.5 21t-36 24t-28.5 34.5t-9 44.5q0 54 43.5 86.5t102.5 32.5q84 0 142 -67q8 -10 8 -14
q0 -6 -4 -11t-10 -5q-7 0 -15 9q-51 59 -123 59q-46 0 -79 -22.5t-33 -66.5q0 -26 15 -45t32 -28t54 -26l45 -20q59 -27 90.5 -56t31.5 -79q0 -60 -45 -94t-109 -34zM223 -220q-6 0 -10 4.5t-2 11.5q13 47 13 141q0 6 4.5 10.5t10.5 4.5t10.5 -4.5t4.5 -10.5
q-1 -57 -18 -143q-3 -14 -13 -14z" />
    <glyph glyph-name="uni021A" unicode="&#x21a;" horiz-adv-x="584" 
d="M292 -10q-16 0 -16 17v624h-236q-6 0 -10.5 4.5t-4.5 10.5q0 14 15 14h504q15 0 15 -14q0 -6 -4.5 -10.5t-10.5 -4.5h-236v-624q0 -17 -16 -17zM277 -220q-6 0 -10 4.5t-2 11.5q13 47 13 141q0 6 4.5 10.5t10.5 4.5t10.5 -4.5t4.5 -10.5q-1 -57 -18 -143q-3 -14 -13 -14z
" />
    <glyph glyph-name="uni021B" unicode="&#x21b;" horiz-adv-x="350" 
d="M313 25q14 0 14 -13q0 -11 -16 -15q-28 -7 -59 -7q-64 0 -99.5 35t-35.5 100v327h-73q-15 0 -15 14t15 14h73v129q0 15 15 15q6 0 10.5 -4.5t4.5 -10.5v-129h147q15 0 15 -14t-15 -14h-147v-327q0 -107 107 -107q18 0 37.5 3.5t21.5 3.5zM215 -48q6 0 10.5 -4.5
t4.5 -10.5q-1 -57 -18 -143q-3 -14 -13 -14q-6 0 -10 4.5t-2 11.5q13 47 13 141q0 6 4.5 10.5t10.5 4.5z" />
    <glyph glyph-name="uni0237" unicode="&#x237;" horiz-adv-x="228" 
d="M-7 -190q-24 0 -40 4q-14 4 -14 15q0 13 14 13q2 0 15 -2t23 -2q108 0 108 107v530q0 15 15 15q6 0 10.5 -4.5t4.5 -10.5v-530q0 -70 -37 -102.5t-99 -32.5z" />
    <glyph glyph-name="uni0259" unicode="&#x259;" horiz-adv-x="573" 
d="M267 490q103 0 174.5 -73t71.5 -177q0 -105 -69 -177.5t-169 -72.5q-94 0 -154.5 61t-60.5 155v16q0 21 19 21h402q-1 93 -62 155.5t-152 62.5q-99 0 -162 -74q-7 -8 -13 -8q-14 0 -14 13q0 7 7 15q74 83 182 83zM275 19q81 0 139 56t66 140h-389q-3 -84 49 -140t135 -56
z" />
    <glyph glyph-name="circumflex" unicode="&#x2c6;" horiz-adv-x="347" 
d="M311 583q4 -5 4 -11q0 -11 -12 -11q-7 0 -11 6l-118 173l-118 -173q-4 -6 -11 -6q-12 0 -12 11q0 6 4 11l125 187q4 6 12 6t12 -6z" />
    <glyph glyph-name="caron" unicode="&#x2c7;" horiz-adv-x="348" 
d="M303 776q12 0 12 -11q0 -6 -4 -11l-125 -187q-4 -6 -12 -6t-12 6l-125 187q-4 5 -4 11q0 11 12 11q7 0 11 -6l118 -173l118 173q4 6 11 6z" />
    <glyph glyph-name="breve" unicode="&#x2d8;" horiz-adv-x="330" 
d="M165 593q-57 0 -96 38.5t-39 95.5q0 17 15 17t15 -17q0 -45 30.5 -75.5t74.5 -30.5t74.5 30.5t30.5 75.5q0 17 15 17t15 -17q0 -56 -39 -95t-96 -39z" />
    <glyph glyph-name="dotaccent" unicode="&#x2d9;" horiz-adv-x="128" 
d="M64 699q14 0 23.5 -9.5t9.5 -23.5t-9.5 -23.5t-23.5 -9.5t-23.5 9.5t-9.5 23.5t9.5 23.5t23.5 9.5z" />
    <glyph glyph-name="ring" unicode="&#x2da;" horiz-adv-x="256" 
d="M128 763q41 0 69.5 -28.5t28.5 -68.5t-28.5 -68.5t-69.5 -28.5t-69.5 28.5t-28.5 68.5t28.5 68.5t69.5 28.5zM128 735q-29 0 -48.5 -20t-19.5 -49t19.5 -49t48.5 -20t48.5 20t19.5 49t-19.5 49t-48.5 20z" />
    <glyph glyph-name="ogonek" unicode="&#x2db;" horiz-adv-x="216" 
d="M118 -190q-40 0 -67.5 20t-27.5 55q0 33 28.5 60.5t105.5 66.5q6 3 12 3q9 0 9 -11q0 -8 -7 -12q-72 -43 -94.5 -62.5t-22.5 -41.5q0 -23 17.5 -36.5t46.5 -13.5q16 0 33 3t18 3q12 0 12 -13q0 -9 -15 -14q-22 -7 -48 -7z" />
    <glyph glyph-name="tilde" unicode="&#x2dc;" horiz-adv-x="316" 
d="M225 609q-34 0 -63 33l-25 27q-24 25 -43 25q-34 0 -34 -51q0 -18 -15 -18t-15 18q0 35 17 57t44 22q34 0 63 -33l25 -27q24 -25 43 -25q34 0 34 51q0 18 15 18t15 -18q0 -35 -17 -57t-44 -22z" />
    <glyph glyph-name="hungarumlaut" unicode="&#x2dd;" horiz-adv-x="327" 
d="M61 561q-12 0 -12 12q0 4 2 8l84 184q5 11 16 11q6 0 10 -4t4 -9q0 -4 -4 -14l-86 -176q-6 -12 -14 -12zM195 561q-12 0 -12 12q0 4 2 8l84 184q5 11 16 11q6 0 10 -4t4 -9q0 -4 -4 -14l-86 -176q-6 -12 -14 -12z" />
    <glyph glyph-name="uni030C" unicode="&#x30c;" horiz-adv-x="0" 
d="M-73 530q-6 0 -10 4.5t-3 10.5l24 198q3 17 16 17q6 0 11 -5t4 -12l-30 -202q-2 -11 -12 -11z" />
    <glyph glyph-name="uni0326" unicode="&#x326;" horiz-adv-x="0" 
d="M-63 -220q-6 0 -10 4.5t-2 11.5q13 47 13 141q0 6 4.5 10.5t10.5 4.5t10.5 -4.5t4.5 -10.5q-1 -57 -18 -143q-3 -14 -13 -14z" />
    <glyph glyph-name="dieresistonos" unicode="&#x385;" horiz-adv-x="390" 
d="M185 561q-5 0 -9.5 3.5t-3.5 10.5l23 185q2 16 16 16q6 0 10.5 -5t3.5 -13l-28 -183q-3 -14 -12 -14zM74 632q-14 0 -24 10t-10 24t10 24t24 10t24 -10t10 -24t-10 -24t-24 -10zM316 632q-14 0 -24 10t-10 24t10 24t24 10t24 -10t10 -24t-10 -24t-24 -10z" />
    <glyph glyph-name="Alphatonos" unicode="&#x386;" horiz-adv-x="665" 
d="M59 500q-6 0 -10 4.5t-3 10.5l24 198q3 17 16 17q6 0 11 -5t4 -12l-30 -202q-2 -11 -12 -11zM614 14q3 -8 3 -11q0 -13 -15 -13q-12 0 -16 12l-71 173h-365l-71 -173q-5 -12 -16 -12q-15 0 -15 13q0 3 3 11l267 645q3 11 15 11t15 -11zM333 619l-171 -415h341z" />
    <glyph glyph-name="Epsilontonos" unicode="&#x388;" horiz-adv-x="561" 
d="M-50 500q-6 0 -10 4.5t-3 10.5l24 198q3 17 16 17q6 0 11 -5t4 -12l-30 -202q-2 -11 -12 -11zM120 0q-17 0 -17 17v626q0 17 17 17h376q15 0 15 -14q0 -6 -4.5 -10.5t-10.5 -4.5h-361v-257h281q15 0 15 -14q0 -6 -4.5 -10.5t-10.5 -4.5h-281v-316h373q15 0 15 -14
q0 -6 -4.5 -10.5t-10.5 -4.5h-388z" />
    <glyph glyph-name="Etatonos" unicode="&#x389;" horiz-adv-x="704" 
d="M-50 500q-6 0 -10 4.5t-3 10.5l24 198q3 17 16 17q6 0 11 -5t4 -12l-30 -202q-2 -11 -12 -11zM119 -10q-16 0 -16 16v648q0 16 16 16t16 -16v-280h434v280q0 16 16 16t16 -16v-648q0 -16 -16 -16t-16 16v339h-434v-339q0 -16 -16 -16z" />
    <glyph glyph-name="Iotatonos" unicode="&#x38a;" horiz-adv-x="238" 
d="M-50 500q-6 0 -10 4.5t-3 10.5l24 198q3 17 16 17q6 0 11 -5t4 -12l-30 -202q-2 -11 -12 -11zM119 -10q-16 0 -16 17v646q0 17 16 17t16 -17v-646q0 -17 -16 -17z" />
    <glyph glyph-name="Omicrontonos" unicode="&#x38c;" horiz-adv-x="784" 
d="M-10 500q-6 0 -10 4.5t-3 10.5l24 198q3 17 16 17q6 0 11 -5t4 -12l-30 -202q-2 -11 -12 -11zM391 670q141 0 238.5 -98.5t97.5 -241.5t-97.5 -241.5t-238.5 -98.5q-140 0 -237 98.5t-97 241.5t96.5 241.5t237.5 98.5zM392 639q-128 0 -214.5 -88.5t-86.5 -219.5
q0 -132 86.5 -221t214.5 -89q127 0 214 89.5t87 220.5q0 130 -86.5 219t-214.5 89z" />
    <glyph glyph-name="Upsilontonos" unicode="&#x38e;" horiz-adv-x="610" 
d="M-63 730q6 0 11 -5t4 -12l-30 -202q-2 -11 -12 -11q-6 0 -10 4.5t-3 10.5l24 198q3 17 16 17zM546 656q0 -4 -5 -12l-220 -359v-278q0 -17 -16 -17t-16 17v279l-220 357q-5 7 -5 13q0 14 15 14q8 0 13 -8l213 -349l213 349q5 8 13 8q15 0 15 -14z" />
    <glyph glyph-name="Omegatonos" unicode="&#x38f;" horiz-adv-x="794" 
d="M19 730q6 0 11 -5t4 -12l-30 -202q-2 -11 -12 -11q-6 0 -10 4.5t-3 10.5l24 198q3 17 16 17zM711 29q15 0 15 -14q0 -6 -4.5 -10.5t-10.5 -4.5h-227q-7 0 -12 5t-5 12q0 10 11 16q220 108 220 307q0 129 -85.5 214t-215.5 85t-215.5 -84.5t-85.5 -213.5q0 -200 220 -308
q11 -6 11 -16q0 -7 -5 -12t-12 -5h-227q-6 0 -10.5 4.5t-4.5 10.5q0 14 15 14h178q-199 120 -199 311q0 141 95.5 235.5t238.5 94.5t239.5 -94.5t96.5 -235.5q0 -187 -200 -311h179z" />
    <glyph glyph-name="iotadieresistonos" unicode="&#x390;" horiz-adv-x="260" 
d="M100 561q-5 0 -9.5 3.5t-3.5 10.5l23 185q2 16 16 16q6 0 10.5 -5t3.5 -13l-28 -183q-3 -14 -12 -14zM-11 632q-14 0 -24 10t-10 24t10 24t24 10t24 -10t10 -24t-10 -24t-24 -10zM231 632q-14 0 -24 10t-10 24t10 24t24 10t24 -10t10 -24t-10 -24t-24 -10zM196 -10
q-101 0 -101 125v360q0 15 15 15q6 0 10.5 -4.5t4.5 -10.5v-360q0 -97 73 -97q10 0 18 0.5t10 0.5q13 0 13 -13q0 -10 -10 -13t-33 -3z" />
    <glyph glyph-name="Alpha" unicode="&#x391;" horiz-adv-x="665" 
d="M614 14q3 -8 3 -11q0 -13 -15 -13q-12 0 -16 12l-71 173h-365l-71 -173q-5 -12 -16 -12q-15 0 -15 13q0 3 3 11l267 645q3 11 15 11t15 -11zM333 619l-171 -415h341z" />
    <glyph glyph-name="Beta" unicode="&#x392;" horiz-adv-x="610" 
d="M406 366q72 -12 113 -59.5t41 -119.5q0 -85 -55.5 -136t-147.5 -51h-237q-17 0 -17 17v626q0 17 17 17h205q78 0 124 -42.5t46 -113.5q0 -100 -89 -138zM322 632l-187 -1v-257h187q65 0 102.5 34.5t37.5 94.5q0 61 -37.5 95.5t-102.5 33.5zM355 29q78 0 125 43t47 114
q0 72 -47 115.5t-125 43.5h-220v-316h220z" />
    <glyph glyph-name="Gamma" unicode="&#x393;" horiz-adv-x="493" 
d="M119 -10q-16 0 -16 17v636q0 17 17 17h336q15 0 15 -14q0 -6 -4.5 -10.5t-10.5 -4.5h-321v-624q0 -17 -16 -17z" />
    <glyph glyph-name="uni0394" unicode="&#x394;" horiz-adv-x="665" 
d="M614 24q3 -8 3 -11q0 -13 -15 -13h-539q-15 0 -15 13q0 3 3 11l267 635q5 11 15 11t15 -11zM333 619l-247 -590h493z" />
    <glyph glyph-name="Epsilon" unicode="&#x395;" horiz-adv-x="561" 
d="M120 0q-17 0 -17 17v626q0 17 17 17h376q15 0 15 -14q0 -6 -4.5 -10.5t-10.5 -4.5h-361v-257h281q15 0 15 -14q0 -6 -4.5 -10.5t-10.5 -4.5h-281v-316h373q15 0 15 -14q0 -6 -4.5 -10.5t-10.5 -4.5h-388z" />
    <glyph glyph-name="Zeta" unicode="&#x396;" horiz-adv-x="590" 
d="M537 29q15 0 15 -14q0 -6 -4.5 -10.5t-10.5 -4.5h-480q-15 0 -15 13q0 7 5 13l458 605h-406q-6 0 -10.5 4.5t-4.5 10.5q0 14 15 14h435q15 0 15 -14q0 -4 -6 -12l-456 -605h450z" />
    <glyph glyph-name="Eta" unicode="&#x397;" horiz-adv-x="704" 
d="M119 -10q-16 0 -16 16v648q0 16 16 16t16 -16v-280h434v280q0 16 16 16t16 -16v-648q0 -16 -16 -16t-16 16v339h-434v-339q0 -16 -16 -16z" />
    <glyph glyph-name="Theta" unicode="&#x398;" horiz-adv-x="784" 
d="M391 670q141 0 238.5 -98.5t97.5 -241.5t-97.5 -241.5t-238.5 -98.5q-140 0 -237 98.5t-97 241.5t96.5 241.5t237.5 98.5zM392 639q-128 0 -214.5 -88.5t-86.5 -219.5q0 -132 86.5 -221t214.5 -89t214.5 89t86.5 221q0 131 -86.5 219.5t-214.5 88.5zM531 355q15 0 15 -14
q0 -6 -4.5 -10.5t-10.5 -4.5h-278q-6 0 -10.5 4.5t-4.5 10.5q0 14 15 14h278z" />
    <glyph glyph-name="Iota" unicode="&#x399;" horiz-adv-x="238" 
d="M119 -10q-16 0 -16 17v646q0 17 16 17t16 -17v-646q0 -17 -16 -17z" />
    <glyph glyph-name="Kappa" unicode="&#x39a;" horiz-adv-x="598" 
d="M119 670q16 0 16 -17v-646q0 -17 -16 -17t-16 17v646q0 17 16 17zM545 17q6 -6 6 -13q0 -5 -4.5 -9.5t-10.5 -4.5q-7 0 -17 10l-352 346q-5 5 -5 12t6 13l320 284q16 15 24 15q15 0 15 -15q0 -7 -9 -15l-319 -283z" />
    <glyph glyph-name="Lambda" unicode="&#x39b;" horiz-adv-x="665" 
d="M614 14q3 -8 3 -11q0 -13 -15 -13q-12 0 -16 12l-253 615l-254 -615q-5 -12 -16 -12q-15 0 -15 13q0 3 3 11l267 645q3 11 15 11t15 -11z" />
    <glyph glyph-name="Mu" unicode="&#x39c;" horiz-adv-x="782" 
d="M664 670q6 0 10.5 -4.5t4.5 -11.5v-648q0 -16 -16 -16t-16 16v594l-239 -366q-8 -12 -17 -12t-17 12l-239 366v-594q0 -16 -16 -16t-16 16v648q0 7 4.5 11.5t10.5 4.5q10 0 18 -12l255 -390l255 390q8 12 18 12z" />
    <glyph glyph-name="Nu" unicode="&#x39d;" horiz-adv-x="704" 
d="M585 670q16 0 16 -17v-646q0 -17 -16 -17q-7 0 -13 7l-437 606v-596q0 -17 -16 -17t-16 17v646q0 17 16 17q7 0 13 -7l437 -606v596q0 17 16 17z" />
    <glyph glyph-name="Xi" unicode="&#x39e;" horiz-adv-x="528" 
d="M53 631q-6 0 -10.5 4.5t-4.5 10.5q0 14 15 14h422q15 0 15 -14q0 -6 -4.5 -10.5t-10.5 -4.5h-422zM64 324q-6 0 -10.5 4.5t-4.5 10.5q0 14 15 14h400q15 0 15 -14q0 -6 -4.5 -10.5t-10.5 -4.5h-400zM53 0q-6 0 -10.5 4.5t-4.5 10.5q0 14 15 14h422q15 0 15 -14
q0 -6 -4.5 -10.5t-10.5 -4.5h-422z" />
    <glyph glyph-name="Omicron" unicode="&#x39f;" horiz-adv-x="784" 
d="M391 670q141 0 238.5 -98.5t97.5 -241.5t-97.5 -241.5t-238.5 -98.5q-140 0 -237 98.5t-97 241.5t96.5 241.5t237.5 98.5zM392 639q-128 0 -214.5 -88.5t-86.5 -219.5q0 -132 86.5 -221t214.5 -89q127 0 214 89.5t87 220.5q0 130 -86.5 219t-214.5 89z" />
    <glyph glyph-name="Pi" unicode="&#x3a0;" horiz-adv-x="674" 
d="M119 -10q-16 0 -16 17v636q0 17 17 17h434q17 0 17 -17v-636q0 -17 -16 -17t-16 17v624h-404v-624q0 -17 -16 -17z" />
    <glyph glyph-name="Rho" unicode="&#x3a1;" horiz-adv-x="557" 
d="M119 -10q-16 0 -16 17v636q0 17 17 17h202q86 0 138 -47.5t52 -126.5t-52 -127t-138 -48h-187v-304q0 -17 -16 -17zM135 340h185q73 0 116 39t43 106t-42.5 106.5t-116.5 39.5h-185v-291z" />
    <glyph glyph-name="Sigma" unicode="&#x3a3;" horiz-adv-x="543" 
d="M490 29q6 0 10.5 -4.5t4.5 -10.5q0 -14 -15 -14h-420q-15 0 -15 15q0 6 5 12l252 311l-252 295q-5 6 -5 12q0 15 15 15h408q15 0 15 -14q0 -6 -4.5 -10.5t-10.5 -4.5h-378l237 -278q8 -9 8 -14t-7 -13l-240 -297h392z" />
    <glyph glyph-name="Tau" unicode="&#x3a4;" horiz-adv-x="584" 
d="M292 -10q-16 0 -16 17v624h-236q-6 0 -10.5 4.5t-4.5 10.5q0 14 15 14h504q15 0 15 -14q0 -6 -4.5 -10.5t-10.5 -4.5h-236v-624q0 -17 -16 -17z" />
    <glyph glyph-name="Upsilon" unicode="&#x3a5;" horiz-adv-x="610" 
d="M546 656q0 -4 -5 -12l-220 -359v-278q0 -17 -16 -17t-16 17v279l-220 357q-5 7 -5 13q0 14 15 14q8 0 13 -8l213 -349l213 349q5 8 13 8q15 0 15 -14z" />
    <glyph glyph-name="Phi" unicode="&#x3a6;" horiz-adv-x="765" 
d="M398 598q139 0 224.5 -72.5t85.5 -191.5t-85 -192t-225 -73v-92q0 -17 -16 -17t-16 17v92q-139 0 -224 73t-85 192t85 191.5t224 72.5v85q0 17 16 17t16 -17v-85zM91 334q0 -107 74.5 -170.5t200.5 -63.5v467q-127 0 -201 -63t-74 -170zM398 100q127 0 201.5 63.5
t74.5 170.5t-74.5 170t-201.5 63v-467z" />
    <glyph glyph-name="Chi" unicode="&#x3a7;" horiz-adv-x="579" 
d="M529 15q3 -5 3 -10q0 -15 -15 -15q-8 0 -15 10l-212 313l-213 -313q-7 -10 -15 -10q-15 0 -15 15q0 5 5 12l220 323l-205 305q-3 5 -3 10q0 15 15 15q8 0 15 -10l197 -295l194 295q7 10 15 10q15 0 15 -15q0 -5 -5 -13l-201 -303z" />
    <glyph glyph-name="Psi" unicode="&#x3a8;" horiz-adv-x="786" 
d="M393 -10q-16 0 -16 17v150q-140 0 -215 66t-75 189v241q0 17 16 17t16 -17v-241q0 -110 66 -167.5t192 -57.5v486q0 17 16 17t16 -17v-486q126 0 192 57.5t66 167.5v241q0 17 16 17t16 -17v-241q0 -123 -75 -189t-215 -66v-150q0 -17 -16 -17z" />
    <glyph glyph-name="uni03A9" unicode="&#x3a9;" horiz-adv-x="794" 
d="M711 29q15 0 15 -14q0 -6 -4.5 -10.5t-10.5 -4.5h-227q-7 0 -12 5t-5 12q0 10 11 16q220 108 220 307q0 129 -85.5 214t-215.5 85t-215.5 -84.5t-85.5 -213.5q0 -200 220 -308q11 -6 11 -16q0 -7 -5 -12t-12 -5h-227q-6 0 -10.5 4.5t-4.5 10.5q0 14 15 14h178
q-199 120 -199 311q0 141 95.5 235.5t238.5 94.5t239.5 -94.5t96.5 -235.5q0 -187 -200 -311h179z" />
    <glyph glyph-name="Iotadieresis" unicode="&#x3aa;" horiz-adv-x="238" 
d="M8 773q-14 0 -23.5 9.5t-9.5 23.5t9.5 23.5t23.5 9.5t23.5 -9.5t9.5 -23.5t-9.5 -23.5t-23.5 -9.5zM229 773q-14 0 -23.5 9.5t-9.5 23.5t9.5 23.5t23.5 9.5t23.5 -9.5t9.5 -23.5t-9.5 -23.5t-23.5 -9.5zM119 -10q-16 0 -16 17v646q0 17 16 17t16 -17v-646q0 -17 -16 -17z
" />
    <glyph glyph-name="Upsilondieresis" unicode="&#x3ab;" horiz-adv-x="610" 
d="M194 773q-14 0 -23.5 9.5t-9.5 23.5t9.5 23.5t23.5 9.5t23.5 -9.5t9.5 -23.5t-9.5 -23.5t-23.5 -9.5zM415 773q-14 0 -23.5 9.5t-9.5 23.5t9.5 23.5t23.5 9.5t23.5 -9.5t9.5 -23.5t-9.5 -23.5t-23.5 -9.5zM546 656q0 -4 -5 -12l-220 -359v-278q0 -17 -16 -17t-16 17v279
l-220 357q-5 7 -5 13q0 14 15 14q8 0 13 -8l213 -349l213 349q5 8 13 8q15 0 15 -14z" />
    <glyph glyph-name="alphatonos" unicode="&#x3ac;" horiz-adv-x="646" 
d="M314 561q-5 0 -9.5 3.5t-3.5 10.5l23 185q2 16 16 16q6 0 10.5 -5t3.5 -13l-28 -183q-3 -14 -12 -14zM609 25q15 0 15 -13q0 -10 -11 -13q-12 -3 -28 -3q-87 0 -87 105v13q-24 -56 -78.5 -90t-123.5 -34q-100 0 -168 72.5t-68 178.5t68 177.5t168 71.5q71 0 126 -35
t77 -92q5 80 8 110q2 17 16 17q7 0 11 -5.5t3 -13.5q-9 -119 -9 -224v-141q0 -82 61 -82q4 0 10.5 0.5t9.5 0.5zM297 19q89 0 145 61.5t56 159.5q0 99 -55.5 160t-145.5 61q-88 0 -146.5 -62.5t-58.5 -157.5q0 -96 58 -159t147 -63z" />
    <glyph glyph-name="epsilontonos" unicode="&#x3ad;" horiz-adv-x="487" 
d="M252 561q-5 0 -9.5 3.5t-3.5 10.5l23 185q2 16 16 16q6 0 10.5 -5t3.5 -13l-28 -183q-3 -14 -12 -14zM418 100q14 0 14 -14q0 -4 -3 -9q-59 -87 -174 -87q-82 0 -131.5 40.5t-49.5 101.5q0 46 28.5 79.5t81.5 48.5q-43 13 -64.5 43t-21.5 68q0 54 41.5 86.5t116.5 32.5
q109 0 159 -67q4 -5 4 -11q0 -14 -14 -14q-6 0 -11 6q-42 57 -138 57q-59 0 -92.5 -24t-33.5 -67q0 -41 29.5 -68t84.5 -27h81q15 0 15 -14q0 -6 -4.5 -10.5t-10.5 -4.5h-74q-68 0 -106.5 -32t-38.5 -80q0 -50 40 -82.5t109 -32.5q94 0 151 75q4 6 12 6z" />
    <glyph glyph-name="etatonos" unicode="&#x3ae;" horiz-adv-x="570" 
d="M289 561q-5 0 -9.5 3.5t-3.5 10.5l23 185q2 16 16 16q6 0 10.5 -5t3.5 -13l-28 -183q-3 -14 -12 -14zM305 490q80 0 127 -50t47 -135v-480q0 -6 -4.5 -10.5t-10.5 -4.5t-10.5 4.5t-4.5 10.5v480q0 71 -39.5 113.5t-105.5 42.5q-68 0 -112 -44t-44 -112v-300
q0 -6 -4.5 -10.5t-10.5 -4.5t-10.5 4.5t-4.5 10.5v374q0 77 -64 77q-4 0 -10 -0.5t-9 -0.5q-13 0 -13 13q0 10 10 13q9 3 29 3q75 0 86 -83q48 89 158 89z" />
    <glyph glyph-name="iotatonos" unicode="&#x3af;" horiz-adv-x="260" 
d="M110 561q-5 0 -9.5 3.5t-3.5 10.5l23 185q2 16 16 16q6 0 10.5 -5t3.5 -13l-28 -183q-3 -14 -12 -14zM196 -10q-101 0 -101 125v360q0 15 15 15q6 0 10.5 -4.5t4.5 -10.5v-360q0 -97 73 -97q10 0 18 0.5t10 0.5q13 0 13 -13q0 -10 -10 -13t-33 -3z" />
    <glyph glyph-name="upsilondieresistonos" unicode="&#x3b0;" horiz-adv-x="534" 
d="M242 561q-5 0 -9.5 3.5t-3.5 10.5l23 185q2 16 16 16q6 0 10.5 -5t3.5 -13l-28 -183q-3 -14 -12 -14zM131 632q-14 0 -24 10t-10 24t10 24t24 10t24 -10t10 -24t-10 -24t-24 -10zM373 632q-14 0 -24 10t-10 24t10 24t24 10t24 -10t10 -24t-10 -24t-24 -10zM275 -10
q-81 0 -132.5 50.5t-51.5 144.5v288q0 17 15 17t15 -17v-288q0 -78 43.5 -122t112.5 -44q68 0 109.5 47.5t41.5 151.5q0 123 -48 246q-3 7 -3 11q0 15 15 15q10 0 15 -12q53 -124 53 -257q0 -119 -51 -175t-134 -56z" />
    <glyph glyph-name="alpha" unicode="&#x3b1;" horiz-adv-x="646" 
d="M609 25q15 0 15 -13q0 -10 -11 -13q-12 -3 -28 -3q-87 0 -87 105v13q-24 -56 -78.5 -90t-123.5 -34q-100 0 -168 72.5t-68 178.5t68 177.5t168 71.5q71 0 126 -35t77 -92q5 80 8 110q2 17 16 17q7 0 11 -5.5t3 -13.5q-9 -119 -9 -224v-141q0 -82 61 -82q4 0 10.5 0.5
t9.5 0.5zM297 19q89 0 145 61.5t56 159.5q0 99 -55.5 160t-145.5 61q-88 0 -146.5 -62.5t-58.5 -157.5q0 -96 58 -159t147 -63z" />
    <glyph glyph-name="beta" unicode="&#x3b2;" horiz-adv-x="592" 
d="M342 422q86 -13 138 -71t52 -143q0 -96 -63 -157t-161 -61q-107 0 -179 66v-229q0 -17 -15 -17t-15 17v747q0 83 50 134.5t131 51.5q76 0 123 -48.5t47 -125.5q0 -60 -28.5 -103t-79.5 -61zM308 19q86 0 139 52t53 136q0 86 -56 139t-147 53h-54q-15 0 -15 14t15 14
q85 0 130 41t45 119q0 67 -37.5 105.5t-102.5 38.5q-69 0 -109 -43.5t-40 -117.5v-476q31 -35 78.5 -55t100.5 -20z" />
    <glyph glyph-name="gamma" unicode="&#x3b3;" horiz-adv-x="516" 
d="M480 475q0 -4 -2 -8l-204 -461v-179q0 -17 -15 -17t-15 17v174l-205 466q-2 4 -2 8q0 6 4.5 10.5t10.5 4.5q11 0 16 -12l190 -438l191 438q5 12 16 12q6 0 10.5 -4.5t4.5 -10.5z" />
    <glyph glyph-name="delta" unicode="&#x3b4;" horiz-adv-x="613" 
d="M449 450q104 -92 104 -205q0 -108 -71.5 -181.5t-175.5 -73.5q-103 0 -174.5 73t-71.5 177t71.5 177t173.5 73q31 0 63 -9l-282 242q-6 5 -6 12q0 6 4.5 10.5t10.5 4.5h424q15 0 15 -14t-15 -14h-386zM306 19q91 0 153 64t62 157q0 94 -62 157.5t-153 63.5t-152.5 -63.5
t-61.5 -157.5t61.5 -157.5t152.5 -63.5z" />
    <glyph glyph-name="epsilon" unicode="&#x3b5;" horiz-adv-x="487" 
d="M418 100q14 0 14 -14q0 -4 -3 -9q-59 -87 -174 -87q-82 0 -131.5 40.5t-49.5 101.5q0 46 28.5 79.5t81.5 48.5q-43 13 -64.5 43t-21.5 68q0 54 41.5 86.5t116.5 32.5q109 0 159 -67q4 -5 4 -11q0 -14 -14 -14q-6 0 -11 6q-42 57 -138 57q-59 0 -92.5 -24t-33.5 -67
q0 -41 29.5 -68t84.5 -27h81q15 0 15 -14q0 -6 -4.5 -10.5t-10.5 -4.5h-74q-68 0 -106.5 -32t-38.5 -80q0 -50 40 -82.5t109 -32.5q94 0 151 75q4 6 12 6z" />
    <glyph glyph-name="zeta" unicode="&#x3b6;" horiz-adv-x="486" 
d="M338 24q128 -34 128 -132q0 -41 -19 -71q-7 -11 -17 -11q-14 0 -14 14q0 5 9 24.5t9 43.5q0 73 -104 102l-85 23q-185 51 -185 195q0 49 21.5 95.5t70.5 105.5l260 309h-293q-15 0 -15 14t15 14h324q6 0 10.5 -4.5t4.5 -10.5t-4 -10l-277 -330q-46 -56 -65.5 -97.5
t-19.5 -85.5q0 -62 39 -102t122 -63z" />
    <glyph glyph-name="eta" unicode="&#x3b7;" horiz-adv-x="570" 
d="M305 490q80 0 127 -50t47 -135v-480q0 -6 -4.5 -10.5t-10.5 -4.5t-10.5 4.5t-4.5 10.5v480q0 71 -39.5 113.5t-105.5 42.5q-68 0 -112 -44t-44 -112v-300q0 -6 -4.5 -10.5t-10.5 -4.5t-10.5 4.5t-4.5 10.5v374q0 77 -64 77q-4 0 -10 -0.5t-9 -0.5q-13 0 -13 13
q0 10 10 13q9 3 29 3q75 0 86 -83q48 89 158 89z" />
    <glyph glyph-name="theta" unicode="&#x3b8;" horiz-adv-x="598" 
d="M299 760q216 0 216 -385t-216 -385t-216 385t216 385zM299 731q-176 0 -184 -326h368q-8 326 -184 326zM299 19q184 0 184 356v2h-368v-2q0 -356 184 -356z" />
    <glyph glyph-name="iota" unicode="&#x3b9;" horiz-adv-x="260" 
d="M196 -10q-101 0 -101 125v360q0 15 15 15q6 0 10.5 -4.5t4.5 -10.5v-360q0 -97 73 -97q10 0 18 0.5t10 0.5q13 0 13 -13q0 -10 -10 -13t-33 -3z" />
    <glyph glyph-name="kappa" unicode="&#x3ba;" horiz-adv-x="458" 
d="M114 490q6 0 10.5 -4.5t4.5 -10.5v-470q0 -6 -4.5 -10.5t-10.5 -4.5t-10.5 4.5t-4.5 10.5v470q0 15 15 15zM429 16q5 -5 5 -12q0 -14 -14 -14q-7 0 -13 6l-246 262q-6 6 -6 12t7 12l221 203q5 5 12 5q14 0 14 -14q0 -7 -6 -13l-212 -194z" />
    <glyph glyph-name="lambda" unicode="&#x3bb;" horiz-adv-x="528" 
d="M503 25q13 0 13 -13q0 -15 -32 -15q-49 0 -75 70l-136 372l-209 -439q-5 -10 -14 -10q-6 0 -10.5 4.5t-4.5 10.5q0 3 3 9l223 461l-61 162q-22 57 -43.5 76t-58.5 19q-8 0 -22 -1.5t-17 -1.5q-13 0 -13 13q0 11 13 14q17 4 41 4q46 0 74.5 -22.5t52.5 -87.5l209 -569
q21 -57 52 -57q4 0 8.5 0.5t6.5 0.5z" />
    <glyph glyph-name="uni03BC" unicode="&#x3bc;" horiz-adv-x="578" 
d="M541 25q15 0 15 -13q0 -11 -13 -14q-5 -2 -26 -2q-77 0 -86 82q-46 -88 -152 -88q-102 0 -150 86v-251q0 -6 -4.5 -10.5t-10.5 -4.5t-10.5 4.5t-4.5 10.5v650q0 6 4.5 10.5t10.5 4.5t10.5 -4.5t4.5 -10.5v-291q0 -72 42.5 -118.5t107.5 -46.5q66 0 108.5 46.5t42.5 118.5
v291q0 6 4.5 10.5t10.5 4.5t10.5 -4.5t4.5 -10.5v-369q0 -82 61 -82q4 0 10.5 0.5t9.5 0.5z" />
    <glyph glyph-name="nu" unicode="&#x3bd;" horiz-adv-x="519" 
d="M466 490q6 0 10.5 -4.5t4.5 -10.5q0 -4 -2 -8l-206 -466q-5 -11 -14 -11t-14 11l-205 466q-2 4 -2 8q0 6 4.5 10.5t10.5 4.5q11 0 16 -12l190 -438l191 438q5 12 16 12z" />
    <glyph glyph-name="xi" unicode="&#x3be;" horiz-adv-x="505" 
d="M357 21q62 -11 95 -44t33 -85q0 -41 -19 -71q-7 -11 -17 -11q-14 0 -14 14q0 5 9 24.5t9 43.5q0 82 -104 100l-75 13q-94 16 -147.5 72t-53.5 139q0 75 44 129.5t119 72.5q-55 20 -86.5 63.5t-31.5 99.5q0 74 54 124.5t133 50.5q101 0 167 -87q4 -5 4 -10q0 -14 -14 -14
q-8 0 -14 7q-56 75 -143 75q-67 0 -111 -41t-44 -104q0 -66 47.5 -109.5t118.5 -43.5h73q15 0 15 -14t-15 -14h-86q-85 0 -141.5 -53t-56.5 -133q0 -70 46.5 -117t130.5 -63z" />
    <glyph glyph-name="omicron" unicode="&#x3bf;" horiz-adv-x="613" 
d="M306 490q104 0 175.5 -72.5t71.5 -177.5t-72 -177.5t-176 -72.5q-103 0 -174 72.5t-71 177.5q0 106 71 178t175 72zM306 461q-91 0 -152.5 -63.5t-61.5 -157.5t61 -157.5t152 -63.5t153.5 64t62.5 157q0 94 -62 157.5t-153 63.5z" />
    <glyph glyph-name="pi" unicode="&#x3c0;" horiz-adv-x="564" 
d="M114 -10q-15 0 -15 17v456q0 17 17 17h313q17 0 17 -17v-363q0 -37 16.5 -56.5t44.5 -19.5q4 0 10.5 0.5t9.5 0.5q15 0 15 -13q0 -11 -13 -14q-10 -2 -26 -2q-39 0 -63 23.5t-24 75.5v357h-287v-445q0 -17 -15 -17z" />
    <glyph glyph-name="rho" unicode="&#x3c1;" horiz-adv-x="624" 
d="M321 490q104 0 173.5 -71t69.5 -178q0 -106 -68.5 -178.5t-168.5 -72.5q-70 0 -126 35t-80 91v-289q0 -17 -15 -17t-15 17v419q0 109 63.5 176.5t166.5 67.5zM324 19q89 0 148.5 63t59.5 158q0 96 -59.5 158.5t-150.5 62.5t-146 -60t-55 -159q0 -100 56 -161.5t147 -61.5
z" />
    <glyph glyph-name="uni03C2" unicode="&#x3c2;" horiz-adv-x="522" 
d="M424 -190q-14 0 -14 14q0 5 9 24.5t9 43.5q0 49 -30.5 71.5t-99.5 39.5q-39 10 -62.5 17t-61.5 26.5t-59 42.5t-38 64t-17 93q0 112 66.5 178t169.5 66q112 0 187 -86q6 -7 6 -12t-4 -9.5t-10 -4.5q-7 0 -13 7q-67 76 -165 76q-92 0 -148.5 -58t-56.5 -157
q0 -39 8.5 -69.5t26.5 -52t35.5 -36t46.5 -26t46.5 -16.5t49.5 -13q78 -19 116.5 -48t38.5 -93q0 -41 -19 -71q-7 -11 -17 -11z" />
    <glyph glyph-name="sigma" unicode="&#x3c3;" horiz-adv-x="625" 
d="M600 480q15 0 15 -14t-15 -14h-187q61 -27 97 -83.5t36 -127.5q0 -106 -70 -178.5t-173 -72.5t-173 72t-70 176q0 102 70.5 172t173.5 70h296zM514 240q0 92 -59.5 151.5t-150.5 59.5q-92 0 -152 -60.5t-60 -152.5q0 -94 60.5 -156.5t150.5 -62.5t150.5 63.5t60.5 157.5z
" />
    <glyph glyph-name="tau" unicode="&#x3c4;" horiz-adv-x="421" 
d="M385 25q13 0 13 -12t-22 -16q-35 -7 -73 -7q-145 0 -145 135v327h-123q-15 0 -15 14t15 14h336q15 0 15 -14t-15 -14h-183v-327q0 -55 28.5 -81t89.5 -26q27 0 52.5 3.5t26.5 3.5z" />
    <glyph glyph-name="upsilon" unicode="&#x3c5;" horiz-adv-x="534" 
d="M275 -10q-81 0 -132.5 50.5t-51.5 144.5v288q0 17 15 17t15 -17v-288q0 -78 43.5 -122t112.5 -44q68 0 109.5 47.5t41.5 151.5q0 123 -48 246q-3 7 -3 11q0 15 15 15q10 0 15 -12q53 -124 53 -257q0 -119 -51 -175t-134 -56z" />
    <glyph glyph-name="phi" unicode="&#x3c6;" horiz-adv-x="705" 
d="M367 488q125 0 201.5 -68.5t76.5 -180.5t-76.5 -180.5t-201.5 -68.5v-163q0 -17 -15 -17t-15 17v163q-124 0 -200.5 68.5t-76.5 180.5t76.5 180.5t200.5 68.5v255q0 17 15 17t15 -17v-255zM92 239q0 -101 66.5 -161t178.5 -60v442q-112 0 -178.5 -60t-66.5 -161zM367 18
q112 0 179 60.5t67 160.5t-67 160.5t-179 60.5v-442z" />
    <glyph glyph-name="chi" unicode="&#x3c7;" horiz-adv-x="471" 
d="M439 -158q27 0 27 -13q0 -14 -31 -14q-51 0 -79 59l-123 261l-180 -317q-5 -8 -13 -8q-14 0 -14 14q0 5 3 10l189 329l-119 250q-13 26 -26 34.5t-31 8.5q-27 0 -27 13q0 14 31 14q51 0 79 -59l110 -234l166 292q5 8 13 8q14 0 14 -14q0 -5 -3 -10l-176 -305l133 -276
q13 -26 26 -34.5t31 -8.5z" />
    <glyph glyph-name="psi" unicode="&#x3c8;" horiz-adv-x="727" 
d="M367 -190q-15 0 -15 17v161q-119 0 -190 69.5t-71 184.5v231q0 17 15 17t15 -17v-231q0 -102 63 -163.5t168 -61.5v636q0 17 15 17t15 -17v-636q109 0 174 64.5t65 172.5q0 95 -47 210q-3 7 -3 11q0 15 15 15q10 0 15 -12q52 -126 52 -221q0 -122 -73.5 -195.5
t-197.5 -73.5v-161q0 -17 -15 -17z" />
    <glyph glyph-name="omega" unicode="&#x3c9;" horiz-adv-x="828" 
d="M594 482q174 -70 174 -256q0 -106 -54.5 -171t-142.5 -65q-58 0 -99 30.5t-58 85.5q-17 -55 -58 -85.5t-99 -30.5q-88 0 -142.5 65t-54.5 171q0 186 174 256q8 3 14 3q12 0 12 -14q0 -9 -11 -14q-157 -60 -157 -229q0 -92 45.5 -150.5t118.5 -58.5q64 0 103.5 46
t39.5 120v188q0 17 15 17t15 -17v-188q0 -74 39.5 -120t103.5 -46q73 0 118.5 58.5t45.5 150.5q0 162 -157 229q-11 5 -11 14q0 14 12 14q6 0 14 -3z" />
    <glyph glyph-name="iotadieresis" unicode="&#x3ca;" horiz-adv-x="260" 
d="M29 633q-14 0 -23.5 9.5t-9.5 23.5t9.5 23.5t23.5 9.5t23.5 -9.5t9.5 -23.5t-9.5 -23.5t-23.5 -9.5zM190 633q-14 0 -23.5 9.5t-9.5 23.5t9.5 23.5t23.5 9.5t23.5 -9.5t9.5 -23.5t-9.5 -23.5t-23.5 -9.5zM196 -10q-101 0 -101 125v360q0 15 15 15q6 0 10.5 -4.5
t4.5 -10.5v-360q0 -97 73 -97q10 0 18 0.5t10 0.5q13 0 13 -13q0 -10 -10 -13t-33 -3z" />
    <glyph glyph-name="upsilondieresis" unicode="&#x3cb;" horiz-adv-x="534" 
d="M156 699q14 0 23.5 -9.5t9.5 -23.5t-9.5 -23.5t-23.5 -9.5t-23.5 9.5t-9.5 23.5t9.5 23.5t23.5 9.5zM348 699q14 0 23.5 -9.5t9.5 -23.5t-9.5 -23.5t-23.5 -9.5t-23.5 9.5t-9.5 23.5t9.5 23.5t23.5 9.5zM275 -10q-81 0 -132.5 50.5t-51.5 144.5v288q0 17 15 17t15 -17
v-288q0 -78 43.5 -122t112.5 -44q68 0 109.5 47.5t41.5 151.5q0 123 -48 246q-3 7 -3 11q0 15 15 15q10 0 15 -12q53 -124 53 -257q0 -119 -51 -175t-134 -56z" />
    <glyph glyph-name="omicrontonos" unicode="&#x3cc;" horiz-adv-x="613" 
d="M307 561q-5 0 -9.5 3.5t-3.5 10.5l23 185q2 16 16 16q6 0 10.5 -5t3.5 -13l-28 -183q-3 -14 -12 -14zM306 490q104 0 175.5 -72.5t71.5 -177.5t-72 -177.5t-176 -72.5q-103 0 -174 72.5t-71 177.5q0 106 71 178t175 72zM306 461q-91 0 -152.5 -63.5t-61.5 -157.5
t61 -157.5t152 -63.5t153.5 64t62.5 157q0 94 -62 157.5t-153 63.5z" />
    <glyph glyph-name="upsilontonos" unicode="&#x3cd;" horiz-adv-x="534" 
d="M252 561q-5 0 -9.5 3.5t-3.5 10.5l23 185q2 16 16 16q6 0 10.5 -5t3.5 -13l-28 -183q-3 -14 -12 -14zM275 -10q-81 0 -132.5 50.5t-51.5 144.5v288q0 17 15 17t15 -17v-288q0 -78 43.5 -122t112.5 -44q68 0 109.5 47.5t41.5 151.5q0 123 -48 246q-3 7 -3 11q0 15 15 15
q10 0 15 -12q53 -124 53 -257q0 -119 -51 -175t-134 -56z" />
    <glyph glyph-name="omegatonos" unicode="&#x3ce;" horiz-adv-x="828" 
d="M414 561q-5 0 -9.5 3.5t-3.5 10.5l23 185q2 16 16 16q6 0 10.5 -5t3.5 -13l-28 -183q-3 -14 -12 -14zM594 482q174 -70 174 -256q0 -106 -54.5 -171t-142.5 -65q-58 0 -99 30.5t-58 85.5q-17 -55 -58 -85.5t-99 -30.5q-88 0 -142.5 65t-54.5 171q0 186 174 256q8 3 14 3
q12 0 12 -14q0 -9 -11 -14q-157 -60 -157 -229q0 -92 45.5 -150.5t118.5 -58.5q64 0 103.5 46t39.5 120v188q0 17 15 17t15 -17v-188q0 -74 39.5 -120t103.5 -46q73 0 118.5 58.5t45.5 150.5q0 162 -157 229q-11 5 -11 14q0 14 12 14q6 0 14 -3z" />
    <glyph glyph-name="uni0400" unicode="&#x400;" horiz-adv-x="561" 
d="M293 728q-7 0 -12 8l-84 153q-5 10 -1.5 17t12.5 7q10 0 14 -9l82 -158q4 -6 -0.5 -12t-10.5 -6zM120 0q-17 0 -17 17v626q0 17 17 17h376q15 0 15 -14q0 -6 -4.5 -10.5t-10.5 -4.5h-361v-257h281q15 0 15 -14q0 -6 -4.5 -10.5t-10.5 -4.5h-281v-316h373q15 0 15 -14
q0 -6 -4.5 -10.5t-10.5 -4.5h-388z" />
    <glyph glyph-name="uni0401" unicode="&#x401;" horiz-adv-x="561" 
d="M190 773q-14 0 -23.5 9.5t-9.5 23.5t9.5 23.5t23.5 9.5t23.5 -9.5t9.5 -23.5t-9.5 -23.5t-23.5 -9.5zM411 773q-14 0 -23.5 9.5t-9.5 23.5t9.5 23.5t23.5 9.5t23.5 -9.5t9.5 -23.5t-9.5 -23.5t-23.5 -9.5zM120 0q-17 0 -17 17v626q0 17 17 17h376q15 0 15 -14
q0 -6 -4.5 -10.5t-10.5 -4.5h-361v-257h281q15 0 15 -14q0 -6 -4.5 -10.5t-10.5 -4.5h-281v-316h373q15 0 15 -14q0 -6 -4.5 -10.5t-10.5 -4.5h-388z" />
    <glyph glyph-name="uni0402" unicode="&#x402;" horiz-adv-x="748" 
d="M289 -10q-16 0 -16 17v624h-236q-6 0 -10.5 4.5t-4.5 10.5q0 14 15 14h504q15 0 15 -14q0 -6 -4.5 -10.5t-10.5 -4.5h-236v-238h170q98 0 155.5 -53.5t57.5 -144.5q0 -78 -47.5 -130.5t-133.5 -69.5q-21 -4 -28 -4q-15 0 -15 15q0 12 15 15q85 15 130.5 60.5t45.5 113.5
q0 77 -50 123t-132 46h-168v-357q0 -17 -16 -17z" />
    <glyph glyph-name="uni0403" unicode="&#x403;" horiz-adv-x="496" 
d="M255 728q-6 0 -10.5 6t-0.5 12l82 158q4 9 14 9q9 0 12.5 -7t-1.5 -17l-84 -153q-5 -8 -12 -8zM459 660q15 0 15 -14q0 -6 -4.5 -10.5t-10.5 -4.5h-324v-624q0 -17 -16 -17t-16 17v636q0 17 17 17h339z" />
    <glyph glyph-name="uni0404" unicode="&#x404;" horiz-adv-x="709" 
d="M637 139q14 0 14 -15q0 -6 -6 -14q-97 -120 -254 -120q-142 0 -238 98t-96 242q0 143 96.5 241.5t237.5 98.5q157 0 254 -120q6 -8 6 -14q0 -15 -14 -15q-8 0 -15 8q-87 110 -231 110q-116 0 -199 -75t-98 -190h403q15 0 15 -14q0 -6 -4.5 -10.5t-10.5 -4.5h-404h-2v-15
q0 -132 86 -220.5t214 -88.5q144 0 231 110q7 8 15 8z" />
    <glyph glyph-name="uni0405" unicode="&#x405;" horiz-adv-x="555" 
d="M283 -10q-139 0 -224 126q-4 6 -4 12q0 14 15 14q8 0 15 -10q74 -111 199 -111q74 0 118.5 38t44.5 100q0 52 -27 83t-104 68l-76 36q-79 37 -111 75t-32 93q0 73 53.5 114.5t132.5 41.5q112 0 180 -85q5 -6 5 -13q0 -5 -4 -9.5t-10 -4.5q-8 0 -14 8q-61 73 -155 73
q-62 0 -108 -30t-46 -93q0 -47 26.5 -77.5t97.5 -64.5l76 -36q84 -41 117 -80t33 -99q0 -74 -55.5 -121.5t-142.5 -47.5z" />
    <glyph glyph-name="uni0406" unicode="&#x406;" horiz-adv-x="238" 
d="M119 670q16 0 16 -17v-646q0 -17 -16 -17t-16 17v646q0 17 16 17z" />
    <glyph glyph-name="uni0407" unicode="&#x407;" horiz-adv-x="238" 
d="M8 773q-14 0 -23.5 9.5t-9.5 23.5t9.5 23.5t23.5 9.5t23.5 -9.5t9.5 -23.5t-9.5 -23.5t-23.5 -9.5zM229 773q-14 0 -23.5 9.5t-9.5 23.5t9.5 23.5t23.5 9.5t23.5 -9.5t9.5 -23.5t-9.5 -23.5t-23.5 -9.5zM119 670q16 0 16 -17v-646q0 -17 -16 -17t-16 17v646q0 17 16 17z
" />
    <glyph glyph-name="uni0408" unicode="&#x408;" horiz-adv-x="361" 
d="M108 -10q-41 0 -65 6q-16 4 -16 17q0 16 17 16q4 0 25 -3.5t38 -3.5q119 0 119 113v518q0 17 16 17t16 -17v-518q0 -70 -39 -107.5t-111 -37.5z" />
    <glyph glyph-name="uni0409" unicode="&#x409;" horiz-adv-x="1018" 
d="M755 373q93 0 148 -50.5t55 -135.5t-55.5 -136t-147.5 -51h-237q-17 0 -17 17v614h-275q-1 -545 -207 -634q-4 -2 -8 -2q-13 0 -13 14q0 9 11 14q90 45 137.5 188.5t47.5 374.5v57q0 17 17 17h305q17 0 17 -17v-270h222zM753 29q78 0 125 43t47 114q0 72 -47 115t-125 43
h-220v-315h220z" />
    <glyph glyph-name="uni040A" unicode="&#x40a;" horiz-adv-x="1066" 
d="M119 -10q-16 0 -16 17v646q0 17 16 17t16 -17v-279h414v279q0 17 16 17t16 -17v-279h222q92 0 147.5 -51t55.5 -136t-55.5 -136t-147.5 -51h-237q-17 0 -17 17v328h-414v-338q0 -17 -16 -17zM581 29h220q78 0 125 43t47 114q0 72 -47 115.5t-125 43.5h-220v-316z" />
    <glyph glyph-name="uni040B" unicode="&#x40b;" horiz-adv-x="785" 
d="M466 392q103 0 158.5 -63t55.5 -181v-141q0 -17 -16 -17t-16 17v141q0 105 -46.5 159t-136.5 54q-89 0 -160 -32v-322q0 -17 -16 -17t-16 17v624h-236q-6 0 -10.5 4.5t-4.5 10.5q0 14 15 14h504q15 0 15 -14q0 -6 -4.5 -10.5t-10.5 -4.5h-236v-270q75 31 161 31z" />
    <glyph glyph-name="uni040C" unicode="&#x40c;" horiz-adv-x="598" 
d="M307 728q-6 0 -10.5 6t-0.5 12l82 158q4 9 14 9q9 0 12.5 -7t-1.5 -17l-84 -153q-5 -8 -12 -8zM119 670q16 0 16 -17v-646q0 -17 -16 -17t-16 17v646q0 17 16 17zM545 17q6 -6 6 -13q0 -5 -4.5 -9.5t-10.5 -4.5q-7 0 -17 10l-352 346q-5 5 -5 12t6 13l320 284
q16 15 24 15q15 0 15 -15q0 -7 -9 -15l-319 -283z" />
    <glyph glyph-name="uni040D" unicode="&#x40d;" horiz-adv-x="714" 
d="M329 736l-84 153q-5 10 -1.5 17t12.5 7q10 0 14 -9l82 -158q4 -6 -0.5 -12t-10.5 -6q-7 0 -12 8zM595 670q16 0 16 -17v-646q0 -17 -16 -17t-16 17v601l-447 -611q-6 -7 -13 -7q-16 0 -16 17v646q0 17 16 17t16 -17v-601l447 611q6 7 13 7z" />
    <glyph glyph-name="uni040E" unicode="&#x40e;" horiz-adv-x="593" 
d="M298 747q-55 0 -94.5 35.5t-39.5 84.5q0 18 15 18t15 -18q2 -38 32 -65t72 -27t72.5 27t31.5 65q0 18 15 18t15 -18q0 -49 -39.5 -84.5t-94.5 -35.5zM528 670q7 0 11.5 -4.5t4.5 -10.5q0 -4 -4 -13l-233 -539q-49 -113 -168 -113q-35 0 -54 6q-14 3 -14 16q0 6 4.5 10.5
t11.5 4.5q2 0 20.5 -3.5t30.5 -3.5q104 0 144 95l10 23l-224 504q-4 9 -4 13q0 6 4.5 10.5t11.5 4.5q10 0 15 -12l213 -486l205 486q5 12 15 12z" />
    <glyph glyph-name="uni040F" unicode="&#x40f;" horiz-adv-x="674" 
d="M555 670q16 0 16 -17v-636q0 -17 -17 -17h-201v-134q0 -17 -16 -17t-16 17v134h-201q-17 0 -17 17v636q0 17 16 17t16 -17v-624h404v624q0 17 16 17z" />
    <glyph glyph-name="uni0410" unicode="&#x410;" horiz-adv-x="665" 
d="M614 14q3 -8 3 -11q0 -13 -15 -13q-12 0 -16 12l-71 173h-365l-71 -173q-5 -12 -16 -12q-15 0 -15 13q0 3 3 11l267 645q3 11 15 11t15 -11zM333 619l-171 -415h341z" />
    <glyph glyph-name="uni0411" unicode="&#x411;" horiz-adv-x="610" 
d="M486 660q15 0 15 -14q0 -6 -4.5 -10.5t-10.5 -4.5h-351v-258h222q93 0 148 -50.5t55 -135.5t-55.5 -136t-147.5 -51h-237q-17 0 -17 17v626q0 17 17 17h366zM356 344h-221v-315h221q79 0 125.5 42.5t46.5 115.5t-46 115t-126 42z" />
    <glyph glyph-name="uni0412" unicode="&#x412;" horiz-adv-x="610" 
d="M406 366q72 -12 113 -59.5t41 -119.5q0 -85 -55.5 -136t-147.5 -51h-237q-17 0 -17 17v626q0 17 17 17h205q78 0 124 -42.5t46 -113.5q0 -100 -89 -138zM322 632l-187 -1v-257h187q65 0 102.5 34.5t37.5 94.5q0 61 -37.5 95.5t-102.5 33.5zM355 29q78 0 125 43t47 114
q0 72 -47 115.5t-125 43.5h-220v-316h220z" />
    <glyph glyph-name="uni0413" unicode="&#x413;" horiz-adv-x="496" 
d="M459 660q15 0 15 -14q0 -6 -4.5 -10.5t-10.5 -4.5h-324v-624q0 -17 -16 -17t-16 17v636q0 17 17 17h339z" />
    <glyph glyph-name="uni0414" unicode="&#x414;" horiz-adv-x="661" 
d="M605 29q17 0 17 -17v-146q0 -17 -16 -17t-16 17v134h-533v-134q0 -17 -16 -17t-16 17v146q0 17 17 17h36q151 154 151 577v37q0 17 17 17h285q17 0 17 -17v-614h57zM261 631q-1 -443 -143 -602h398v602h-255z" />
    <glyph glyph-name="uni0415" unicode="&#x415;" horiz-adv-x="561" 
d="M120 0q-17 0 -17 17v626q0 17 17 17h376q15 0 15 -14q0 -6 -4.5 -10.5t-10.5 -4.5h-361v-257h281q15 0 15 -14q0 -6 -4.5 -10.5t-10.5 -4.5h-281v-316h373q15 0 15 -14q0 -6 -4.5 -10.5t-10.5 -4.5h-388z" />
    <glyph glyph-name="uni0416" unicode="&#x416;" horiz-adv-x="918" 
d="M412 371q7 -6 7 -13q0 -6 -6 -12l-336 -349q-7 -7 -14 -7q-16 0 -16 16q0 6 6 12l331 341l-306 283q-6 6 -6 12q0 16 16 16q7 0 14 -7zM460 670q16 0 16 -17v-646q0 -17 -16 -17t-16 17v646q0 17 16 17zM865 18q6 -6 6 -12q0 -16 -16 -16q-7 0 -14 7l-334 349q-6 6 -6 12
q0 7 7 13l310 292q7 7 14 7q16 0 16 -16q0 -6 -6 -12l-306 -283z" />
    <glyph glyph-name="uni0417" unicode="&#x417;" horiz-adv-x="577" 
d="M372 365q69 -14 109.5 -61.5t40.5 -115.5q0 -85 -65 -141.5t-163 -56.5q-142 0 -228 123q-5 8 -5 13q0 15 14 15q9 0 15 -9q79 -111 203 -111q84 0 140 47.5t56 118.5q0 68 -48.5 113t-123.5 45h-132q-15 0 -15 15t15 15h109q64 0 102 35.5t38 95.5q0 61 -40.5 97
t-109.5 36q-100 0 -167 -79q-7 -8 -13 -8t-11 4t-5 10t6 14q78 90 191 90q81 0 131.5 -45t50.5 -118q0 -50 -25 -87t-70 -55z" />
    <glyph glyph-name="uni0418" unicode="&#x418;" horiz-adv-x="714" 
d="M595 670q16 0 16 -17v-646q0 -17 -16 -17t-16 17v601l-447 -611q-6 -7 -13 -7q-16 0 -16 17v646q0 17 16 17t16 -17v-601l447 611q6 7 13 7z" />
    <glyph glyph-name="uni0419" unicode="&#x419;" horiz-adv-x="714" 
d="M349 747q-55 0 -94.5 35.5t-39.5 84.5q0 18 15 18t15 -18q2 -38 32 -65t72 -27t72.5 27t31.5 65q0 18 15 18t15 -18q0 -49 -39.5 -84.5t-94.5 -35.5zM595 670q16 0 16 -17v-646q0 -17 -16 -17t-16 17v601l-447 -611q-6 -7 -13 -7q-16 0 -16 17v646q0 17 16 17t16 -17
v-601l447 611q6 7 13 7z" />
    <glyph glyph-name="uni041A" unicode="&#x41a;" horiz-adv-x="598" 
d="M119 670q16 0 16 -17v-646q0 -17 -16 -17t-16 17v646q0 17 16 17zM545 17q6 -6 6 -13q0 -5 -4.5 -9.5t-10.5 -4.5q-7 0 -17 10l-352 346q-5 5 -5 12t6 13l320 284q16 15 24 15q15 0 15 -15q0 -7 -9 -15l-319 -283z" />
    <glyph glyph-name="uni041B" unicode="&#x41b;" horiz-adv-x="636" 
d="M516 660q17 0 17 -17v-635q0 -17 -16 -17t-16 17v623h-275q-1 -541 -207 -633q-4 -2 -8 -2q-13 0 -13 14q0 8 11 14q185 95 185 562v57q0 17 17 17h305z" />
    <glyph glyph-name="uni041C" unicode="&#x41c;" horiz-adv-x="782" 
d="M664 670q6 0 10.5 -4.5t4.5 -11.5v-648q0 -16 -16 -16t-16 16v594l-239 -366q-8 -12 -17 -12t-17 12l-239 366v-594q0 -16 -16 -16t-16 16v648q0 7 4.5 11.5t10.5 4.5q10 0 18 -12l255 -390l255 390q8 12 18 12z" />
    <glyph glyph-name="uni041D" unicode="&#x41d;" horiz-adv-x="704" 
d="M119 -10q-16 0 -16 16v648q0 16 16 16t16 -16v-280h434v280q0 16 16 16t16 -16v-648q0 -16 -16 -16t-16 16v339h-434v-339q0 -16 -16 -16z" />
    <glyph glyph-name="uni041E" unicode="&#x41e;" horiz-adv-x="784" 
d="M391 670q141 0 238.5 -98.5t97.5 -241.5t-97.5 -241.5t-238.5 -98.5q-140 0 -237 98.5t-97 241.5t96.5 241.5t237.5 98.5zM392 639q-128 0 -214.5 -88.5t-86.5 -219.5q0 -132 86.5 -221t214.5 -89q127 0 214 89.5t87 220.5q0 130 -86.5 219t-214.5 89z" />
    <glyph glyph-name="uni041F" unicode="&#x41f;" horiz-adv-x="674" 
d="M119 -10q-16 0 -16 17v636q0 17 17 17h434q17 0 17 -17v-636q0 -17 -16 -17t-16 17v624h-404v-624q0 -17 -16 -17z" />
    <glyph glyph-name="uni0420" unicode="&#x420;" 
d="M119 -10q-16 0 -16 17v636q0 17 17 17h202q86 0 138 -47.5t52 -126.5t-52 -127t-138 -48h-187v-304q0 -17 -16 -17zM135 340h185q73 0 116 39t43 106t-42.5 106.5t-116.5 39.5h-185v-291z" />
    <glyph glyph-name="uni0421" unicode="&#x421;" horiz-adv-x="709" 
d="M391 -10q-142 0 -238 98t-96 242q0 143 96.5 241.5t237.5 98.5q157 0 254 -120q6 -8 6 -14q0 -15 -14 -15q-8 0 -15 8q-87 110 -231 110q-127 0 -213.5 -89t-86.5 -220q0 -132 86 -220.5t214 -88.5q144 0 231 110q7 8 15 8q14 0 14 -15q0 -6 -6 -14q-97 -120 -254 -120z
" />
    <glyph glyph-name="uni0422" unicode="&#x422;" horiz-adv-x="574" 
d="M289 -10q-16 0 -16 17v624h-236q-6 0 -10.5 4.5t-4.5 10.5q0 14 15 14h504q15 0 15 -14q0 -6 -4.5 -10.5t-10.5 -4.5h-236v-624q0 -17 -16 -17z" />
    <glyph glyph-name="uni0423" unicode="&#x423;" horiz-adv-x="593" 
d="M528 670q7 0 11.5 -4.5t4.5 -10.5q0 -4 -4 -13l-233 -539q-49 -113 -168 -113q-35 0 -54 6q-14 3 -14 16q0 6 4.5 10.5t11.5 4.5q2 0 20.5 -3.5t30.5 -3.5q104 0 144 95l10 23l-224 504q-4 9 -4 13q0 6 4.5 10.5t11.5 4.5q10 0 15 -12l213 -486l205 486q5 12 15 12z" />
    <glyph glyph-name="uni0424" unicode="&#x424;" horiz-adv-x="765" 
d="M398 597q140 0 225 -72.5t85 -190.5q0 -119 -85 -192t-225 -73v-92q0 -17 -16 -17t-16 17v92q-139 0 -224 73t-85 192t85 191t224 72v86q0 17 16 17t16 -17v-86zM91 334q0 -108 74.5 -171.5t200.5 -63.5v468q-127 0 -201 -63t-74 -170zM398 99q126 0 201 64t75 171
t-74.5 170t-201.5 63v-468z" />
    <glyph glyph-name="uni0425" unicode="&#x425;" horiz-adv-x="579" 
d="M529 15q3 -5 3 -10q0 -15 -15 -15q-8 0 -15 10l-212 313l-213 -313q-7 -10 -15 -10q-15 0 -15 15q0 5 5 12l220 323l-205 305q-3 5 -3 10q0 15 15 15q8 0 15 -10l197 -295l194 295q7 10 15 10q15 0 15 -15q0 -5 -5 -13l-201 -303z" />
    <glyph glyph-name="uni0426" unicode="&#x426;" horiz-adv-x="674" 
d="M545 670q16 0 16 -17v-624h57q17 0 17 -17v-146q0 -17 -16 -17t-16 17v134h-483q-17 0 -17 17v636q0 17 16 17t16 -17v-624h394v624q0 17 16 17z" />
    <glyph glyph-name="uni0427" unicode="&#x427;" horiz-adv-x="606" 
d="M487 670q16 0 16 -17v-646q0 -17 -16 -17t-16 17v283q-72 -32 -160 -32q-119 0 -186.5 70t-67.5 194v131q0 17 16 17t16 -17v-131q0 -111 58.5 -172t164.5 -61q90 0 159 33v331q0 17 16 17z" />
    <glyph glyph-name="uni0428" unicode="&#x428;" horiz-adv-x="1010" 
d="M891 670q16 0 16 -17v-636q0 -17 -17 -17h-770q-17 0 -17 17v636q0 17 16 17t16 -17v-624h354v624q0 17 16 17t16 -17v-624h354v624q0 17 16 17z" />
    <glyph glyph-name="uni0429" unicode="&#x429;" horiz-adv-x="1020" 
d="M891 670q16 0 16 -17v-624h57q17 0 17 -17v-146q0 -17 -16 -17t-16 17v134h-829q-17 0 -17 17v636q0 17 16 17t16 -17v-624h354v624q0 17 16 17t16 -17v-624h354v624q0 17 16 17z" />
    <glyph glyph-name="uni042A" unicode="&#x42a;" horiz-adv-x="633" 
d="M133 0q-17 0 -17 17v614h-113q-6 0 -10.5 4.5t-4.5 10.5q0 14 15 14h128q17 0 17 -17v-270h222q93 0 148 -50.5t55 -135.5t-55.5 -136t-147.5 -51h-237zM148 28h220q78 0 125 43.5t47 114.5q0 72 -47 115t-125 43h-220v-316z" />
    <glyph glyph-name="uni042B" unicode="&#x42b;" horiz-adv-x="858" 
d="M119 670q16 0 16 -17v-280h222q97 0 150 -52t53 -134t-53.5 -134.5t-149.5 -52.5h-237q-17 0 -17 17v636q0 17 16 17zM739 -10q-16 0 -16 17v646q0 17 16 17t16 -17v-646q0 -17 -16 -17zM355 344h-220v-315h220q82 0 127 44.5t45 112.5q0 69 -45 113.5t-127 44.5z" />
    <glyph glyph-name="uni042C" unicode="&#x42c;" horiz-adv-x="620" 
d="M119 670q16 0 16 -17v-280h222q97 0 150 -52t53 -134t-53.5 -134.5t-149.5 -52.5h-237q-17 0 -17 17v636q0 17 16 17zM355 344h-220v-315h220q82 0 127 44.5t45 112.5q0 69 -45 113.5t-127 44.5z" />
    <glyph glyph-name="uni042D" unicode="&#x42d;" horiz-adv-x="709" 
d="M318 670q141 0 237.5 -98.5t96.5 -241.5q0 -144 -96 -242t-238 -98q-157 0 -254 120q-6 8 -6 14q0 15 14 15q8 0 15 -8q87 -110 231 -110q128 0 214 88.5t86 220.5v15h-2h-404q-6 0 -10.5 4.5t-4.5 10.5q0 14 15 14h403q-15 115 -98 190t-199 75q-144 0 -231 -110
q-7 -8 -15 -8q-14 0 -14 15q0 6 6 14q97 120 254 120z" />
    <glyph glyph-name="uni042E" unicode="&#x42e;" horiz-adv-x="1088" 
d="M695 670q141 0 238.5 -98.5t97.5 -241.5t-97.5 -241.5t-238.5 -98.5q-140 0 -237 98.5t-97 241.5v15h-226v-338q0 -17 -16 -17t-16 17v646q0 17 16 17t16 -17v-279h229q15 127 108.5 211.5t222.5 84.5zM696 21q128 0 214.5 89t86.5 221q0 131 -86.5 219.5t-214.5 88.5
t-214.5 -88.5t-86.5 -219.5q0 -132 86.5 -221t214.5 -89z" />
    <glyph glyph-name="uni042F" unicode="&#x42f;" horiz-adv-x="604" 
d="M484 660q17 0 17 -17v-636q0 -17 -16 -17t-16 17v280h-179q-15 0 -22 1l-198 -290q-5 -8 -14 -8q-16 0 -16 16q0 6 3 9l189 278q-68 14 -106.5 62t-38.5 118q0 85 55.5 136t147.5 51h194zM469 316v315h-177q-78 0 -125 -43t-47 -114q0 -72 47 -115t125 -43h177z" />
    <glyph glyph-name="uni0430" unicode="&#x430;" horiz-adv-x="516" 
d="M252 490q81 0 127 -49.5t46 -135.5v-300q0 -6 -4.5 -10.5t-10.5 -4.5t-10.5 4.5t-4.5 10.5v80q-26 -44 -73 -69.5t-106 -25.5q-73 0 -118.5 35.5t-45.5 91.5q0 57 44.5 90.5t119.5 33.5h179v65q0 73 -38.5 114t-106.5 41q-81 0 -142 -73q-6 -7 -13 -7q-14 0 -14 13
q0 7 7 15q69 81 164 81zM217 19q74 0 126 45.5t52 110.5v38h-178q-63 0 -98 -25.5t-35 -70.5q0 -44 36.5 -71t96.5 -27z" />
    <glyph glyph-name="uni0431" unicode="&#x431;" horiz-adv-x="631" 
d="M332 473q99 0 169 -66.5t70 -168.5q0 -104 -70.5 -175.5t-176.5 -71.5q-100 0 -170 70t-70 187v97q0 69 13.5 122.5t37 90.5t64 67.5t83.5 51.5t107 44l96 35q7 3 12 3q13 0 13 -15q0 -10 -13 -15l-104 -38q-151 -54 -215 -126.5t-64 -216.5v-14q26 61 85 100t133 39z
M328 20q89 0 150 63t61 155q0 91 -60.5 148.5t-147.5 57.5q-91 0 -153 -62t-62 -150t62 -150t150 -62z" />
    <glyph glyph-name="uni0432" unicode="&#x432;" horiz-adv-x="554" 
d="M379 254q50 -12 77.5 -42.5t27.5 -75.5q0 -61 -44.5 -98.5t-118.5 -37.5h-200q-6 0 -10.5 4.5t-4.5 10.5v450q0 6 4.5 10.5t10.5 4.5h193q65 0 101.5 -30.5t36.5 -84.5q0 -38 -19 -67.5t-54 -43.5zM136 452v-187h175q51 0 80 26.5t29 72.5q0 88 -109 88h-175zM319 28
q60 0 96.5 29.5t36.5 77.5q0 47 -35.5 74.5t-97.5 27.5h-183v-209h183z" />
    <glyph glyph-name="uni0433" unicode="&#x433;" horiz-adv-x="431" 
d="M121 -10q-6 0 -10.5 4.5t-4.5 10.5v460q0 6 4.5 10.5t10.5 4.5h287q15 0 15 -14t-15 -14h-272v-447q0 -6 -4.5 -10.5t-10.5 -4.5z" />
    <glyph glyph-name="uni0434" unicode="&#x434;" horiz-adv-x="575" 
d="M510 28q6 0 10.5 -4.5t4.5 -10.5v-149q0 -6 -4.5 -10.5t-10.5 -4.5t-10.5 4.5t-4.5 10.5v136h-425v-136q0 -6 -4.5 -10.5t-10.5 -4.5t-10.5 4.5t-4.5 10.5v149q0 6 4.5 10.5t10.5 4.5h35q99 106 99 435v2q0 6 4.5 10.5t10.5 4.5h231q6 0 10.5 -4.5t4.5 -10.5v-437h60z
M219 452q0 -165 -21.5 -265t-70.5 -159h293v424h-201z" />
    <glyph glyph-name="uni0435" unicode="&#x435;" horiz-adv-x="573" 
d="M298 490q94 0 154.5 -61t60.5 -155v-16q0 -21 -19 -21h-402q1 -93 62 -155.5t152 -62.5q99 0 162 74q7 8 13 8q14 0 14 -13q0 -7 -7 -15q-74 -83 -182 -83q-103 0 -174.5 73t-71.5 177q0 105 69 177.5t169 72.5zM298 461q-81 0 -139 -56t-66 -140h389q3 84 -49 140
t-135 56z" />
    <glyph glyph-name="uni0436" unicode="&#x436;" horiz-adv-x="718" 
d="M91 484l219 -210q8 -8 8 -15t-7 -14l-245 -249q-6 -6 -12 -6t-10.5 4.5t-4.5 10.5t5 11l240 244l-215 204q-5 5 -5 11t4.5 10.5t10.5 4.5t12 -6zM359 490q15 0 15 -17v-466q0 -17 -15 -17t-15 17v466q0 17 15 17zM674 16q5 -5 5 -11t-4.5 -10.5t-10.5 -4.5t-12 6
l-245 250q-7 7 -7 13q0 7 7 14l220 211q6 6 12 6t10.5 -4.5t4.5 -10.5t-5 -11l-215 -204z" />
    <glyph glyph-name="uni0437" unicode="&#x437;" horiz-adv-x="487" 
d="M303 260q52 -14 81 -47.5t29 -80.5q0 -63 -50.5 -102.5t-130.5 -39.5q-106 0 -169 84q-5 6 -5 12q0 14 15 14q8 0 14 -9q54 -72 145 -72q67 0 108 31.5t41 83.5q0 50 -40 81t-105 31h-74q-6 0 -10.5 4.5t-4.5 10.5q0 14 15 14h81q52 0 83 26t31 69t-33 67t-93 24
q-91 0 -133 -57q-5 -7 -12 -7q-6 0 -10.5 4.5t-4.5 10.5q0 5 5 11q54 67 155 67q74 0 116 -32t42 -87q0 -84 -86 -111z" />
    <glyph glyph-name="uni0438" unicode="&#x438;" horiz-adv-x="589" 
d="M468 490q15 0 15 -17v-466q0 -17 -15 -17t-15 17v422l-319 -430q-6 -9 -13 -9q-15 0 -15 17v466q0 17 15 17t15 -17v-422l319 431q7 8 13 8z" />
    <glyph glyph-name="uni0439" unicode="&#x439;" horiz-adv-x="589" 
d="M287 593q-57 0 -96 38.5t-39 95.5q0 17 15 17t15 -17q0 -45 30.5 -75.5t74.5 -30.5t74.5 30.5t30.5 75.5q0 17 15 17t15 -17q0 -56 -39 -95t-96 -39zM468 490q15 0 15 -17v-466q0 -17 -15 -17t-15 17v422l-319 -430q-6 -9 -13 -9q-15 0 -15 17v466q0 17 15 17t15 -17
v-422l319 431q7 8 13 8z" />
    <glyph glyph-name="uni043A" unicode="&#x43a;" horiz-adv-x="480" 
d="M121 490q15 0 15 -17v-466q0 -17 -15 -17t-15 17v466q0 17 15 17zM436 16q5 -5 5 -11t-4.5 -10.5t-10.5 -4.5t-10 4l-249 253q-5 7 -5 12q0 7 6 13l222 214q4 4 10 4t10.5 -4.5t4.5 -10.5t-5 -11l-213 -203z" />
    <glyph glyph-name="uni043B" unicode="&#x43b;" horiz-adv-x="539" 
d="M416 480q17 0 17 -17v-456q0 -17 -15 -17t-15 17v445h-212v-43q0 -176 -35.5 -274t-114.5 -136q-10 -5 -16 -5q-15 0 -15 14q0 11 15 17q136 59 136 394v44q0 17 17 17h238z" />
    <glyph glyph-name="uni043C" unicode="&#x43c;" horiz-adv-x="700" 
d="M121 -10q-15 0 -15 17v466q0 17 15 17q7 0 11 -6l218 -290l218 290q4 6 11 6q15 0 15 -17v-466q0 -17 -15 -17t-15 17v421l-199 -263q-7 -9 -15 -9t-15 9l-199 263v-421q0 -17 -15 -17z" />
    <glyph glyph-name="uni043D" unicode="&#x43d;" horiz-adv-x="573" 
d="M452 490q6 0 10.5 -4.5t4.5 -10.5v-470q0 -6 -4.5 -10.5t-10.5 -4.5t-10.5 4.5t-4.5 10.5v242h-301v-242q0 -6 -4.5 -10.5t-10.5 -4.5t-10.5 4.5t-4.5 10.5v470q0 6 4.5 10.5t10.5 4.5t10.5 -4.5t4.5 -10.5v-199h301v199q0 15 15 15z" />
    <glyph glyph-name="uni043E" unicode="&#x43e;" horiz-adv-x="613" 
d="M306 490q104 0 175.5 -72.5t71.5 -177.5t-72 -177.5t-176 -72.5q-103 0 -174 72.5t-71 177.5q0 106 71 178t175 72zM306 461q-91 0 -152.5 -63.5t-61.5 -157.5t61 -157.5t152 -63.5t153.5 64t62.5 157q0 94 -62 157.5t-153 63.5z" />
    <glyph glyph-name="uni043F" unicode="&#x43f;" horiz-adv-x="564" 
d="M121 -10q-6 0 -10.5 4.5t-4.5 10.5v460q0 6 4.5 10.5t10.5 4.5h322q6 0 10.5 -4.5t4.5 -10.5v-460q0 -6 -4.5 -10.5t-10.5 -4.5t-10.5 4.5t-4.5 10.5v447h-292v-447q0 -6 -4.5 -10.5t-10.5 -4.5z" />
    <glyph glyph-name="uni0440" unicode="&#x440;" horiz-adv-x="642" 
d="M342 490q101 0 170.5 -72.5t69.5 -177.5q0 -106 -69.5 -178t-170.5 -72q-70 0 -126 35t-80 91v-291q0 -6 -4.5 -10.5t-10.5 -4.5t-10.5 4.5t-4.5 10.5v650q0 6 4.5 10.5t10.5 4.5t10.5 -4.5t4.5 -10.5v-111q24 56 80 91t126 35zM342 19q89 0 148.5 63t59.5 158
q0 94 -59.5 157.5t-148.5 63.5q-93 0 -149.5 -60.5t-56.5 -160.5t56.5 -160.5t149.5 -60.5z" />
    <glyph glyph-name="uni0441" unicode="&#x441;" horiz-adv-x="553" 
d="M305 -10q-102 0 -173.5 73t-71.5 177t71.5 177t174.5 73q114 0 186 -88q8 -9 8 -16q0 -5 -4.5 -9t-9.5 -4q-7 0 -13 7q-62 81 -167 81q-91 0 -152.5 -64t-61.5 -157t61.5 -157t151.5 -64q102 0 167 81q6 7 13 7q5 0 9.5 -4t4.5 -9q0 -7 -8 -16q-75 -88 -186 -88z" />
    <glyph glyph-name="uni0442" unicode="&#x442;" horiz-adv-x="460" 
d="M230 -10q-6 0 -10.5 4.5t-4.5 10.5v447h-174q-15 0 -15 14t15 14h378q15 0 15 -14t-15 -14h-174v-447q0 -6 -4.5 -10.5t-10.5 -4.5z" />
    <glyph glyph-name="uni0443" unicode="&#x443;" horiz-adv-x="519" 
d="M466 490q6 0 10.5 -4.5t4.5 -10.5q0 -3 -2 -8l-236 -548q-48 -109 -152 -109q-25 0 -44 6q-13 3 -13 14q0 14 14 14q2 0 17 -3t24 -3q88 0 128 94l31 73l-205 462l-2 8q0 6 4.5 10.5t10.5 4.5q12 0 16 -12l192 -437l186 437q4 12 16 12z" />
    <glyph glyph-name="uni0444" unicode="&#x444;" horiz-adv-x="685" 
d="M357 488q118 0 193 -69.5t75 -178.5q0 -112 -74.5 -181t-193.5 -69v-165q0 -6 -4.5 -10.5t-10.5 -4.5t-10.5 4.5t-4.5 10.5v165q-119 0 -193 69t-74 181q0 109 74.5 178.5t192.5 69.5v257q0 15 15 15q6 0 10.5 -4.5t4.5 -10.5v-257zM92 240q0 -100 64.5 -161t170.5 -61
v442q-105 0 -170 -61t-65 -159zM357 18q106 0 171 61t65 161q0 98 -65.5 159t-170.5 61v-442z" />
    <glyph glyph-name="uni0445" unicode="&#x445;" horiz-adv-x="467" 
d="M426 15q4 -6 4 -10q0 -6 -4.5 -10.5t-10.5 -4.5q-9 0 -14 8l-168 230l-167 -230q-5 -8 -14 -8q-6 0 -10.5 4.5t-4.5 10.5q0 4 4 10l173 237l-157 213q-4 6 -4 10q0 6 4.5 10.5t10.5 4.5q8 0 13 -8l152 -206l153 206q5 8 13 8q6 0 10.5 -4.5t4.5 -10.5q0 -4 -4 -10
l-158 -213z" />
    <glyph glyph-name="uni0446" unicode="&#x446;" horiz-adv-x="573" 
d="M433 490q6 0 10.5 -4.5t4.5 -10.5v-447h60q6 0 10.5 -4.5t4.5 -10.5v-149q0 -6 -4.5 -10.5t-10.5 -4.5t-10.5 4.5t-4.5 10.5v136h-372q-6 0 -10.5 4.5t-4.5 10.5v460q0 6 4.5 10.5t10.5 4.5t10.5 -4.5t4.5 -10.5v-447h282v447q0 15 15 15z" />
    <glyph glyph-name="uni0447" unicode="&#x447;" horiz-adv-x="527" 
d="M406 490q6 0 10.5 -4.5t4.5 -10.5v-470q0 -6 -4.5 -10.5t-10.5 -4.5t-10.5 4.5t-4.5 10.5v196q-58 -26 -131 -26q-96 0 -148 53.5t-52 151.5v95q0 15 15 15q6 0 10.5 -4.5t4.5 -10.5v-95q0 -176 169 -176q76 0 132 27v244q0 15 15 15z" />
    <glyph glyph-name="uni0448" unicode="&#x448;" horiz-adv-x="846" 
d="M121 0q-6 0 -10.5 4.5t-4.5 10.5v460q0 6 4.5 10.5t10.5 4.5t10.5 -4.5t4.5 -10.5v-447h272v447q0 6 4.5 10.5t10.5 4.5t10.5 -4.5t4.5 -10.5v-447h272v447q0 15 15 15q6 0 10.5 -4.5t4.5 -10.5v-460q0 -6 -4.5 -10.5t-10.5 -4.5h-604z" />
    <glyph glyph-name="uni0449" unicode="&#x449;" horiz-adv-x="865" 
d="M800 -151q-6 0 -10.5 4.5t-4.5 10.5v136h-664q-6 0 -10.5 4.5t-4.5 10.5v460q0 6 4.5 10.5t10.5 4.5t10.5 -4.5t4.5 -10.5v-447h272v447q0 6 4.5 10.5t10.5 4.5t10.5 -4.5t4.5 -10.5v-447h272v447q0 15 15 15q6 0 10.5 -4.5t4.5 -10.5v-447h60q6 0 10.5 -4.5t4.5 -10.5
v-149q0 -6 -4.5 -10.5t-10.5 -4.5z" />
    <glyph glyph-name="uni044A" unicode="&#x44a;" horiz-adv-x="555" 
d="M141 0q-6 0 -10.5 4.5t-4.5 10.5v437h-103q-15 0 -15 14t15 14h118q6 0 10.5 -4.5t4.5 -10.5v-167h170q77 0 123 -40t46 -108t-46 -109t-123 -41h-185zM156 28h168q64 0 101.5 33t37.5 88t-37.5 88t-101.5 33h-168v-242z" />
    <glyph glyph-name="uni044B" unicode="&#x44b;" horiz-adv-x="756" 
d="M121 490q6 0 10.5 -4.5t4.5 -10.5v-177h170q80 0 124.5 -41.5t44.5 -106.5q0 -66 -44.5 -108t-124.5 -42h-185q-6 0 -10.5 4.5t-4.5 10.5v460q0 15 15 15zM635 -10q-6 0 -10.5 4.5t-4.5 10.5v470q0 15 15 15q6 0 10.5 -4.5t4.5 -10.5v-470q0 -6 -4.5 -10.5t-10.5 -4.5z
M304 270h-168v-242h168q66 0 102.5 34t36.5 87t-36.5 87t-102.5 34z" />
    <glyph glyph-name="uni044C" unicode="&#x44c;" horiz-adv-x="535" 
d="M121 490q6 0 10.5 -4.5t4.5 -10.5v-177h170q80 0 124.5 -41.5t44.5 -106.5q0 -66 -44.5 -108t-124.5 -42h-185q-6 0 -10.5 4.5t-4.5 10.5v460q0 15 15 15zM304 270h-168v-242h168q66 0 102.5 34t36.5 87t-36.5 87t-102.5 34z" />
    <glyph glyph-name="uni044D" unicode="&#x44d;" horiz-adv-x="556" 
d="M252 490q103 0 174.5 -73t71.5 -177t-71.5 -177t-173.5 -73q-111 0 -186 88q-8 9 -8 16q0 5 4.5 9t9.5 4q7 0 13 -7q65 -81 167 -81q89 0 150 63t63 154h-272q-15 0 -15 14t15 14h271q-8 85 -68 141t-145 56q-105 0 -167 -81q-6 -7 -13 -7q-5 0 -9.5 4t-4.5 9q0 7 8 16
q72 88 186 88z" />
    <glyph glyph-name="uni044E" unicode="&#x44e;" horiz-adv-x="847" 
d="M540 490q103 0 175 -73t72 -177t-72.5 -177t-175.5 -73q-102 0 -173.5 73t-71.5 177v6h-158v-241q0 -6 -4.5 -10.5t-10.5 -4.5t-10.5 4.5t-4.5 10.5v470q0 15 15 15q6 0 10.5 -4.5t4.5 -10.5v-201h160q12 93 81 154.5t163 61.5zM539 19q91 0 153.5 64t62.5 157
q0 94 -62 157.5t-153 63.5t-152.5 -63.5t-61.5 -157.5q0 -93 61.5 -157t151.5 -64z" />
    <glyph glyph-name="uni044F" unicode="&#x44f;" horiz-adv-x="555" 
d="M432 480q17 0 17 -17v-456q0 -17 -15 -17t-15 17v175h-170h-15l-162 -186q-6 -6 -12 -6t-10.5 4.5t-4.5 10.5q0 5 5 11l150 171q-57 12 -88.5 49.5t-31.5 93.5q0 68 46 109t123 41h183zM419 210v242h-168q-64 0 -101.5 -33t-37.5 -88t37.5 -88t101.5 -33h168z" />
    <glyph glyph-name="uni0450" unicode="&#x450;" horiz-adv-x="573" 
d="M282 573l-86 176q-4 10 -4 14q0 5 4 9t10 4q11 0 16 -11l84 -184q2 -4 2 -8q0 -12 -12 -12q-8 0 -14 12zM298 490q94 0 154.5 -61t60.5 -155v-16q0 -21 -19 -21h-402q1 -93 62 -155.5t152 -62.5q99 0 162 74q7 8 13 8q14 0 14 -13q0 -7 -7 -15q-74 -83 -182 -83
q-103 0 -174.5 73t-71.5 177q0 105 69 177.5t169 72.5zM298 461q-81 0 -139 -56t-66 -140h389q3 84 -49 140t-135 56z" />
    <glyph glyph-name="uni0451" unicode="&#x451;" horiz-adv-x="573" 
d="M205 633q-14 0 -23.5 9.5t-9.5 23.5t9.5 23.5t23.5 9.5t23.5 -9.5t9.5 -23.5t-9.5 -23.5t-23.5 -9.5zM397 633q-14 0 -23.5 9.5t-9.5 23.5t9.5 23.5t23.5 9.5t23.5 -9.5t9.5 -23.5t-9.5 -23.5t-23.5 -9.5zM298 490q94 0 154.5 -61t60.5 -155v-16q0 -21 -19 -21h-402
q1 -93 62 -155.5t152 -62.5q99 0 162 74q7 8 13 8q14 0 14 -13q0 -7 -7 -15q-74 -83 -182 -83q-103 0 -174.5 73t-71.5 177q0 105 69 177.5t169 72.5zM298 461q-81 0 -139 -56t-66 -140h389q3 84 -49 140t-135 56z" />
    <glyph glyph-name="uni0452" unicode="&#x452;" horiz-adv-x="565" 
d="M286 490q81 0 127.5 -51.5t46.5 -133.5v-360q0 -70 -37 -102.5t-99 -32.5q-25 0 -42 4q-15 3 -15 15q0 14 14 14q4 0 16 -2.5t25 -2.5q108 0 108 107v360q0 70 -39 113t-106 43q-68 0 -112 -44t-44 -112v-288q0 -17 -15 -17t-15 17v587h-73q-15 0 -15 14t15 14h73v101
q0 17 15 17t15 -17v-101h197q15 0 15 -14t-15 -14h-197v-201q48 87 157 87z" />
    <glyph glyph-name="uni0453" unicode="&#x453;" horiz-adv-x="431" 
d="M244 561q-12 0 -12 12q0 4 2 8l84 184q5 11 16 11q6 0 10 -4t4 -9q0 -4 -4 -14l-86 -176q-6 -12 -14 -12zM121 -10q-6 0 -10.5 4.5t-4.5 10.5v460q0 6 4.5 10.5t10.5 4.5h287q15 0 15 -14t-15 -14h-272v-447q0 -6 -4.5 -10.5t-10.5 -4.5z" />
    <glyph glyph-name="uni0454" unicode="&#x454;" horiz-adv-x="558" 
d="M485 107q5 0 9.5 -4t4.5 -9q0 -7 -8 -16q-75 -88 -186 -88q-102 0 -173.5 73t-71.5 177t71.5 177t174.5 73q114 0 186 -88q8 -9 8 -16q0 -5 -4.5 -9t-9.5 -4q-7 0 -13 7q-62 81 -167 81q-85 0 -145 -56t-68 -141h271q15 0 15 -14t-15 -14h-272q2 -91 63 -154t150 -63
q102 0 167 81q6 7 13 7z" />
    <glyph glyph-name="uni0455" unicode="&#x455;" horiz-adv-x="455" 
d="M232 -10q-56 0 -102 27t-75 72q-4 6 -4 11q0 6 4.5 11t11.5 5t13 -7q62 -90 154 -90q51 0 85.5 25t34.5 72q0 23 -8 40t-26.5 30.5t-32 21t-42.5 20.5l-42 19q-27 12 -43.5 21t-36 24t-28.5 34.5t-9 44.5q0 54 43.5 86.5t102.5 32.5q84 0 142 -67q8 -10 8 -14
q0 -6 -4 -11t-10 -5q-7 0 -15 9q-51 59 -123 59q-46 0 -79 -22.5t-33 -66.5q0 -26 15 -45t32 -28t54 -26l45 -20q59 -27 90.5 -56t31.5 -79q0 -60 -45 -94t-109 -34z" />
    <glyph glyph-name="uni0456" unicode="&#x456;" horiz-adv-x="260" 
d="M130 699q14 0 23.5 -9.5t9.5 -23.5t-9.5 -23.5t-23.5 -9.5t-23.5 9.5t-9.5 23.5t9.5 23.5t23.5 9.5zM130 -10q-6 0 -10.5 4.5t-4.5 10.5v470q0 15 15 15q6 0 10.5 -4.5t4.5 -10.5v-470q0 -6 -4.5 -10.5t-10.5 -4.5z" />
    <glyph glyph-name="uni0457" unicode="&#x457;" horiz-adv-x="260" 
d="M49 700q14 0 24 -10t10 -24t-10 -24t-24 -10t-24 10t-10 24t10 24t24 10zM210 700q14 0 24 -10t10 -24t-10 -24t-24 -10t-24 10t-10 24t10 24t24 10zM130 -10q-6 0 -10.5 4.5t-4.5 10.5v470q0 15 15 15q6 0 10.5 -4.5t4.5 -10.5v-470q0 -6 -4.5 -10.5t-10.5 -4.5z" />
    <glyph glyph-name="uni0458" unicode="&#x458;" horiz-adv-x="260" 
d="M130 699q14 0 23.5 -9.5t9.5 -23.5t-9.5 -23.5t-23.5 -9.5t-23.5 9.5t-9.5 23.5t9.5 23.5t23.5 9.5zM9 -190q-24 0 -40 4q-14 4 -14 15q0 13 14 13q2 0 15 -2t23 -2q108 0 108 107v530q0 15 15 15q6 0 10.5 -4.5t4.5 -10.5v-530q0 -70 -37 -102.5t-99 -32.5z" />
    <glyph glyph-name="uni0459" unicode="&#x459;" horiz-adv-x="832" 
d="M603 298q77 0 123 -40t46 -108t-46 -109t-123 -41h-183q-17 0 -17 17v435h-212v-43q0 -176 -35.5 -274t-114.5 -136q-10 -5 -16 -5q-15 0 -15 14q0 11 15 17q136 54 136 394v44q0 17 17 17h238q17 0 17 -17v-165h170zM601 28q64 0 101.5 33t37.5 88t-37.5 88t-101.5 33
h-168v-242h168z" />
    <glyph glyph-name="uni045A" unicode="&#x45a;" horiz-adv-x="856" 
d="M627 285q80 0 124.5 -37t44.5 -103q0 -68 -45 -106.5t-124 -38.5h-185q-6 0 -10.5 4.5t-4.5 10.5v242h-291v-252q0 -6 -4.5 -10.5t-10.5 -4.5t-10.5 4.5t-4.5 10.5v470q0 6 4.5 10.5t10.5 4.5t10.5 -4.5t4.5 -10.5v-190h291v190q0 15 15 15q6 0 10.5 -4.5t4.5 -10.5v-190
h170zM625 28q65 0 102 31t37 85q0 53 -37 83t-102 30h-168v-229h168z" />
    <glyph glyph-name="uni045B" unicode="&#x45b;" horiz-adv-x="565" 
d="M286 490q80 0 127 -50t47 -135v-300q0 -6 -4.5 -10.5t-10.5 -4.5t-10.5 4.5t-4.5 10.5v300q0 71 -39.5 113.5t-105.5 42.5q-68 0 -112 -44t-44 -112v-300q0 -6 -4.5 -10.5t-10.5 -4.5t-10.5 4.5t-4.5 10.5v599h-73q-15 0 -15 14t15 14h73v113q0 15 15 15q6 0 10.5 -4.5
t4.5 -10.5v-113h197q15 0 15 -14t-15 -14h-197v-201q49 87 157 87z" />
    <glyph glyph-name="uni045C" unicode="&#x45c;" horiz-adv-x="480" 
d="M254 561q-12 0 -12 12q0 4 2 8l84 184q5 11 16 11q6 0 10 -4t4 -9q0 -4 -4 -14l-86 -176q-6 -12 -14 -12zM121 490q15 0 15 -17v-466q0 -17 -15 -17t-15 17v466q0 17 15 17zM436 16q5 -5 5 -11t-4.5 -10.5t-10.5 -4.5t-10 4l-249 253q-5 7 -5 12q0 7 6 13l222 214
q4 4 10 4t10.5 -4.5t4.5 -10.5t-5 -11l-213 -203z" />
    <glyph glyph-name="uni045D" unicode="&#x45d;" horiz-adv-x="589" 
d="M268 573l-86 176q-4 10 -4 14q0 5 4 9t10 4q11 0 16 -11l84 -184q2 -4 2 -8q0 -12 -12 -12q-8 0 -14 12zM468 490q15 0 15 -17v-466q0 -17 -15 -17t-15 17v422l-319 -430q-6 -9 -13 -9q-15 0 -15 17v466q0 17 15 17t15 -17v-422l319 431q7 8 13 8z" />
    <glyph glyph-name="uni045E" unicode="&#x45e;" horiz-adv-x="519" 
d="M259 593q-57 0 -96 38.5t-39 95.5q0 17 15 17t15 -17q0 -45 30.5 -75.5t74.5 -30.5t74.5 30.5t30.5 75.5q0 17 15 17t15 -17q0 -56 -39 -95t-96 -39zM466 490q6 0 10.5 -4.5t4.5 -10.5q0 -3 -2 -8l-236 -548q-48 -109 -152 -109q-25 0 -44 6q-13 3 -13 14q0 14 14 14
q2 0 17 -3t24 -3q88 0 128 94l31 73l-205 462l-2 8q0 6 4.5 10.5t10.5 4.5q12 0 16 -12l192 -437l186 437q4 12 16 12z" />
    <glyph glyph-name="uni045F" unicode="&#x45f;" horiz-adv-x="554" 
d="M433 490q6 0 10.5 -4.5t4.5 -10.5v-460q0 -6 -4.5 -10.5t-10.5 -4.5h-141v-136q0 -6 -4.5 -10.5t-10.5 -4.5t-10.5 4.5t-4.5 10.5v136h-141q-6 0 -10.5 4.5t-4.5 10.5v460q0 6 4.5 10.5t10.5 4.5t10.5 -4.5t4.5 -10.5v-446h282v446q0 15 15 15z" />
    <glyph glyph-name="uni0462" unicode="&#x462;" horiz-adv-x="620" 
d="M357 373q93 0 148 -50.5t55 -135.5t-55.5 -136t-147.5 -51h-237q-17 0 -17 17v497h-73q-15 0 -15 14t15 14h73v111q0 17 16 17t16 -17v-111h275q15 0 15 -14t-15 -14h-275v-141h222zM355 29q78 0 125 43t47 114q0 72 -47 115t-125 43h-220v-315h220z" />
    <glyph glyph-name="uni0463" unicode="&#x463;" horiz-adv-x="528" 
d="M114 0q-6 0 -10.5 4.5t-4.5 10.5v437h-73q-15 0 -15 14t15 14h73v265q0 15 15 15q6 0 10.5 -4.5t4.5 -10.5v-265h197q15 0 15 -14t-15 -14h-197v-154h170q77 0 123 -40t46 -108t-46 -109t-123 -41h-185zM129 28h168q64 0 101.5 33t37.5 88t-37.5 88t-101.5 33h-168v-242z
" />
    <glyph glyph-name="uni0472" unicode="&#x472;" horiz-adv-x="784" 
d="M391 670q141 0 238.5 -98.5t97.5 -241.5t-97.5 -241.5t-238.5 -98.5q-140 0 -237 98.5t-97 241.5t96.5 241.5t237.5 98.5zM392 639q-120 0 -204 -78t-95 -198q90 37 158 37q55 0 144.5 -27t142.5 -27q69 0 152 33q-16 114 -99 187t-199 73zM392 21q128 0 214.5 89
t86.5 221v17q-82 -33 -155 -33q-57 0 -146.5 27t-140.5 27q-70 0 -160 -37v-1q0 -132 86.5 -221t214.5 -89z" />
    <glyph glyph-name="uni0473" unicode="&#x473;" horiz-adv-x="613" 
d="M306 490q102 0 174.5 -73t72.5 -177t-72.5 -177t-175.5 -73q-102 0 -173.5 73t-71.5 177t71.5 177t174.5 73zM306 461q-86 0 -145.5 -57t-67.5 -142q57 22 107 22q41 0 107.5 -20t105.5 -20q48 0 107 22q-10 84 -70 139.5t-144 55.5zM306 19q91 0 152.5 63.5t62.5 156.5
q-57 -23 -108 -23q-42 0 -108.5 20t-104.5 20q-47 0 -108 -23q3 -91 64 -152.5t150 -61.5z" />
    <glyph glyph-name="uni0474" unicode="&#x474;" horiz-adv-x="695" 
d="M669 670q31 0 31 -17q0 -14 -15 -14q-3 0 -8 0.5t-8 0.5q-56 0 -87 -74l-235 -566q-5 -10 -14 -10q-10 0 -15 10l-268 646q-2 6 -2 9q0 7 5 11t10 4q11 0 16 -12l253 -618l222 540q37 90 115 90z" />
    <glyph glyph-name="uni0475" unicode="&#x475;" horiz-adv-x="534" 
d="M507 483q27 0 27 -15q0 -14 -17 -14q-27 0 -40.5 -10.5t-29.5 -44.5l-175 -398q-5 -11 -14 -11t-14 11l-203 464q-3 6 -3 10q0 6 4.5 10.5t10.5 4.5q11 0 16 -12l189 -437l162 372q31 70 87 70z" />
    <glyph glyph-name="uni0490" unicode="&#x490;" horiz-adv-x="480" 
d="M440 791q16 0 16 -17v-126q0 -17 -17 -17h-304v-624q0 -17 -16 -17t-16 17v636q0 17 17 17h304v114q0 17 16 17z" />
    <glyph glyph-name="uni0491" unicode="&#x491;" horiz-adv-x="431" 
d="M406 611q6 0 10.5 -4.5t4.5 -10.5v-129q0 -6 -4.5 -10.5t-10.5 -4.5h-270v-447q0 -6 -4.5 -10.5t-10.5 -4.5t-10.5 4.5t-4.5 10.5v460q0 6 4.5 10.5t10.5 4.5h270v116q0 15 15 15z" />
    <glyph glyph-name="uni0492" unicode="&#x492;" horiz-adv-x="484" 
d="M456 660q15 0 15 -14q0 -6 -4.5 -10.5t-10.5 -4.5h-318v-276h271q15 0 15 -14q0 -6 -4.5 -10.5t-10.5 -4.5h-271v-319q0 -17 -16 -17t-16 17v319h-93q-6 0 -10.5 4.5t-4.5 10.5q0 14 15 14h93v288q0 17 17 17h333z" />
    <glyph glyph-name="uni0493" unicode="&#x493;" horiz-adv-x="454" 
d="M421 480q15 0 15 -14t-15 -14h-292v-191h248q15 0 15 -14t-15 -14h-248v-228q0 -6 -4.5 -10.5t-10.5 -4.5t-10.5 4.5t-4.5 10.5v228h-73q-15 0 -15 14t15 14h73v204q0 6 4.5 10.5t10.5 4.5h307z" />
    <glyph glyph-name="uni0496" unicode="&#x496;" horiz-adv-x="917" 
d="M412 371q7 -6 7 -13q0 -6 -6 -12l-336 -349q-7 -7 -14 -7q-16 0 -16 16q0 6 6 12l331 341l-306 283q-6 6 -6 12q0 16 16 16q7 0 14 -7zM460 670q16 0 16 -17v-646q0 -17 -16 -17t-16 17v646q0 17 16 17zM877 19q17 0 17 -17v-136q0 -17 -16 -17t-16 17v124h-7q-7 0 -14 7
l-334 349q-6 6 -6 12q0 7 7 13l310 292q7 7 14 7q16 0 16 -16q0 -6 -6 -12l-306 -283l328 -340h13z" />
    <glyph glyph-name="uni0497" unicode="&#x497;" horiz-adv-x="752" 
d="M91 484l219 -210q8 -8 8 -15t-7 -14l-245 -249q-6 -6 -12 -6t-10.5 4.5t-4.5 10.5t5 11l240 244l-215 204q-5 5 -5 11t4.5 10.5t10.5 4.5t12 -6zM359 490q15 0 15 -17v-466q0 -17 -15 -17t-15 17v466q0 17 15 17zM685 18q17 0 17 -17v-135q0 -17 -15 -17t-15 17v124h-8
q-6 0 -12 6l-245 250q-7 7 -7 13q0 7 7 14l220 211q6 6 12 6t10.5 -4.5t4.5 -10.5t-5 -11l-215 -204l238 -242h13z" />
    <glyph glyph-name="uni0498" unicode="&#x498;" horiz-adv-x="577" 
d="M522 188q0 -75 -52.5 -129.5t-135.5 -65.5q31 -35 31 -80t-31.5 -74t-80.5 -29q-30 0 -51 6q-16 4 -16 15q0 14 14 14q2 0 18 -3.5t32 -3.5q38 0 60.5 21t22.5 56q0 49 -38 75h-1q-142 0 -228 123q-5 8 -5 13q0 15 14 15q9 0 15 -9q79 -111 203 -111q84 0 140 47.5
t56 118.5q0 68 -48.5 113t-123.5 45h-132q-15 0 -15 15t15 15h109q64 0 102 35.5t38 95.5q0 61 -40.5 97t-109.5 36q-100 0 -167 -79q-7 -8 -13 -8t-11 4t-5 10t6 14q78 90 191 90q81 0 131.5 -45t50.5 -118q0 -50 -25 -87t-70 -55q69 -14 109.5 -61.5t40.5 -115.5z" />
    <glyph glyph-name="uni0499" unicode="&#x499;" horiz-adv-x="487" 
d="M413 132q0 -56 -40.5 -94t-107.5 -46q30 -36 30 -79q0 -45 -31.5 -74t-80.5 -29q-30 0 -51 6q-16 4 -16 15q0 14 14 14q2 0 18 -3.5t32 -3.5q38 0 60.5 21t22.5 56q0 50 -39 75q-100 3 -161 84q-5 6 -5 12q0 14 15 14q8 0 14 -9q54 -72 145 -72q67 0 108 31.5t41 83.5
q0 50 -40 81t-105 31h-74q-6 0 -10.5 4.5t-4.5 10.5q0 14 15 14h81q52 0 83 26t31 69t-33 67t-93 24q-91 0 -133 -57q-5 -7 -12 -7q-6 0 -10.5 4.5t-4.5 10.5q0 5 5 11q54 67 155 67q74 0 116 -32t42 -87q0 -84 -86 -111q52 -14 81 -47.5t29 -80.5z" />
    <glyph glyph-name="uni049A" unicode="&#x49a;" horiz-adv-x="598" 
d="M119 670q16 0 16 -17v-646q0 -17 -16 -17t-16 17v646q0 17 16 17zM558 19q17 0 17 -17v-136q0 -17 -16 -17t-16 17v124h-7q-7 0 -17 10l-352 346q-6 6 -6 12q0 7 7 13l320 284q17 15 23 15q7 0 11.5 -4.5t4.5 -10.5q0 -7 -9 -15l-320 -282l345 -339h15z" />
    <glyph glyph-name="uni049B" unicode="&#x49b;" horiz-adv-x="514" 
d="M121 490q15 0 15 -17v-466q0 -17 -15 -17t-15 17v466q0 17 15 17zM447 18q17 0 17 -17v-135q0 -17 -15 -17t-15 17v124h-8q-6 0 -10 4l-249 253q-5 7 -5 12q0 7 6 13l222 214q4 4 10 4t10.5 -4.5t4.5 -10.5t-5 -11l-213 -203l237 -243h13z" />
    <glyph glyph-name="uni04A0" unicode="&#x4a0;" horiz-adv-x="629" 
d="M576 15q6 -6 6 -13q0 -5 -4.5 -9.5t-10.5 -4.5q-7 0 -17 10l-352 346q-5 5 -5 12t6 13l320 284q16 15 24 15q15 0 15 -15q0 -7 -9 -15l-319 -283zM149 660q17 0 17 -17v-636q0 -17 -16 -17t-16 17v624h-111q-6 0 -10.5 4.5t-4.5 10.5q0 14 15 14h126z" />
    <glyph glyph-name="uni04A1" unicode="&#x4a1;" horiz-adv-x="500" 
d="M456 16q5 -5 5 -11t-4.5 -10.5t-10.5 -4.5t-10 4l-249 253q-5 7 -5 12q0 7 6 13l222 214q4 4 10 4t10.5 -4.5t4.5 -10.5t-5 -11l-213 -203zM139 480q17 0 17 -17v-456q0 -17 -15 -17t-15 17v445h-101q-15 0 -15 14t15 14h114z" />
    <glyph glyph-name="uni04A2" unicode="&#x4a2;" horiz-adv-x="714" 
d="M585 670q16 0 16 -17v-624h57q17 0 17 -17v-146q0 -17 -16 -17t-16 17v134h-57q-17 0 -17 17v328h-434v-338q0 -17 -16 -17t-16 17v646q0 17 16 17t16 -17v-279h434v279q0 17 16 17z" />
    <glyph glyph-name="uni04A3" unicode="&#x4a3;" horiz-adv-x="592" 
d="M527 -151q-6 0 -10.5 4.5t-4.5 10.5v136h-60q-6 0 -10.5 4.5t-4.5 10.5v232h-301v-242q0 -6 -4.5 -10.5t-10.5 -4.5t-10.5 4.5t-4.5 10.5v470q0 6 4.5 10.5t10.5 4.5t10.5 -4.5t4.5 -10.5v-200h301v200q0 15 15 15q6 0 10.5 -4.5t4.5 -10.5v-447h60q6 0 10.5 -4.5
t4.5 -10.5v-149q0 -6 -4.5 -10.5t-10.5 -4.5z" />
    <glyph glyph-name="uni04AA" unicode="&#x4aa;" horiz-adv-x="709" 
d="M637 139q14 0 14 -15q0 -6 -6 -14q-84 -104 -216 -118q30 -36 30 -79q0 -45 -31.5 -74t-80.5 -29q-30 0 -51 6q-16 4 -16 15q0 14 14 14q2 0 18 -3.5t32 -3.5q38 0 60.5 21t22.5 56q0 50 -39 75q-140 1 -235.5 99t-95.5 241t96.5 241.5t237.5 98.5q157 0 254 -120
q6 -8 6 -14q0 -15 -14 -15q-8 0 -15 8q-87 110 -231 110q-127 0 -213.5 -89t-86.5 -220q0 -132 86 -220.5t214 -88.5q144 0 231 110q7 8 15 8z" />
    <glyph glyph-name="uni04AB" unicode="&#x4ab;" horiz-adv-x="553" 
d="M485 107q5 0 9.5 -4t4.5 -9q0 -7 -8 -16q-64 -74 -149 -86q30 -34 30 -79t-31.5 -74t-80.5 -29q-30 0 -51 6q-16 4 -16 15q0 14 14 14q2 0 18 -3.5t32 -3.5q38 0 60.5 21t22.5 56q0 50 -39 75q-101 1 -171 74t-70 176q0 104 71.5 177t174.5 73q114 0 186 -88q8 -9 8 -16
q0 -5 -4.5 -9t-9.5 -4q-7 0 -13 7q-62 81 -167 81q-91 0 -152.5 -64t-61.5 -157t61.5 -157t151.5 -64q102 0 167 81q6 7 13 7z" />
    <glyph glyph-name="uni04AE" unicode="&#x4ae;" horiz-adv-x="610" 
d="M546 656q0 -4 -5 -12l-220 -359v-278q0 -17 -16 -17t-16 17v279l-220 357q-5 7 -5 13q0 14 15 14q8 0 13 -8l213 -349l213 349q5 8 13 8q15 0 15 -14z" />
    <glyph glyph-name="uni04AF" unicode="&#x4af;" horiz-adv-x="514" 
d="M462 490q6 0 10.5 -4.5t4.5 -10.5q0 -4 -2 -8l-204 -466v-174q0 -17 -15 -17t-15 17v179l-202 461q-2 4 -2 8q0 6 4.5 10.5t10.5 4.5q11 0 16 -12l189 -437l189 437q5 12 16 12z" />
    <glyph glyph-name="uni04B0" unicode="&#x4b0;" horiz-adv-x="614" 
d="M543 644l-220 -359v-7h198q15 0 15 -14q0 -6 -4.5 -10.5t-10.5 -4.5h-198v-242q0 -17 -16 -17t-16 17v242h-200q-6 0 -10.5 4.5t-4.5 10.5q0 14 15 14h200v8l-220 357q-5 7 -5 13q0 14 15 14q8 0 13 -8l213 -349l213 349q5 8 13 8q15 0 15 -14q0 -4 -5 -12z" />
    <glyph glyph-name="uni04B1" unicode="&#x4b1;" horiz-adv-x="536" 
d="M488 475q0 -4 -2 -8l-192 -439h139q15 0 15 -14t-15 -14h-151v-173q0 -17 -15 -17t-15 17v173h-149q-15 0 -15 14t15 14h139l-192 439q-2 4 -2 8q0 6 4.5 10.5t10.5 4.5q11 0 16 -12l189 -437l189 437q5 12 16 12q6 0 10.5 -4.5t4.5 -10.5z" />
    <glyph glyph-name="uni04B2" unicode="&#x4b2;" horiz-adv-x="575" 
d="M544 19q17 0 17 -17v-136q0 -17 -16 -17t-16 17l-1 124h-11q-8 0 -15 10l-212 313l-213 -313q-7 -10 -15 -10q-15 0 -15 15q0 5 5 12l220 323l-205 305q-3 5 -3 10q0 15 15 15q8 0 15 -10l197 -295l194 295q7 10 15 10q15 0 15 -15q0 -5 -5 -13l-201 -303l217 -320h18z
" />
    <glyph glyph-name="uni04B3" unicode="&#x4b3;" horiz-adv-x="467" 
d="M437 18q17 0 17 -17v-135q0 -17 -15 -17t-15 17v124h-8h-1q-9 0 -14 8l-168 230l-167 -230q-5 -8 -14 -8q-6 0 -10.5 4.5t-4.5 10.5q0 4 4 10l173 237l-157 213q-4 6 -4 10q0 6 4.5 10.5t10.5 4.5q8 0 13 -8l152 -206l153 206q5 8 13 8q6 0 10.5 -4.5t4.5 -10.5
q0 -4 -4 -10l-158 -213l172 -234h13z" />
    <glyph glyph-name="uni04B6" unicode="&#x4b6;" horiz-adv-x="616" 
d="M560 29q17 0 17 -17v-146q0 -17 -16 -17t-16 17v134h-57q-17 0 -17 17v273q-70 -32 -160 -32q-117 0 -185.5 68.5t-68.5 195.5v131q0 17 16 17t16 -17v-131q0 -115 60.5 -174t162.5 -59q93 0 159 33v331q0 17 16 17t16 -17v-624h57z" />
    <glyph glyph-name="uni04B7" unicode="&#x4b7;" horiz-adv-x="546" 
d="M481 28q6 0 10.5 -4.5t4.5 -10.5v-149q0 -6 -4.5 -10.5t-10.5 -4.5t-10.5 4.5t-4.5 10.5v136h-60q-6 0 -10.5 4.5t-4.5 10.5v186q-58 -26 -131 -26q-96 0 -148 53.5t-52 151.5v95q0 15 15 15q6 0 10.5 -4.5t4.5 -10.5v-95q0 -176 169 -176q76 0 132 27v244q0 15 15 15
q6 0 10.5 -4.5t4.5 -10.5v-447h60z" />
    <glyph glyph-name="uni04BA" unicode="&#x4ba;" horiz-adv-x="605" 
d="M286 392q103 0 158.5 -63t55.5 -181v-141q0 -17 -16 -17t-16 17v141q0 105 -46.5 159t-136.5 54q-78 0 -150 -32v-322q0 -17 -16 -17t-16 17v646q0 17 16 17t16 -17v-292q74 31 151 31z" />
    <glyph glyph-name="uni04BB" unicode="&#x4bb;" horiz-adv-x="572" 
d="M293 490q80 0 127 -50t47 -135v-300q0 -6 -4.5 -10.5t-10.5 -4.5t-10.5 4.5t-4.5 10.5v300q0 71 -39.5 113.5t-105.5 42.5q-68 0 -112 -44t-44 -112v-300q0 -6 -4.5 -10.5t-10.5 -4.5t-10.5 4.5t-4.5 10.5v740q0 6 4.5 10.5t10.5 4.5t10.5 -4.5t4.5 -10.5v-342
q49 87 157 87z" />
    <glyph glyph-name="uni04C0" unicode="&#x4c0;" horiz-adv-x="238" 
d="M119 670q16 0 16 -17v-646q0 -17 -16 -17t-16 17v646q0 17 16 17z" />
    <glyph glyph-name="uni04C1" unicode="&#x4c1;" horiz-adv-x="918" 
d="M460 747q-55 0 -94.5 35.5t-39.5 84.5q0 18 15 18t15 -18q2 -38 32 -65t72 -27t72.5 27t31.5 65q0 18 15 18t15 -18q0 -49 -39.5 -84.5t-94.5 -35.5zM412 371q7 -6 7 -13q0 -6 -6 -12l-336 -349q-7 -7 -14 -7q-16 0 -16 16q0 6 6 12l331 341l-306 283q-6 6 -6 12
q0 16 16 16q7 0 14 -7zM460 670q16 0 16 -17v-646q0 -17 -16 -17t-16 17v646q0 17 16 17zM865 18q6 -6 6 -12q0 -16 -16 -16q-7 0 -14 7l-334 349q-6 6 -6 12q0 7 7 13l310 292q7 7 14 7q16 0 16 -16q0 -6 -6 -12l-306 -283z" />
    <glyph glyph-name="uni04C2" unicode="&#x4c2;" horiz-adv-x="718" 
d="M359 593q-57 0 -96 38.5t-39 95.5q0 17 15 17t15 -17q0 -45 30.5 -75.5t74.5 -30.5t74.5 30.5t30.5 75.5q0 17 15 17t15 -17q0 -56 -39 -95t-96 -39zM91 484l219 -210q8 -8 8 -15t-7 -14l-245 -249q-6 -6 -12 -6t-10.5 4.5t-4.5 10.5t5 11l240 244l-215 204q-5 5 -5 11
t4.5 10.5t10.5 4.5t12 -6zM359 490q15 0 15 -17v-466q0 -17 -15 -17t-15 17v466q0 17 15 17zM674 16q5 -5 5 -11t-4.5 -10.5t-10.5 -4.5t-12 6l-245 250q-7 7 -7 13q0 7 7 14l220 211q6 6 12 6t10.5 -4.5t4.5 -10.5t-5 -11l-215 -204z" />
    <glyph glyph-name="uni04CF" unicode="&#x4cf;" horiz-adv-x="242" 
d="M121 -10q-6 0 -10.5 4.5t-4.5 10.5v740q0 15 15 15q6 0 10.5 -4.5t4.5 -10.5v-740q0 -6 -4.5 -10.5t-10.5 -4.5z" />
    <glyph glyph-name="uni04D0" unicode="&#x4d0;" horiz-adv-x="665" 
d="M333 747q-55 0 -94.5 35.5t-39.5 84.5q0 18 15 18t15 -18q2 -38 32 -65t72 -27t72.5 27t31.5 65q0 18 15 18t15 -18q0 -49 -39.5 -84.5t-94.5 -35.5zM614 14q3 -8 3 -11q0 -13 -15 -13q-12 0 -16 12l-71 173h-365l-71 -173q-5 -12 -16 -12q-15 0 -15 13q0 3 3 11l267 645
q3 11 15 11t15 -11zM333 619l-171 -415h341z" />
    <glyph glyph-name="uni04D1" unicode="&#x4d1;" horiz-adv-x="516" 
d="M251 593q-57 0 -96 38.5t-39 95.5q0 17 15 17t15 -17q0 -45 30.5 -75.5t74.5 -30.5t74.5 30.5t30.5 75.5q0 17 15 17t15 -17q0 -56 -39 -95t-96 -39zM252 490q81 0 127 -49.5t46 -135.5v-300q0 -6 -4.5 -10.5t-10.5 -4.5t-10.5 4.5t-4.5 10.5v80q-26 -44 -73 -69.5
t-106 -25.5q-73 0 -118.5 35.5t-45.5 91.5q0 57 44.5 90.5t119.5 33.5h179v65q0 73 -38.5 114t-106.5 41q-81 0 -142 -73q-6 -7 -13 -7q-14 0 -14 13q0 7 7 15q69 81 164 81zM217 19q74 0 126 45.5t52 110.5v38h-178q-63 0 -98 -25.5t-35 -70.5q0 -44 36.5 -71t96.5 -27z
" />
    <glyph glyph-name="uni04D4" unicode="&#x4d4;" horiz-adv-x="796" 
d="M743 29q15 0 15 -14q0 -6 -4.5 -10.5t-10.5 -4.5h-249q-13 0 -16 14l-29 162h-304l-91 -175q-6 -11 -15 -11q-15 0 -15 14q0 4 3 10l333 638q5 8 13 8h358q15 0 15 -14q0 -6 -4.5 -10.5t-10.5 -4.5h-330l46 -257h204q15 0 15 -14q0 -6 -4.5 -10.5t-10.5 -4.5h-199
l57 -316h234zM371 615l-211 -410h284z" />
    <glyph glyph-name="uni04D5" unicode="&#x4d5;" horiz-adv-x="908" 
d="M633 490q98 0 156.5 -62.5t58.5 -165.5v-12q0 -21 -19 -21h-402q4 -90 65 -150t149 -60q99 0 162 74q7 8 13 8q14 0 14 -13q0 -7 -7 -15q-68 -83 -182 -83q-73 0 -133 39t-90 104q-17 -64 -72 -103.5t-129 -39.5t-119.5 37.5t-45.5 98.5t44 96t120 35h179v49
q0 73 -38.5 114t-106.5 41q-84 0 -142 -73q-6 -7 -13 -7q-14 0 -14 13q0 7 7 15q66 81 164 81q69 0 112.5 -35.5t56.5 -100.5q30 62 86.5 99t125.5 37zM633 461q-83 0 -141.5 -58.5t-63.5 -145.5h389q4 88 -48.5 146t-135.5 58zM219 19q73 0 124.5 46t51.5 110v54h-178
q-64 0 -98.5 -26t-34.5 -74q0 -49 37 -79.5t98 -30.5z" />
    <glyph glyph-name="uni04D6" unicode="&#x4d6;" horiz-adv-x="561" 
d="M281 747q-55 0 -94.5 35.5t-39.5 84.5q0 18 15 18t15 -18q2 -38 32 -65t72 -27t72.5 27t31.5 65q0 18 15 18t15 -18q0 -49 -39.5 -84.5t-94.5 -35.5zM120 0q-17 0 -17 17v626q0 17 17 17h376q15 0 15 -14q0 -6 -4.5 -10.5t-10.5 -4.5h-361v-257h281q15 0 15 -14
q0 -6 -4.5 -10.5t-10.5 -4.5h-281v-316h373q15 0 15 -14q0 -6 -4.5 -10.5t-10.5 -4.5h-388z" />
    <glyph glyph-name="uni04D7" unicode="&#x4d7;" horiz-adv-x="573" 
d="M287 593q-57 0 -96 38.5t-39 95.5q0 17 15 17t15 -17q0 -45 30.5 -75.5t74.5 -30.5t74.5 30.5t30.5 75.5q0 17 15 17t15 -17q0 -56 -39 -95t-96 -39zM298 490q94 0 154.5 -61t60.5 -155v-16q0 -21 -19 -21h-402q1 -93 62 -155.5t152 -62.5q99 0 162 74q7 8 13 8
q14 0 14 -13q0 -7 -7 -15q-74 -83 -182 -83q-103 0 -174.5 73t-71.5 177q0 105 69 177.5t169 72.5zM298 461q-81 0 -139 -56t-66 -140h389q3 84 -49 140t-135 56z" />
    <glyph glyph-name="uni04D8" unicode="&#x4d8;" horiz-adv-x="730" 
d="M350 670q136 0 229.5 -97.5t93.5 -240.5t-94.5 -242.5t-231.5 -99.5q-127 0 -208.5 82t-81.5 210q0 15 2 33q2 17 16 17h564v2q0 130 -83 217.5t-207 87.5q-145 0 -234 -112q-7 -10 -15 -10q-16 0 -16 16q0 5 8 16q101 121 258 121zM349 21q114 0 196 80.5t93 201.5h-547
q-9 -120 65 -201t193 -81z" />
    <glyph glyph-name="uni04D9" unicode="&#x4d9;" horiz-adv-x="573" 
d="M267 490q103 0 174.5 -73t71.5 -177q0 -105 -69 -177.5t-169 -72.5q-94 0 -154.5 61t-60.5 155v16q0 21 19 21h402q-1 93 -62 155.5t-152 62.5q-99 0 -162 -74q-7 -8 -13 -8q-14 0 -14 13q0 7 7 15q74 83 182 83zM275 19q81 0 139 56t66 140h-389q-3 -84 49 -140t135 -56
z" />
    <glyph glyph-name="uni04E2" unicode="&#x4e2;" horiz-adv-x="714" 
d="M227 782q-14 0 -14 14t14 14h244q14 0 14 -14t-14 -14h-244zM595 670q16 0 16 -17v-646q0 -17 -16 -17t-16 17v601l-447 -611q-6 -7 -13 -7q-16 0 -16 17v646q0 17 16 17t16 -17v-601l447 611q6 7 13 7z" />
    <glyph glyph-name="uni04E3" unicode="&#x4e3;" horiz-adv-x="589" 
d="M173 652q-14 0 -14 14t14 14h228q14 0 14 -14t-14 -14h-228zM468 490q15 0 15 -17v-466q0 -17 -15 -17t-15 17v422l-319 -430q-6 -9 -13 -9q-15 0 -15 17v466q0 17 15 17t15 -17v-422l319 431q7 8 13 8z" />
    <glyph glyph-name="uni04E6" unicode="&#x4e6;" horiz-adv-x="784" 
d="M281 773q-14 0 -23.5 9.5t-9.5 23.5t9.5 23.5t23.5 9.5t23.5 -9.5t9.5 -23.5t-9.5 -23.5t-23.5 -9.5zM502 773q-14 0 -23.5 9.5t-9.5 23.5t9.5 23.5t23.5 9.5t23.5 -9.5t9.5 -23.5t-9.5 -23.5t-23.5 -9.5zM391 670q141 0 238.5 -98.5t97.5 -241.5t-97.5 -241.5
t-238.5 -98.5q-140 0 -237 98.5t-97 241.5t96.5 241.5t237.5 98.5zM392 639q-128 0 -214.5 -88.5t-86.5 -219.5q0 -132 86.5 -221t214.5 -89q127 0 214 89.5t87 220.5q0 130 -86.5 219t-214.5 89z" />
    <glyph glyph-name="uni04E7" unicode="&#x4e7;" horiz-adv-x="613" 
d="M211 699q14 0 23.5 -9.5t9.5 -23.5t-9.5 -23.5t-23.5 -9.5t-23.5 9.5t-9.5 23.5t9.5 23.5t23.5 9.5zM403 699q14 0 23.5 -9.5t9.5 -23.5t-9.5 -23.5t-23.5 -9.5t-23.5 9.5t-9.5 23.5t9.5 23.5t23.5 9.5zM306 490q104 0 175.5 -72.5t71.5 -177.5t-72 -177.5t-176 -72.5
q-103 0 -174 72.5t-71 177.5q0 106 71 178t175 72zM306 461q-91 0 -152.5 -63.5t-61.5 -157.5t61 -157.5t152 -63.5t153.5 64t62.5 157q0 94 -62 157.5t-153 63.5z" />
    <glyph glyph-name="uni04E8" unicode="&#x4e8;" horiz-adv-x="784" 
d="M391 670q141 0 238.5 -98.5t97.5 -241.5t-97.5 -241.5t-238.5 -98.5q-140 0 -237 98.5t-97 241.5t96.5 241.5t237.5 98.5zM392 639q-117 0 -200.5 -75t-97.5 -190h596q-14 115 -97.5 190t-200.5 75zM392 21q128 0 214.5 89t86.5 221v14h-602v-14q0 -132 86.5 -221
t214.5 -89z" />
    <glyph glyph-name="uni04E9" unicode="&#x4e9;" horiz-adv-x="613" 
d="M306 490q103 0 175 -73t72 -177t-72.5 -177t-175.5 -73q-102 0 -173.5 73t-71.5 177t71.5 177t174.5 73zM306 461q-84 0 -144.5 -56t-68.5 -141h427q-8 85 -68.5 141t-145.5 56zM305 19q90 0 152 62.5t64 154.5h-429q2 -92 63 -154.5t150 -62.5z" />
    <glyph glyph-name="uni04EE" unicode="&#x4ee;" horiz-adv-x="593" 
d="M176 782q-14 0 -14 14t14 14h244q14 0 14 -14t-14 -14h-244zM528 670q7 0 11.5 -4.5t4.5 -10.5q0 -4 -4 -13l-233 -539q-49 -113 -168 -113q-35 0 -54 6q-14 3 -14 16q0 6 4.5 10.5t11.5 4.5q2 0 20.5 -3.5t30.5 -3.5q104 0 144 95l10 23l-224 504q-4 9 -4 13
q0 6 4.5 10.5t11.5 4.5q10 0 15 -12l213 -486l205 486q5 12 15 12z" />
    <glyph glyph-name="uni04EF" unicode="&#x4ef;" horiz-adv-x="519" 
d="M145 652q-14 0 -14 14t14 14h228q14 0 14 -14t-14 -14h-228zM466 490q6 0 10.5 -4.5t4.5 -10.5q0 -3 -2 -8l-236 -548q-48 -109 -152 -109q-25 0 -44 6q-13 3 -13 14q0 14 14 14q2 0 17 -3t24 -3q88 0 128 94l31 73l-205 462l-2 8q0 6 4.5 10.5t10.5 4.5q12 0 16 -12
l192 -437l186 437q4 12 16 12z" />
    <glyph glyph-name="uni04F2" unicode="&#x4f2;" horiz-adv-x="593" 
d="M241 728q-6 0 -10.5 6t-0.5 12l82 158q4 9 14 9q9 0 12.5 -7t-1.5 -17l-84 -153q-5 -8 -12 -8zM395 728q-6 0 -10.5 6t-0.5 12l82 158q4 9 14 9q9 0 12.5 -7t-1.5 -17l-84 -153q-5 -8 -12 -8zM528 670q7 0 11.5 -4.5t4.5 -10.5q0 -4 -4 -13l-233 -539q-49 -113 -168 -113
q-35 0 -54 6q-14 3 -14 16q0 6 4.5 10.5t11.5 4.5q2 0 20.5 -3.5t30.5 -3.5q104 0 144 95l10 23l-224 504q-4 9 -4 13q0 6 4.5 10.5t11.5 4.5q10 0 15 -12l213 -486l205 486q5 12 15 12z" />
    <glyph glyph-name="uni04F3" unicode="&#x4f3;" horiz-adv-x="519" 
d="M199 561q-12 0 -12 12q0 4 2 8l84 184q5 11 16 11q6 0 10 -4t4 -9q0 -4 -4 -14l-86 -176q-6 -12 -14 -12zM333 561q-12 0 -12 12q0 4 2 8l84 184q5 11 16 11q6 0 10 -4t4 -9q0 -4 -4 -14l-86 -176q-6 -12 -14 -12zM466 490q6 0 10.5 -4.5t4.5 -10.5q0 -3 -2 -8l-236 -548
q-48 -109 -152 -109q-25 0 -44 6q-13 3 -13 14q0 14 14 14q2 0 17 -3t24 -3q88 0 128 94l31 73l-205 462l-2 8q0 6 4.5 10.5t10.5 4.5q12 0 16 -12l192 -437l186 437q4 12 16 12z" />
    <glyph glyph-name="Wgrave" unicode="&#x1e80;" horiz-adv-x="1077" 
d="M519 736l-84 153q-5 10 -1.5 17t12.5 7q10 0 14 -9l82 -158q4 -6 -0.5 -12t-10.5 -6q-7 0 -12 8zM1004 670q6 0 10.5 -4.5t4.5 -9.5q0 -4 -2 -10l-225 -643q-5 -13 -18 -13q-12 0 -17 13l-219 614l-218 -613q-5 -14 -17 -14q-13 0 -18 14l-225 642q-2 6 -2 10q0 14 15 14
q12 0 16 -13l214 -623l220 623q4 13 16 13q10 0 15 -13l220 -623l214 623q4 13 16 13z" />
    <glyph glyph-name="wgrave" unicode="&#x1e81;" horiz-adv-x="840" 
d="M402 573l-86 176q-4 10 -4 14q0 5 4 9t10 4q11 0 16 -11l84 -184q2 -4 2 -8q0 -12 -12 -12q-8 0 -14 12zM786 490q6 0 10.5 -4.5t4.5 -10.5q0 -4 -2 -9l-174 -466q-4 -10 -15 -10q-10 0 -15 10l-175 429l-175 -429q-5 -10 -15 -10q-11 0 -15 10l-174 466q-2 5 -2 9
q0 6 4.5 10.5t10.5 4.5q11 0 15 -11l160 -441l176 441q5 11 15 11t15 -11l176 -441l160 441q4 11 15 11z" />
    </font>
</defs>
</svg>
